G04*
G04 #@! TF.GenerationSoftware,Altium Limited,Altium Designer,24.6.1 (21)*
G04*
G04 Layer_Color=8421504*
%FSLAX25Y25*%
%MOIN*%
G70*
G04*
G04 #@! TF.SameCoordinates,3FA1F31C-5517-4C6A-88EA-090D92855D6C*
G04*
G04*
G04 #@! TF.FilePolarity,Positive*
G04*
G01*
G75*
%ADD17R,0.00787X0.02559*%
%ADD18R,0.02559X0.00787*%
%ADD19R,0.03150X0.06299*%
%ADD20R,0.08268X0.11811*%
%ADD21R,0.04331X0.00984*%
G04:AMPARAMS|DCode=22|XSize=43.31mil|YSize=88.58mil|CornerRadius=0.87mil|HoleSize=0mil|Usage=FLASHONLY|Rotation=270.000|XOffset=0mil|YOffset=0mil|HoleType=Round|Shape=RoundedRectangle|*
%AMROUNDEDRECTD22*
21,1,0.04331,0.08685,0,0,270.0*
21,1,0.04158,0.08858,0,0,270.0*
1,1,0.00173,-0.04343,-0.02079*
1,1,0.00173,-0.04343,0.02079*
1,1,0.00173,0.04343,0.02079*
1,1,0.00173,0.04343,-0.02079*
%
%ADD22ROUNDEDRECTD22*%
%ADD23R,0.07137X0.02097*%
%ADD24R,0.02126X0.02362*%
%ADD25R,0.07087X0.01575*%
%ADD26R,0.05156X0.02000*%
%ADD27R,0.02362X0.02266*%
%ADD28R,0.03700X0.03378*%
%ADD29R,0.03365X0.02197*%
%ADD30R,0.02197X0.03365*%
%ADD31R,0.02266X0.02362*%
%ADD32R,0.02362X0.02126*%
%ADD33R,0.04724X0.03937*%
%ADD34R,0.04724X0.08661*%
%ADD35R,0.04724X0.07087*%
%ADD36R,0.06299X0.05906*%
%ADD37R,0.02756X0.06299*%
G36*
X138319Y71030D02*
X133807D01*
Y75542D01*
X138319D01*
Y71030D01*
D02*
G37*
G36*
X133019D02*
X128507D01*
Y75542D01*
X133019D01*
Y71030D01*
D02*
G37*
G36*
X127719D02*
X123207D01*
Y75542D01*
X127719D01*
Y71030D01*
D02*
G37*
G36*
X138319Y65729D02*
X133807D01*
Y70242D01*
X138319D01*
Y65729D01*
D02*
G37*
G36*
X133019D02*
X128507D01*
Y70242D01*
X133019D01*
Y65729D01*
D02*
G37*
G36*
X127719D02*
X123207D01*
Y70242D01*
X127719D01*
Y65729D01*
D02*
G37*
G36*
X138319Y60430D02*
X133807D01*
Y64942D01*
X138319D01*
Y60430D01*
D02*
G37*
G36*
X133019D02*
X128507D01*
Y64942D01*
X133019D01*
Y60430D01*
D02*
G37*
G36*
X127719D02*
X123207D01*
Y64942D01*
X127719D01*
Y60430D01*
D02*
G37*
D17*
X140999Y54600D02*
D03*
X139424D02*
D03*
X137850D02*
D03*
X136275D02*
D03*
X134700D02*
D03*
X133125D02*
D03*
X131550D02*
D03*
X129976D02*
D03*
X128401D02*
D03*
X126826D02*
D03*
X125251D02*
D03*
X123676D02*
D03*
X122102D02*
D03*
X120527D02*
D03*
Y81372D02*
D03*
X122102D02*
D03*
X123676D02*
D03*
X125251D02*
D03*
X126826D02*
D03*
X128401D02*
D03*
X129976D02*
D03*
X131550D02*
D03*
X133125D02*
D03*
X134700D02*
D03*
X136275D02*
D03*
X137850D02*
D03*
X139424D02*
D03*
X140999D02*
D03*
D18*
X117377Y57750D02*
D03*
Y59324D02*
D03*
Y60899D02*
D03*
Y62474D02*
D03*
Y64049D02*
D03*
Y65624D02*
D03*
Y67198D02*
D03*
Y68773D02*
D03*
Y70348D02*
D03*
Y71923D02*
D03*
Y73498D02*
D03*
Y75072D02*
D03*
Y76647D02*
D03*
Y78222D02*
D03*
X144149D02*
D03*
Y76647D02*
D03*
Y75072D02*
D03*
Y73498D02*
D03*
Y71923D02*
D03*
Y70348D02*
D03*
Y68773D02*
D03*
Y67198D02*
D03*
Y65624D02*
D03*
Y64049D02*
D03*
Y62474D02*
D03*
Y60899D02*
D03*
Y59324D02*
D03*
Y57750D02*
D03*
D19*
X160082Y19230D02*
D03*
X155161D02*
D03*
X150239D02*
D03*
X145318D02*
D03*
X51618D02*
D03*
X56539D02*
D03*
X61461D02*
D03*
X66382D02*
D03*
X111121D02*
D03*
X106200D02*
D03*
X101279D02*
D03*
D20*
X170121Y7813D02*
D03*
X135279D02*
D03*
X41579D02*
D03*
X76421D02*
D03*
X121161D02*
D03*
X91239D02*
D03*
D21*
X165023Y80490D02*
D03*
Y78521D02*
D03*
Y76553D02*
D03*
Y74584D02*
D03*
Y72616D02*
D03*
Y70647D02*
D03*
Y68679D02*
D03*
Y66710D02*
D03*
D22*
X22535Y73879D02*
D03*
Y56163D02*
D03*
Y46321D02*
D03*
Y64037D02*
D03*
D23*
X120747Y42600D02*
D03*
Y37600D02*
D03*
Y32600D02*
D03*
Y27600D02*
D03*
X91653D02*
D03*
Y32600D02*
D03*
Y37600D02*
D03*
Y42600D02*
D03*
D24*
X195001Y18100D02*
D03*
X191599D02*
D03*
X153701Y96400D02*
D03*
X150299D02*
D03*
D25*
X206700Y7498D02*
D03*
Y19702D02*
D03*
D26*
X58300Y40340D02*
D03*
Y32860D02*
D03*
X48100D02*
D03*
Y36600D02*
D03*
Y40340D02*
D03*
D27*
X195000Y23465D02*
D03*
Y27935D02*
D03*
D28*
X154900Y90839D02*
D03*
Y84961D02*
D03*
D29*
X41283Y57600D02*
D03*
X36117D02*
D03*
X41283Y62600D02*
D03*
X36117D02*
D03*
X156883Y68600D02*
D03*
X151717D02*
D03*
D30*
X148800Y85317D02*
D03*
Y90483D02*
D03*
D31*
X178935Y28100D02*
D03*
X174465D02*
D03*
D32*
X182100Y51501D02*
D03*
Y48099D02*
D03*
X167200Y50699D02*
D03*
Y54101D02*
D03*
X176300Y48299D02*
D03*
Y51701D02*
D03*
X84200Y39801D02*
D03*
Y36399D02*
D03*
X79200Y39801D02*
D03*
Y36399D02*
D03*
X166200Y27899D02*
D03*
Y31301D02*
D03*
X160400Y50699D02*
D03*
Y54101D02*
D03*
X74200Y39801D02*
D03*
Y36399D02*
D03*
X157500Y60799D02*
D03*
Y64201D02*
D03*
X69200Y39801D02*
D03*
Y36399D02*
D03*
X185200Y27899D02*
D03*
Y31301D02*
D03*
X32200Y46301D02*
D03*
Y42899D02*
D03*
X64200Y39801D02*
D03*
Y36399D02*
D03*
X36700Y46301D02*
D03*
Y42899D02*
D03*
X30700Y57218D02*
D03*
Y53816D02*
D03*
Y62817D02*
D03*
Y66218D02*
D03*
X113100Y77601D02*
D03*
Y74199D02*
D03*
X157700Y77801D02*
D03*
Y74399D02*
D03*
X153200D02*
D03*
Y77801D02*
D03*
X127700Y42301D02*
D03*
Y38899D02*
D03*
D33*
X147624Y108978D02*
D03*
Y102285D02*
D03*
X125576Y108978D02*
D03*
Y102285D02*
D03*
D34*
X109212Y97320D02*
D03*
X48188D02*
D03*
D35*
X109212Y60706D02*
D03*
D36*
X51731Y59722D02*
D03*
D37*
X104487Y55588D02*
D03*
X100157D02*
D03*
X95826D02*
D03*
X91495D02*
D03*
X87165D02*
D03*
X82834D02*
D03*
X78503D02*
D03*
X74172D02*
D03*
X69842D02*
D03*
M02*
