G04*
G04 #@! TF.GenerationSoftware,Altium Limited,Altium Designer,24.6.1 (21)*
G04*
G04 Layer_Color=39423*
%FSLAX25Y25*%
%MOIN*%
G70*
G04*
G04 #@! TF.SameCoordinates,3FA1F31C-5517-4C6A-88EA-090D92855D6C*
G04*
G04*
G04 #@! TF.FilePolarity,Positive*
G04*
G01*
G75*
%ADD10C,0.01000*%
%ADD13C,0.00500*%
%ADD16C,0.00300*%
D10*
X165900Y2300D02*
Y17100D01*
X139500Y2300D02*
X165900D01*
X139500D02*
Y17300D01*
X165900D01*
Y17100D02*
Y17300D01*
X95500Y16500D02*
X117100D01*
X72200Y16700D02*
Y16900D01*
X45800D02*
X72200D01*
X117100Y1800D02*
Y16500D01*
X95500Y1800D02*
X117100D01*
X95500D02*
Y16500D01*
X45800Y2000D02*
Y16900D01*
Y2000D02*
X72200D01*
Y16700D01*
D13*
X145534Y65517D02*
X146010Y65041D01*
X146486Y64327D01*
X146962Y63375D01*
X147200Y62185D01*
Y61233D01*
X146962Y60042D01*
X146486Y59090D01*
X146010Y58376D01*
X145534Y57900D01*
X146010Y65041D02*
X146486Y64089D01*
X146724Y63375D01*
X146962Y62185D01*
Y61233D01*
X146724Y60042D01*
X146486Y59328D01*
X146010Y58376D01*
X141773Y62185D02*
X142011Y61947D01*
X141773Y61709D01*
X141534Y61947D01*
Y62185D01*
X142011Y62661D01*
X142487Y62899D01*
X143201D01*
X143915Y62661D01*
X144391Y62185D01*
X144629Y61471D01*
Y60995D01*
X144391Y60280D01*
X143915Y59804D01*
X143201Y59566D01*
X142725D01*
X142011Y59804D01*
X141534Y60280D01*
X143201Y62899D02*
X143677Y62661D01*
X144153Y62185D01*
X144391Y61471D01*
Y60995D01*
X144153Y60280D01*
X143677Y59804D01*
X143201Y59566D01*
X140773Y65517D02*
X140297Y65041D01*
X139821Y64327D01*
X139345Y63375D01*
X139107Y62185D01*
Y61233D01*
X139345Y60042D01*
X139821Y59090D01*
X140297Y58376D01*
X140773Y57900D01*
X140297Y65041D02*
X139821Y64089D01*
X139583Y63375D01*
X139345Y62185D01*
Y61233D01*
X139583Y60042D01*
X139821Y59328D01*
X140297Y58376D01*
X137488Y64565D02*
Y59566D01*
X137250Y64565D02*
Y59566D01*
X138202Y64565D02*
X135821D01*
X135107Y64327D01*
X134631Y63851D01*
X134393Y63375D01*
X134155Y62661D01*
Y61471D01*
X134393Y60756D01*
X134631Y60280D01*
X135107Y59804D01*
X135821Y59566D01*
X138202D01*
X135821Y64565D02*
X135345Y64327D01*
X134869Y63851D01*
X134631Y63375D01*
X134393Y62661D01*
Y61471D01*
X134631Y60756D01*
X134869Y60280D01*
X135345Y59804D01*
X135821Y59566D01*
X133251Y61471D02*
X130394D01*
Y61947D01*
X130632Y62423D01*
X130870Y62661D01*
X131346Y62899D01*
X132060D01*
X132774Y62661D01*
X133251Y62185D01*
X133489Y61471D01*
Y60995D01*
X133251Y60280D01*
X132774Y59804D01*
X132060Y59566D01*
X131584D01*
X130870Y59804D01*
X130394Y60280D01*
X130632Y61471D02*
Y62185D01*
X130870Y62661D01*
X132060Y62899D02*
X132536Y62661D01*
X133013Y62185D01*
X133251Y61471D01*
Y60995D01*
X133013Y60280D01*
X132536Y59804D01*
X132060Y59566D01*
X127252Y62423D02*
X127014Y62899D01*
Y61947D01*
X127252Y62423D01*
X127490Y62661D01*
X127966Y62899D01*
X128918D01*
X129394Y62661D01*
X129632Y62423D01*
Y61947D01*
X129394Y61709D01*
X128918Y61471D01*
X127728Y60995D01*
X127252Y60756D01*
X127014Y60518D01*
X129632Y62185D02*
X129394Y61947D01*
X128918Y61709D01*
X127728Y61233D01*
X127252Y60995D01*
X127014Y60756D01*
Y60042D01*
X127252Y59804D01*
X127728Y59566D01*
X128680D01*
X129156Y59804D01*
X129394Y60042D01*
X129632Y60518D01*
Y59566D01*
X129394Y60042D01*
X125490Y64565D02*
X125728Y64327D01*
X125490Y64089D01*
X125252Y64327D01*
X125490Y64565D01*
Y62899D02*
Y59566D01*
X125252Y62899D02*
Y59566D01*
X126205Y62899D02*
X125252D01*
X126205Y59566D02*
X124538D01*
X122205Y62899D02*
X122681Y62661D01*
X122919Y62423D01*
X123158Y61947D01*
Y61471D01*
X122919Y60995D01*
X122681Y60756D01*
X122205Y60518D01*
X121729D01*
X121253Y60756D01*
X121015Y60995D01*
X120777Y61471D01*
Y61947D01*
X121015Y62423D01*
X121253Y62661D01*
X121729Y62899D01*
X122205D01*
X122681Y62661D02*
X122919Y62185D01*
Y61233D01*
X122681Y60756D01*
X121253D02*
X121015Y61233D01*
Y62185D01*
X121253Y62661D01*
X121015Y62423D02*
X120777Y62661D01*
X120301Y62899D01*
Y62661D01*
X120777D01*
X122919Y60995D02*
X123158Y60756D01*
X123396Y60280D01*
Y60042D01*
X123158Y59566D01*
X122443Y59328D01*
X121253D01*
X120539Y59090D01*
X120301Y58852D01*
X123396Y60042D02*
X123158Y59804D01*
X122443Y59566D01*
X121253D01*
X120539Y59328D01*
X120301Y58852D01*
Y58614D01*
X120539Y58138D01*
X121253Y57900D01*
X122681D01*
X123396Y58138D01*
X123634Y58614D01*
Y58852D01*
X123396Y59328D01*
X122681Y59566D01*
X118849Y62899D02*
Y59566D01*
X118611Y62899D02*
Y59566D01*
Y62185D02*
X118135Y62661D01*
X117421Y62899D01*
X116945D01*
X116230Y62661D01*
X115992Y62185D01*
Y59566D01*
X116945Y62899D02*
X116469Y62661D01*
X116230Y62185D01*
Y59566D01*
X119563Y62899D02*
X118611D01*
X119563Y59566D02*
X117897D01*
X116945D02*
X115278D01*
X109422Y64565D02*
Y59566D01*
X109184Y64565D02*
Y59566D01*
Y62185D02*
X108708Y62661D01*
X108232Y62899D01*
X107756D01*
X107042Y62661D01*
X106566Y62185D01*
X106328Y61471D01*
Y60995D01*
X106566Y60280D01*
X107042Y59804D01*
X107756Y59566D01*
X108232D01*
X108708Y59804D01*
X109184Y60280D01*
X107756Y62899D02*
X107280Y62661D01*
X106804Y62185D01*
X106566Y61471D01*
Y60995D01*
X106804Y60280D01*
X107280Y59804D01*
X107756Y59566D01*
X110136Y64565D02*
X109184D01*
X105161Y62899D02*
X103733Y59566D01*
X104923Y62899D02*
X103733Y60042D01*
X102305Y62899D02*
X103733Y59566D01*
X104209Y58614D01*
X104685Y58138D01*
X105161Y57900D01*
X105399D01*
X105637Y58138D01*
X105399Y58376D01*
X105161Y58138D01*
X105637Y62899D02*
X104209D01*
X103257D02*
X101829D01*
X95925D02*
Y59566D01*
X95687Y62899D02*
Y59566D01*
Y62185D02*
X95211Y62661D01*
X94497Y62899D01*
X94021D01*
X93307Y62661D01*
X93069Y62185D01*
Y59566D01*
X94021Y62899D02*
X93545Y62661D01*
X93307Y62185D01*
Y59566D01*
X96639Y62899D02*
X95687D01*
X96639Y59566D02*
X94973D01*
X94021D02*
X92355D01*
X88855Y62899D02*
Y57900D01*
X88617Y62899D02*
Y57900D01*
X88855Y62185D02*
X89331Y62661D01*
X89807Y62899D01*
X90284D01*
X90998Y62661D01*
X91474Y62185D01*
X91712Y61471D01*
Y60995D01*
X91474Y60280D01*
X90998Y59804D01*
X90284Y59566D01*
X89807D01*
X89331Y59804D01*
X88855Y60280D01*
X90284Y62899D02*
X90760Y62661D01*
X91236Y62185D01*
X91474Y61471D01*
Y60995D01*
X91236Y60280D01*
X90760Y59804D01*
X90284Y59566D01*
X89569Y57900D02*
X87903D01*
X86975D02*
X82928D01*
X81571Y62899D02*
Y59566D01*
X81333Y62899D02*
Y59566D01*
Y62185D02*
X80857Y62661D01*
X80143Y62899D01*
X79667D01*
X78953Y62661D01*
X78715Y62185D01*
Y59566D01*
X79667Y62899D02*
X79191Y62661D01*
X78953Y62185D01*
Y59566D01*
X78715Y62185D02*
X78238Y62661D01*
X77524Y62899D01*
X77048D01*
X76334Y62661D01*
X76096Y62185D01*
Y59566D01*
X77048Y62899D02*
X76572Y62661D01*
X76334Y62185D01*
Y59566D01*
X82285Y62899D02*
X81333D01*
X82285Y59566D02*
X80619D01*
X79667D02*
X78000D01*
X77048D02*
X75382D01*
X74287Y64565D02*
X74525Y64327D01*
X74287Y64089D01*
X74049Y64327D01*
X74287Y64565D01*
Y62899D02*
Y59566D01*
X74049Y62899D02*
Y59566D01*
X75001Y62899D02*
X74049D01*
X75001Y59566D02*
X73335D01*
X71716Y62899D02*
Y59566D01*
X71478Y62899D02*
Y59566D01*
Y62185D02*
X71002Y62661D01*
X70288Y62899D01*
X69812D01*
X69098Y62661D01*
X68860Y62185D01*
Y59566D01*
X69812Y62899D02*
X69336Y62661D01*
X69098Y62185D01*
Y59566D01*
X72430Y62899D02*
X71478D01*
X72430Y59566D02*
X70764D01*
X69812D02*
X68146D01*
X66789Y64565D02*
Y59566D01*
X66550Y64565D02*
Y59566D01*
Y62185D02*
X66075Y62661D01*
X65360Y62899D01*
X64884D01*
X64170Y62661D01*
X63932Y62185D01*
Y59566D01*
X64884Y62899D02*
X64408Y62661D01*
X64170Y62185D01*
Y59566D01*
X67503Y64565D02*
X66550D01*
X67503Y59566D02*
X65836D01*
X64884D02*
X63218D01*
X62337Y57900D02*
X58290D01*
X144029Y13215D02*
X146600D01*
X145315Y14500D02*
Y11929D01*
X144172Y11401D02*
X144315Y11258D01*
X144458Y11401D01*
X144315Y11543D01*
X144172D01*
X143886Y11401D01*
X143744Y11258D01*
X143601Y10829D01*
Y10258D01*
X143744Y9830D01*
X144029Y9687D01*
X144458D01*
X144743Y9830D01*
X144886Y10258D01*
Y10687D01*
X143601Y10258D02*
X143744Y9972D01*
X144029Y9830D01*
X144458D01*
X144743Y9972D01*
X144886Y10258D01*
X145029Y9972D01*
X145315Y9687D01*
X145600Y9544D01*
X146029D01*
X146314Y9687D01*
X146457Y9830D01*
X146600Y10258D01*
Y10829D01*
X146457Y11258D01*
X146314Y11401D01*
X146029Y11543D01*
X145886D01*
X145743Y11401D01*
X145886Y11258D01*
X146029Y11401D01*
X145172Y9830D02*
X145600Y9687D01*
X146029D01*
X146314Y9830D01*
X146457Y9972D01*
X146600Y10258D01*
X143601Y8816D02*
X146600Y7816D01*
X143601Y8673D02*
X146171Y7816D01*
X143601Y6816D02*
X146600Y7816D01*
X143601Y9101D02*
Y8244D01*
Y7387D02*
Y6530D01*
X144172Y6002D02*
X144315Y5859D01*
X144458Y6002D01*
X144315Y6145D01*
X144172D01*
X143886Y6002D01*
X143744Y5859D01*
X143601Y5430D01*
Y4859D01*
X143744Y4431D01*
X144029Y4288D01*
X144458D01*
X144743Y4431D01*
X144886Y4859D01*
Y5288D01*
X143601Y4859D02*
X143744Y4574D01*
X144029Y4431D01*
X144458D01*
X144743Y4574D01*
X144886Y4859D01*
X145029Y4574D01*
X145315Y4288D01*
X145600Y4145D01*
X146029D01*
X146314Y4288D01*
X146457Y4431D01*
X146600Y4859D01*
Y5430D01*
X146457Y5859D01*
X146314Y6002D01*
X146029Y6145D01*
X145886D01*
X145743Y6002D01*
X145886Y5859D01*
X146029Y6002D01*
X145172Y4431D02*
X145600Y4288D01*
X146029D01*
X146314Y4431D01*
X146457Y4574D01*
X146600Y4859D01*
X148701Y10987D02*
X151700D01*
X148701Y10844D02*
X151700D01*
X148701Y11843D02*
X149558Y11986D01*
X148701D01*
Y9844D01*
X149558D01*
X148701Y9987D01*
X151700Y11415D02*
Y10415D01*
X148701Y9130D02*
X151700Y7273D01*
X148701Y8987D02*
X151700Y7130D01*
X148701D02*
X151700Y9130D01*
X148701Y9415D02*
Y8558D01*
Y7701D02*
Y6844D01*
X151700Y9415D02*
Y8558D01*
Y7701D02*
Y6844D01*
X148701Y6030D02*
X151700D01*
X148701Y5888D02*
X151700D01*
X148701Y6459D02*
Y5031D01*
X148844Y4602D01*
X149129Y4316D01*
X149415Y4174D01*
X149843Y4031D01*
X150557D01*
X150986Y4174D01*
X151271Y4316D01*
X151557Y4602D01*
X151700Y5031D01*
Y6459D01*
X148701Y5031D02*
X148844Y4745D01*
X149129Y4459D01*
X149415Y4316D01*
X149843Y4174D01*
X150557D01*
X150986Y4316D01*
X151271Y4459D01*
X151557Y4745D01*
X151700Y5031D01*
X153701Y11872D02*
X156700D01*
X153701Y11729D02*
X156700D01*
X153701Y12300D02*
Y10586D01*
X153843Y10158D01*
X153986Y10015D01*
X154272Y9872D01*
X154558D01*
X154843Y10015D01*
X154986Y10158D01*
X155129Y10586D01*
Y11729D01*
X153701Y10586D02*
X153843Y10300D01*
X153986Y10158D01*
X154272Y10015D01*
X154558D01*
X154843Y10158D01*
X154986Y10300D01*
X155129Y10586D01*
X156700Y12300D02*
Y11300D01*
X155129Y11015D02*
X155272Y10729D01*
X155415Y10586D01*
X156414Y10158D01*
X156557Y10015D01*
Y9872D01*
X156414Y9729D01*
X155272Y10729D02*
X155557Y10586D01*
X156557Y10300D01*
X156700Y10158D01*
Y9872D01*
X156414Y9729D01*
X156272D01*
X153701Y9058D02*
X156700Y7201D01*
X153701Y8915D02*
X156700Y7058D01*
X153701D02*
X156700Y9058D01*
X153701Y9343D02*
Y8486D01*
Y7630D02*
Y6773D01*
X156700Y9343D02*
Y8486D01*
Y7630D02*
Y6773D01*
X153701Y5959D02*
X156700D01*
X153701Y5816D02*
X156700D01*
X153701Y6387D02*
Y4959D01*
X153843Y4530D01*
X154129Y4245D01*
X154415Y4102D01*
X154843Y3959D01*
X155557D01*
X155986Y4102D01*
X156272Y4245D01*
X156557Y4530D01*
X156700Y4959D01*
Y6387D01*
X153701Y4959D02*
X153843Y4673D01*
X154129Y4387D01*
X154415Y4245D01*
X154843Y4102D01*
X155557D01*
X155986Y4245D01*
X156272Y4387D01*
X156557Y4673D01*
X156700Y4959D01*
X159229Y10615D02*
X159658Y10472D01*
X158801D01*
X159229Y10615D01*
X158943Y10901D01*
X158801Y11329D01*
Y11615D01*
X158943Y12043D01*
X159229Y12329D01*
X159515Y12472D01*
X159943Y12615D01*
X160657D01*
X161086Y12472D01*
X161372Y12329D01*
X161657Y12043D01*
X161800Y11615D01*
Y11329D01*
X161657Y10901D01*
X161372Y10615D01*
X158801Y11615D02*
X158943Y11901D01*
X159229Y12186D01*
X159515Y12329D01*
X159943Y12472D01*
X160657D01*
X161086Y12329D01*
X161372Y12186D01*
X161657Y11901D01*
X161800Y11615D01*
X160657Y10615D02*
X161800D01*
X160657Y10472D02*
X161800D01*
X160657Y11044D02*
Y10044D01*
X158801Y9230D02*
X161800D01*
X158801Y9087D02*
X161514Y7373D01*
X159086Y9087D02*
X161800Y7373D01*
X158801D02*
X161800D01*
X158801Y9658D02*
Y9087D01*
Y7801D02*
Y6944D01*
X161800Y9658D02*
Y8801D01*
X158801Y6145D02*
X161800D01*
X158801Y6002D02*
X161800D01*
X158801Y6573D02*
Y5145D01*
X158943Y4716D01*
X159229Y4431D01*
X159515Y4288D01*
X159943Y4145D01*
X160657D01*
X161086Y4288D01*
X161372Y4431D01*
X161657Y4716D01*
X161800Y5145D01*
Y6573D01*
X158801Y5145D02*
X158943Y4859D01*
X159229Y4574D01*
X159515Y4431D01*
X159943Y4288D01*
X160657D01*
X161086Y4431D01*
X161372Y4574D01*
X161657Y4859D01*
X161800Y5145D01*
X65529Y10215D02*
X65958Y10072D01*
X65101D01*
X65529Y10215D01*
X65244Y10501D01*
X65101Y10929D01*
Y11215D01*
X65244Y11643D01*
X65529Y11929D01*
X65815Y12072D01*
X66243Y12215D01*
X66957D01*
X67386Y12072D01*
X67672Y11929D01*
X67957Y11643D01*
X68100Y11215D01*
Y10929D01*
X67957Y10501D01*
X67672Y10215D01*
X65101Y11215D02*
X65244Y11501D01*
X65529Y11786D01*
X65815Y11929D01*
X66243Y12072D01*
X66957D01*
X67386Y11929D01*
X67672Y11786D01*
X67957Y11501D01*
X68100Y11215D01*
X66957Y10215D02*
X68100D01*
X66957Y10072D02*
X68100D01*
X66957Y10644D02*
Y9644D01*
X65101Y8830D02*
X68100D01*
X65101Y8687D02*
X67814Y6973D01*
X65386Y8687D02*
X68100Y6973D01*
X65101D02*
X68100D01*
X65101Y9258D02*
Y8687D01*
Y7401D02*
Y6544D01*
X68100Y9258D02*
Y8401D01*
X65101Y5745D02*
X68100D01*
X65101Y5602D02*
X68100D01*
X65101Y6173D02*
Y4745D01*
X65244Y4316D01*
X65529Y4031D01*
X65815Y3888D01*
X66243Y3745D01*
X66957D01*
X67386Y3888D01*
X67672Y4031D01*
X67957Y4316D01*
X68100Y4745D01*
Y6173D01*
X65101Y4745D02*
X65244Y4459D01*
X65529Y4174D01*
X65815Y4031D01*
X66243Y3888D01*
X66957D01*
X67386Y4031D01*
X67672Y4174D01*
X67957Y4459D01*
X68100Y4745D01*
X60529Y9044D02*
X60101Y8901D01*
X60958D01*
X60529Y9044D01*
X60243Y9330D01*
X60101Y9758D01*
Y10187D01*
X60243Y10615D01*
X60529Y10901D01*
X60815D01*
X61100Y10758D01*
X61243Y10615D01*
X61386Y10329D01*
X61672Y9472D01*
X61815Y9187D01*
X62100Y8901D01*
X60815Y10901D02*
X61100Y10615D01*
X61243Y10329D01*
X61529Y9472D01*
X61672Y9187D01*
X61815Y9044D01*
X62100Y8901D01*
X62672D01*
X62957Y9187D01*
X63100Y9615D01*
Y10044D01*
X62957Y10472D01*
X62672Y10758D01*
X62243Y10901D01*
X63100D01*
X62672Y10758D01*
X60529Y6459D02*
X60958Y6316D01*
X60101D01*
X60529Y6459D01*
X60243Y6744D01*
X60101Y7173D01*
Y7459D01*
X60243Y7887D01*
X60529Y8173D01*
X60815Y8315D01*
X61243Y8458D01*
X61957D01*
X62386Y8315D01*
X62672Y8173D01*
X62957Y7887D01*
X63100Y7459D01*
Y7173D01*
X62957Y6744D01*
X62672Y6459D01*
X62386Y6316D01*
X60101Y7459D02*
X60243Y7744D01*
X60529Y8030D01*
X60815Y8173D01*
X61243Y8315D01*
X61957D01*
X62386Y8173D01*
X62672Y8030D01*
X62957Y7744D01*
X63100Y7459D01*
X60101Y5459D02*
X63100D01*
X60101Y5316D02*
X63100D01*
X60101Y5887D02*
Y4888D01*
X63100Y5887D02*
Y3745D01*
X62243D01*
X63100Y3888D01*
X55429Y9730D02*
X55001Y9587D01*
X55858D01*
X55429Y9730D01*
X55143Y10015D01*
X55001Y10444D01*
Y10872D01*
X55143Y11301D01*
X55429Y11586D01*
X55715D01*
X56000Y11443D01*
X56143Y11301D01*
X56286Y11015D01*
X56572Y10158D01*
X56715Y9872D01*
X57000Y9587D01*
X55715Y11586D02*
X56000Y11301D01*
X56143Y11015D01*
X56429Y10158D01*
X56572Y9872D01*
X56715Y9730D01*
X57000Y9587D01*
X57572D01*
X57857Y9872D01*
X58000Y10301D01*
Y10729D01*
X57857Y11158D01*
X57572Y11443D01*
X57143Y11586D01*
X58000D01*
X57572Y11443D01*
X55001Y8715D02*
X58000D01*
X55001Y8573D02*
X58000D01*
X55001Y9144D02*
Y7716D01*
X55143Y7287D01*
X55429Y7001D01*
X55715Y6859D01*
X56143Y6716D01*
X56857D01*
X57286Y6859D01*
X57572Y7001D01*
X57857Y7287D01*
X58000Y7716D01*
Y9144D01*
X55001Y7716D02*
X55143Y7430D01*
X55429Y7144D01*
X55715Y7001D01*
X56143Y6859D01*
X56857D01*
X57286Y7001D01*
X57572Y7144D01*
X57857Y7430D01*
X58000Y7716D01*
X55001Y5031D02*
X58000Y6030D01*
X55001Y5031D02*
X58000Y4031D01*
X55429Y5031D02*
X58000Y4174D01*
X57143Y5745D02*
Y4459D01*
X58000Y6316D02*
Y5459D01*
Y4602D02*
Y3745D01*
X50329Y12815D02*
X52900D01*
X51615Y14100D02*
Y11529D01*
X50472Y11001D02*
X50615Y10858D01*
X50758Y11001D01*
X50615Y11144D01*
X50472D01*
X50186Y11001D01*
X50043Y10858D01*
X49901Y10429D01*
Y9858D01*
X50043Y9430D01*
X50329Y9287D01*
X50758D01*
X51043Y9430D01*
X51186Y9858D01*
Y10287D01*
X49901Y9858D02*
X50043Y9572D01*
X50329Y9430D01*
X50758D01*
X51043Y9572D01*
X51186Y9858D01*
X51329Y9572D01*
X51615Y9287D01*
X51900Y9144D01*
X52329D01*
X52614Y9287D01*
X52757Y9430D01*
X52900Y9858D01*
Y10429D01*
X52757Y10858D01*
X52614Y11001D01*
X52329Y11144D01*
X52186D01*
X52043Y11001D01*
X52186Y10858D01*
X52329Y11001D01*
X51472Y9430D02*
X51900Y9287D01*
X52329D01*
X52614Y9430D01*
X52757Y9572D01*
X52900Y9858D01*
X49901Y8416D02*
X52900Y7416D01*
X49901Y8273D02*
X52472Y7416D01*
X49901Y6416D02*
X52900Y7416D01*
X49901Y8701D02*
Y7844D01*
Y6987D02*
Y6130D01*
X50472Y5602D02*
X50615Y5459D01*
X50758Y5602D01*
X50615Y5745D01*
X50472D01*
X50186Y5602D01*
X50043Y5459D01*
X49901Y5031D01*
Y4459D01*
X50043Y4031D01*
X50329Y3888D01*
X50758D01*
X51043Y4031D01*
X51186Y4459D01*
Y4888D01*
X49901Y4459D02*
X50043Y4174D01*
X50329Y4031D01*
X50758D01*
X51043Y4174D01*
X51186Y4459D01*
X51329Y4174D01*
X51615Y3888D01*
X51900Y3745D01*
X52329D01*
X52614Y3888D01*
X52757Y4031D01*
X52900Y4459D01*
Y5031D01*
X52757Y5459D01*
X52614Y5602D01*
X52329Y5745D01*
X52186D01*
X52043Y5602D01*
X52186Y5459D01*
X52329Y5602D01*
X51472Y4031D02*
X51900Y3888D01*
X52329D01*
X52614Y4031D01*
X52757Y4174D01*
X52900Y4459D01*
D16*
X100158Y10634D02*
X100515Y10515D01*
X99800D01*
X100158Y10634D01*
X99920Y10872D01*
X99800Y11229D01*
Y11467D01*
X99920Y11824D01*
X100158Y12062D01*
X100396Y12181D01*
X100753Y12300D01*
X101348D01*
X101705Y12181D01*
X101943Y12062D01*
X102181Y11824D01*
X102300Y11467D01*
Y11229D01*
X102181Y10872D01*
X101943Y10634D01*
X99800Y11467D02*
X99920Y11705D01*
X100158Y11943D01*
X100396Y12062D01*
X100753Y12181D01*
X101348D01*
X101705Y12062D01*
X101943Y11943D01*
X102181Y11705D01*
X102300Y11467D01*
X101348Y10634D02*
X102300D01*
X101348Y10515D02*
X102300D01*
X101348Y10991D02*
Y10158D01*
X99800Y9479D02*
X102300D01*
X99800Y9360D02*
X102300D01*
X99800Y9836D02*
Y8408D01*
X99920Y8051D01*
X100039Y7932D01*
X100277Y7813D01*
X100634D01*
X100872Y7932D01*
X100991Y8051D01*
X101110Y8408D01*
Y9360D01*
X99800Y8408D02*
X99920Y8170D01*
X100039Y8051D01*
X100277Y7932D01*
X100634D01*
X100872Y8051D01*
X100991Y8170D01*
X101110Y8408D01*
X102300Y9836D02*
Y9003D01*
X99800Y7123D02*
X102300D01*
X99800Y7004D02*
X102300D01*
X99800Y7480D02*
Y6646D01*
X102300Y7480D02*
Y6646D01*
X99800Y5361D02*
X99920Y5718D01*
X100158Y5956D01*
X100396Y6075D01*
X100872Y6194D01*
X101229D01*
X101705Y6075D01*
X101943Y5956D01*
X102181Y5718D01*
X102300Y5361D01*
Y5123D01*
X102181Y4766D01*
X101943Y4528D01*
X101705Y4409D01*
X101229Y4290D01*
X100872D01*
X100396Y4409D01*
X100158Y4528D01*
X99920Y4766D01*
X99800Y5123D01*
Y5361D01*
X99920Y5599D01*
X100158Y5837D01*
X100396Y5956D01*
X100872Y6075D01*
X101229D01*
X101705Y5956D01*
X101943Y5837D01*
X102181Y5599D01*
X102300Y5361D01*
Y5123D02*
X102181Y4885D01*
X101943Y4647D01*
X101705Y4528D01*
X101229Y4409D01*
X100872D01*
X100396Y4528D01*
X100158Y4647D01*
X99920Y4885D01*
X99800Y5123D01*
X100277Y3945D02*
X100158Y3707D01*
X99800Y3350D01*
X102300D01*
X99920Y3469D02*
X102300D01*
Y3945D02*
Y2873D01*
X105058Y11334D02*
X105415Y11215D01*
X104701D01*
X105058Y11334D01*
X104820Y11572D01*
X104701Y11929D01*
Y12167D01*
X104820Y12524D01*
X105058Y12762D01*
X105296Y12881D01*
X105653Y13000D01*
X106248D01*
X106605Y12881D01*
X106843Y12762D01*
X107081Y12524D01*
X107200Y12167D01*
Y11929D01*
X107081Y11572D01*
X106843Y11334D01*
X104701Y12167D02*
X104820Y12405D01*
X105058Y12643D01*
X105296Y12762D01*
X105653Y12881D01*
X106248D01*
X106605Y12762D01*
X106843Y12643D01*
X107081Y12405D01*
X107200Y12167D01*
X106248Y11334D02*
X107200D01*
X106248Y11215D02*
X107200D01*
X106248Y11691D02*
Y10858D01*
X104701Y10179D02*
X107200D01*
X104701Y10060D02*
X107200D01*
X104701Y10536D02*
Y9108D01*
X104820Y8751D01*
X104939Y8632D01*
X105177Y8513D01*
X105534D01*
X105772Y8632D01*
X105891Y8751D01*
X106010Y9108D01*
Y10060D01*
X104701Y9108D02*
X104820Y8870D01*
X104939Y8751D01*
X105177Y8632D01*
X105534D01*
X105772Y8751D01*
X105891Y8870D01*
X106010Y9108D01*
X107200Y10536D02*
Y9703D01*
X104701Y7823D02*
X107200D01*
X104701Y7704D02*
X107200D01*
X104701Y8180D02*
Y7346D01*
X107200Y8180D02*
Y7346D01*
X104701Y6061D02*
X104820Y6418D01*
X105058Y6656D01*
X105296Y6775D01*
X105772Y6894D01*
X106129D01*
X106605Y6775D01*
X106843Y6656D01*
X107081Y6418D01*
X107200Y6061D01*
Y5823D01*
X107081Y5466D01*
X106843Y5228D01*
X106605Y5109D01*
X106129Y4990D01*
X105772D01*
X105296Y5109D01*
X105058Y5228D01*
X104820Y5466D01*
X104701Y5823D01*
Y6061D01*
X104820Y6299D01*
X105058Y6537D01*
X105296Y6656D01*
X105772Y6775D01*
X106129D01*
X106605Y6656D01*
X106843Y6537D01*
X107081Y6299D01*
X107200Y6061D01*
Y5823D02*
X107081Y5585D01*
X106843Y5347D01*
X106605Y5228D01*
X106129Y5109D01*
X105772D01*
X105296Y5228D01*
X105058Y5347D01*
X104820Y5585D01*
X104701Y5823D01*
X105177Y4526D02*
X105296Y4407D01*
X105415Y4526D01*
X105296Y4645D01*
X105177D01*
X104939Y4526D01*
X104820Y4407D01*
X104701Y4050D01*
Y3573D01*
X104820Y3216D01*
X104939Y3097D01*
X105177Y2978D01*
X105415D01*
X105653Y3097D01*
X105891Y3454D01*
X106129Y4050D01*
X106248Y4288D01*
X106486Y4526D01*
X106843Y4645D01*
X107200D01*
X104701Y3573D02*
X104820Y3335D01*
X104939Y3216D01*
X105177Y3097D01*
X105415D01*
X105653Y3216D01*
X105891Y3573D01*
X106129Y4050D01*
X106962Y4645D02*
X106843Y4526D01*
Y4288D01*
X107081Y3692D01*
Y3335D01*
X106962Y3097D01*
X106843Y2978D01*
X106605D01*
X106843Y4288D02*
X107200Y3692D01*
Y3216D01*
X107081Y3097D01*
X106843Y2978D01*
X110158Y11134D02*
X110515Y11015D01*
X109801D01*
X110158Y11134D01*
X109920Y11372D01*
X109801Y11729D01*
Y11967D01*
X109920Y12324D01*
X110158Y12562D01*
X110396Y12681D01*
X110753Y12800D01*
X111348D01*
X111705Y12681D01*
X111943Y12562D01*
X112181Y12324D01*
X112300Y11967D01*
Y11729D01*
X112181Y11372D01*
X111943Y11134D01*
X109801Y11967D02*
X109920Y12205D01*
X110158Y12443D01*
X110396Y12562D01*
X110753Y12681D01*
X111348D01*
X111705Y12562D01*
X111943Y12443D01*
X112181Y12205D01*
X112300Y11967D01*
X111348Y11134D02*
X112300D01*
X111348Y11015D02*
X112300D01*
X111348Y11491D02*
Y10658D01*
X109801Y9979D02*
X112300D01*
X109801Y9860D02*
X112300D01*
X109801Y10336D02*
Y8908D01*
X109920Y8551D01*
X110039Y8432D01*
X110277Y8313D01*
X110634D01*
X110872Y8432D01*
X110991Y8551D01*
X111110Y8908D01*
Y9860D01*
X109801Y8908D02*
X109920Y8670D01*
X110039Y8551D01*
X110277Y8432D01*
X110634D01*
X110872Y8551D01*
X110991Y8670D01*
X111110Y8908D01*
X112300Y10336D02*
Y9503D01*
X109801Y7622D02*
X112300D01*
X109801Y7503D02*
X112300D01*
X109801Y7980D02*
Y7147D01*
X112300Y7980D02*
Y7147D01*
X109801Y5861D02*
X109920Y6218D01*
X110158Y6456D01*
X110396Y6575D01*
X110872Y6694D01*
X111229D01*
X111705Y6575D01*
X111943Y6456D01*
X112181Y6218D01*
X112300Y5861D01*
Y5623D01*
X112181Y5266D01*
X111943Y5028D01*
X111705Y4909D01*
X111229Y4790D01*
X110872D01*
X110396Y4909D01*
X110158Y5028D01*
X109920Y5266D01*
X109801Y5623D01*
Y5861D01*
X109920Y6099D01*
X110158Y6337D01*
X110396Y6456D01*
X110872Y6575D01*
X111229D01*
X111705Y6456D01*
X111943Y6337D01*
X112181Y6099D01*
X112300Y5861D01*
Y5623D02*
X112181Y5385D01*
X111943Y5147D01*
X111705Y5028D01*
X111229Y4909D01*
X110872D01*
X110396Y5028D01*
X110158Y5147D01*
X109920Y5385D01*
X109801Y5623D01*
X110277Y4326D02*
X110396Y4207D01*
X110515Y4326D01*
X110396Y4445D01*
X110277D01*
X110039Y4326D01*
X109920Y4207D01*
X109801Y3850D01*
Y3373D01*
X109920Y3016D01*
X110158Y2897D01*
X110515D01*
X110753Y3016D01*
X110872Y3373D01*
Y3731D01*
X109801Y3373D02*
X109920Y3135D01*
X110158Y3016D01*
X110515D01*
X110753Y3135D01*
X110872Y3373D01*
X110991Y3135D01*
X111229Y2897D01*
X111467Y2778D01*
X111824D01*
X112062Y2897D01*
X112181Y3016D01*
X112300Y3373D01*
Y3850D01*
X112181Y4207D01*
X112062Y4326D01*
X111824Y4445D01*
X111705D01*
X111586Y4326D01*
X111705Y4207D01*
X111824Y4326D01*
X111110Y3016D02*
X111467Y2897D01*
X111824D01*
X112062Y3016D01*
X112181Y3135D01*
X112300Y3373D01*
M02*
