G04*
G04 #@! TF.GenerationSoftware,Altium Limited,Altium Designer,24.6.1 (21)*
G04*
G04 Layer_Physical_Order=1*
G04 Layer_Color=255*
%FSLAX25Y25*%
%MOIN*%
G70*
G04*
G04 #@! TF.SameCoordinates,3FA1F31C-5517-4C6A-88EA-090D92855D6C*
G04*
G04*
G04 #@! TF.FilePolarity,Positive*
G04*
G01*
G75*
%ADD10C,0.01000*%
%ADD17R,0.00787X0.02559*%
%ADD18R,0.02559X0.00787*%
%ADD19R,0.03150X0.06299*%
%ADD20R,0.08268X0.11811*%
%ADD21R,0.04331X0.00984*%
G04:AMPARAMS|DCode=22|XSize=43.31mil|YSize=88.58mil|CornerRadius=0.87mil|HoleSize=0mil|Usage=FLASHONLY|Rotation=270.000|XOffset=0mil|YOffset=0mil|HoleType=Round|Shape=RoundedRectangle|*
%AMROUNDEDRECTD22*
21,1,0.04331,0.08685,0,0,270.0*
21,1,0.04158,0.08858,0,0,270.0*
1,1,0.00173,-0.04343,-0.02079*
1,1,0.00173,-0.04343,0.02079*
1,1,0.00173,0.04343,0.02079*
1,1,0.00173,0.04343,-0.02079*
%
%ADD22ROUNDEDRECTD22*%
%ADD23R,0.07137X0.02097*%
%ADD24R,0.02126X0.02362*%
%ADD25R,0.07087X0.01575*%
%ADD26R,0.05156X0.02000*%
%ADD27R,0.02362X0.02266*%
%ADD28R,0.03700X0.03378*%
%ADD29R,0.03365X0.02197*%
%ADD30R,0.02197X0.03365*%
%ADD31R,0.02266X0.02362*%
%ADD32R,0.02362X0.02126*%
%ADD33R,0.04724X0.03937*%
%ADD34R,0.04724X0.08661*%
%ADD35R,0.04724X0.07087*%
%ADD36R,0.06299X0.05906*%
%ADD37R,0.02756X0.06299*%
%ADD38R,0.15900X0.15900*%
%ADD55C,0.00800*%
%ADD56C,0.00850*%
%ADD57C,0.00800*%
%ADD58R,0.05906X0.06693*%
%ADD59C,0.02000*%
%ADD60C,0.04331*%
%ADD61C,0.12661*%
%ADD62C,0.01476*%
%ADD63C,0.03937*%
%ADD64C,0.02756*%
%ADD65C,0.01772*%
G36*
X26678Y112389D02*
X26667D01*
X26731Y111901D01*
Y111896D01*
X26734Y111885D01*
X26813Y111285D01*
X27238Y110257D01*
X27607Y109777D01*
X27613Y109768D01*
X27617Y109764D01*
X27916Y109374D01*
X27923Y109382D01*
X28124Y109228D01*
X28128Y109224D01*
X28131Y109222D01*
X28213Y109159D01*
X28221Y109152D01*
X28238Y109140D01*
X28551Y108900D01*
X29283Y108597D01*
X29674Y108545D01*
X29695Y108541D01*
X29705D01*
X29809Y108528D01*
X29812Y108527D01*
X29817Y108526D01*
X30068Y108493D01*
X30068Y108492D01*
X30461Y108542D01*
X30480Y108546D01*
X30543Y108554D01*
X30544Y108554D01*
X30907Y108602D01*
X31689Y108926D01*
X32030Y109188D01*
X32046Y109199D01*
X32053Y109205D01*
X32138Y109270D01*
X32140Y109271D01*
X32142Y109274D01*
X32360Y109441D01*
X32368Y109433D01*
X32685Y109846D01*
X32688Y109849D01*
X32693Y109856D01*
X33091Y110375D01*
X33545Y111471D01*
X33630Y112119D01*
X33632Y112128D01*
Y112132D01*
X33700Y112648D01*
X33686D01*
Y115113D01*
X118313D01*
X120263Y113163D01*
X120693Y112875D01*
X121200Y112775D01*
X134196D01*
X134446Y112275D01*
X134139Y111534D01*
Y110555D01*
X134408Y109908D01*
X134104Y109408D01*
X128339D01*
Y111346D01*
X122814D01*
Y106609D01*
X128339D01*
Y106961D01*
X141477D01*
Y98900D01*
X141570Y98432D01*
X141835Y98035D01*
X144335Y95535D01*
X144732Y95270D01*
X145200Y95177D01*
X148836D01*
Y94819D01*
X149076D01*
Y93073D01*
X148568Y92565D01*
X147302D01*
Y88400D01*
X150298D01*
Y90835D01*
X151164Y91701D01*
X151430Y92098D01*
X151523Y92566D01*
Y94408D01*
X151762Y94819D01*
X152238D01*
X152262Y94819D01*
X153301D01*
Y96400D01*
Y97981D01*
X152262D01*
X152238Y97981D01*
X151762D01*
X151738Y97981D01*
X148836D01*
Y97623D01*
X145707D01*
X143923Y99407D01*
Y106961D01*
X144861D01*
Y106609D01*
X150386D01*
Y111346D01*
X144861D01*
Y109408D01*
X139096D01*
X138792Y109908D01*
X139061Y110555D01*
Y111534D01*
X138754Y112275D01*
X139004Y112775D01*
X153700D01*
X154207Y112875D01*
X154637Y113163D01*
X156587Y115113D01*
X174135D01*
Y112567D01*
X174122D01*
X174190Y112051D01*
Y112047D01*
X174192Y112038D01*
X174277Y111390D01*
X174731Y110294D01*
X175129Y109775D01*
X175134Y109768D01*
X175137Y109765D01*
X175453Y109352D01*
X175461Y109360D01*
X175679Y109193D01*
X175682Y109190D01*
X175684Y109189D01*
X175768Y109125D01*
X175775Y109118D01*
X175791Y109107D01*
X176133Y108845D01*
X176915Y108521D01*
X177279Y108473D01*
X177279Y108473D01*
X177342Y108465D01*
X177360Y108461D01*
X177754Y108411D01*
Y108412D01*
X178005Y108445D01*
X178010Y108446D01*
X178013Y108446D01*
X178116Y108460D01*
X178127D01*
X178147Y108464D01*
X178539Y108516D01*
X179270Y108819D01*
X179583Y109059D01*
X179601Y109071D01*
X179608Y109078D01*
X179691Y109141D01*
X179694Y109143D01*
X179698Y109147D01*
X179899Y109301D01*
X179906Y109293D01*
X180205Y109683D01*
X180209Y109687D01*
X180215Y109696D01*
X180583Y110176D01*
X181009Y111204D01*
X181088Y111804D01*
X181090Y111815D01*
Y111820D01*
X181154Y112307D01*
X181143D01*
Y115113D01*
X199700D01*
Y29159D01*
X196581D01*
Y29469D01*
X193419D01*
Y29123D01*
X188600D01*
X188596Y29123D01*
X187192D01*
X186781Y29362D01*
Y29838D01*
X186781Y29862D01*
Y30901D01*
X185200D01*
X183619D01*
Y29862D01*
X183619Y29838D01*
Y29362D01*
X183208Y29123D01*
X180468D01*
Y29681D01*
X177402D01*
Y26519D01*
X180468D01*
Y26676D01*
X183619D01*
Y26436D01*
X186781D01*
Y26676D01*
X188599D01*
X188603Y26676D01*
X193419D01*
Y26402D01*
X196581D01*
Y26712D01*
X199700D01*
Y1191D01*
X175024D01*
X174655Y1507D01*
X174655Y1691D01*
Y14118D01*
X165587D01*
Y1691D01*
X165587Y1507D01*
X165218Y1191D01*
X140182D01*
X139813Y1507D01*
X139813Y1691D01*
Y11884D01*
X140061Y11964D01*
X140313Y11968D01*
X140535Y11635D01*
X142735Y9435D01*
X143132Y9170D01*
X143600Y9076D01*
X154692D01*
X155160Y9170D01*
X155557Y9435D01*
X156026Y9904D01*
X156291Y10300D01*
X156384Y10769D01*
Y15680D01*
X157135D01*
Y22780D01*
X153186D01*
Y15680D01*
X153937D01*
Y11524D01*
X146881D01*
X146737Y11901D01*
X146712Y12024D01*
X147096Y12598D01*
X147235Y13300D01*
X147153Y13712D01*
Y15680D01*
X147293D01*
Y22780D01*
X143343D01*
Y15680D01*
X143483D01*
Y13382D01*
X143614Y12724D01*
X143591Y12695D01*
X143046Y12584D01*
X142623Y13007D01*
Y30172D01*
X143085Y30363D01*
X149016Y24433D01*
Y22780D01*
X148265D01*
Y15680D01*
X152214D01*
Y22780D01*
X151463D01*
Y24939D01*
X151370Y25408D01*
X151104Y25804D01*
X139224Y37685D01*
Y46900D01*
X139130Y47368D01*
X138865Y47765D01*
X134172Y52459D01*
X134363Y52921D01*
X141793D01*
Y56279D01*
X119733D01*
Y55513D01*
X119662Y55465D01*
X119396Y55068D01*
X119303Y54600D01*
Y52434D01*
X118093Y51223D01*
X117000D01*
X116532Y51130D01*
X116135Y50865D01*
X115785Y50516D01*
X115323Y50707D01*
Y56293D01*
X115550Y56520D01*
X117371D01*
X117839Y56613D01*
X118236Y56878D01*
X118242Y56884D01*
X118290Y56956D01*
X119057D01*
Y57230D01*
X119557Y57525D01*
X119824Y57414D01*
X120376D01*
X120885Y57625D01*
X121275Y58015D01*
X121486Y58524D01*
Y59076D01*
X121275Y59585D01*
X120946Y59914D01*
X120886Y60012D01*
X120891Y60513D01*
X121087Y60709D01*
X121298Y61219D01*
Y61770D01*
X121087Y62279D01*
X120697Y62669D01*
X120188Y62880D01*
X119637D01*
X119557Y62847D01*
X119057Y63181D01*
Y64830D01*
Y69554D01*
Y74279D01*
Y79016D01*
X118290D01*
X118242Y79087D01*
X117845Y79352D01*
X117377Y79446D01*
X117345Y79439D01*
X113715D01*
X113399Y79377D01*
X113100Y79436D01*
X110101D01*
X109398Y79296D01*
X108803Y78899D01*
X108002Y78098D01*
X107604Y77502D01*
X107465Y76800D01*
Y72900D01*
X107604Y72198D01*
X108002Y71602D01*
X108598Y71204D01*
X109300Y71065D01*
X110002Y71204D01*
X110598Y71602D01*
X110996Y72198D01*
X111075Y72600D01*
X111519Y72736D01*
X111612Y72736D01*
X112700D01*
Y74199D01*
X113100D01*
Y74599D01*
X114681D01*
Y75638D01*
X114681Y75662D01*
Y76138D01*
X114681Y76162D01*
Y76727D01*
X114796Y76898D01*
X114814Y76992D01*
X115698D01*
Y71129D01*
Y66169D01*
X115198Y65962D01*
X115085Y66075D01*
X114576Y66286D01*
X114024D01*
X113515Y66075D01*
X113125Y65685D01*
X112914Y65176D01*
Y64624D01*
X113125Y64115D01*
X113263Y63977D01*
X113221Y63347D01*
X113209Y63339D01*
X112436Y62566D01*
X111974Y62758D01*
Y64650D01*
X109612D01*
Y60706D01*
Y56763D01*
X111477D01*
Y46307D01*
X108993Y43824D01*
X95622D01*
Y44048D01*
X87685D01*
Y41152D01*
X95622D01*
Y41377D01*
X109500D01*
X109968Y41470D01*
X110365Y41735D01*
X112415Y43784D01*
X112876Y43593D01*
Y41807D01*
X109893Y38824D01*
X95622D01*
Y39048D01*
X87685D01*
Y36152D01*
X95622D01*
Y36377D01*
X110400D01*
X110868Y36470D01*
X111265Y36735D01*
X113815Y39284D01*
X114277Y39093D01*
Y37707D01*
X110393Y33823D01*
X95622D01*
Y34048D01*
X87685D01*
Y31152D01*
X95622D01*
Y31376D01*
X110900D01*
X111368Y31470D01*
X111765Y31735D01*
X116278Y36248D01*
X116778Y36152D01*
X116844Y36152D01*
X122985D01*
X124216Y34921D01*
X124613Y34655D01*
X125061Y34566D01*
X125142Y34433D01*
X125115Y34290D01*
X124892Y34002D01*
X124715Y34048D01*
Y34048D01*
X116778D01*
Y31152D01*
X124715D01*
Y31427D01*
X125353D01*
X125624Y31314D01*
X126176D01*
X126685Y31525D01*
X127075Y31915D01*
X127286Y32424D01*
Y32976D01*
X127075Y33485D01*
X126825Y33735D01*
X126818Y33801D01*
X126920Y34258D01*
X126934Y34280D01*
X127285Y34425D01*
X127675Y34815D01*
X127886Y35324D01*
Y35876D01*
X127675Y36385D01*
X127285Y36775D01*
X126895Y36936D01*
X126995Y37436D01*
X127300D01*
Y38899D01*
X127700D01*
Y39299D01*
X129281D01*
X129281Y40191D01*
X129477Y40623D01*
X129559Y40747D01*
X129654Y40888D01*
X129716Y41200D01*
Y43700D01*
X129654Y44012D01*
X129535Y44189D01*
Y47200D01*
X129396Y47902D01*
X128998Y48498D01*
X128402Y48896D01*
X127700Y49035D01*
X126998Y48896D01*
X126402Y48498D01*
X126004Y47902D01*
X125865Y47200D01*
Y44516D01*
X117100D01*
X116724Y44951D01*
Y47993D01*
X117507Y48777D01*
X118600D01*
X119068Y48870D01*
X119465Y49135D01*
X121392Y51062D01*
X121657Y51459D01*
X121750Y51927D01*
Y52921D01*
X128758D01*
Y52258D01*
X128851Y51789D01*
X129117Y51393D01*
X134677Y45833D01*
Y36844D01*
X134770Y36376D01*
X135035Y35979D01*
X140176Y30837D01*
Y14447D01*
X139813Y14118D01*
X139676Y14118D01*
X130745D01*
Y1691D01*
X130745Y1507D01*
X130376Y1191D01*
X126064D01*
X125695Y1507D01*
X125695Y1691D01*
Y14118D01*
X116627D01*
Y1691D01*
X116627Y1507D01*
X116258Y1191D01*
X96142D01*
X95773Y1507D01*
X95773Y1691D01*
Y14118D01*
X86705D01*
Y1691D01*
X86705Y1507D01*
X86336Y1191D01*
X81324D01*
X80955Y1507D01*
X80955Y1691D01*
Y14118D01*
X71887D01*
Y1691D01*
X71887Y1507D01*
X71518Y1191D01*
X46482D01*
X46113Y1507D01*
X46113Y1691D01*
Y14118D01*
X37045D01*
Y1691D01*
X37045Y1507D01*
X36676Y1191D01*
X33686D01*
Y3599D01*
X33697D01*
X33633Y4086D01*
Y4091D01*
X33631Y4102D01*
X33552Y4702D01*
X33126Y5730D01*
X32758Y6210D01*
X32752Y6219D01*
X32748Y6223D01*
X32449Y6613D01*
X32449Y6613D01*
X32438Y6621D01*
X32050Y6906D01*
X31813Y7087D01*
X31082Y7390D01*
X30690Y7442D01*
X30670Y7446D01*
X30659D01*
X30556Y7460D01*
X30553Y7460D01*
X30548Y7461D01*
X30297Y7494D01*
X30297Y7496D01*
X29903Y7445D01*
X29885Y7441D01*
X29822Y7433D01*
X29821Y7433D01*
X29458Y7385D01*
X28676Y7061D01*
X28334Y6799D01*
X28318Y6788D01*
X28311Y6782D01*
X28227Y6717D01*
X28225Y6716D01*
X28222Y6713D01*
X28004Y6546D01*
X27996Y6554D01*
X27680Y6141D01*
X27677Y6138D01*
X27672Y6131D01*
X27274Y5612D01*
X26820Y4516D01*
X26735Y3868D01*
X26733Y3859D01*
Y3855D01*
X26665Y3339D01*
X26678D01*
Y1191D01*
X1139D01*
X945Y114216D01*
X991Y114446D01*
X1032Y114508D01*
X1303Y114896D01*
X1592Y115089D01*
X1933Y115156D01*
Y115164D01*
X26678D01*
Y112389D01*
D02*
G37*
G36*
X128900Y41200D02*
X117100D01*
Y43700D01*
X128900D01*
Y41200D01*
D02*
G37*
%LPC*%
G36*
X128339Y104654D02*
X125976D01*
Y102685D01*
X128339D01*
Y104654D01*
D02*
G37*
G36*
X150386D02*
X148024D01*
Y102685D01*
X150386D01*
Y104654D01*
D02*
G37*
G36*
X147224D02*
X144861D01*
Y102685D01*
X147224D01*
Y104654D01*
D02*
G37*
G36*
X125176D02*
X122814D01*
Y102685D01*
X125176D01*
Y104654D01*
D02*
G37*
G36*
X150386Y101885D02*
X148024D01*
Y99916D01*
X150386D01*
Y101885D01*
D02*
G37*
G36*
X147224D02*
X144861D01*
Y99916D01*
X147224D01*
Y101885D01*
D02*
G37*
G36*
X128339D02*
X125976D01*
Y99916D01*
X128339D01*
Y101885D01*
D02*
G37*
G36*
X125176D02*
X122814D01*
Y99916D01*
X125176D01*
Y101885D01*
D02*
G37*
G36*
X137090Y102679D02*
X136110D01*
X135206Y102304D01*
X134514Y101612D01*
X134139Y100708D01*
Y99729D01*
X134514Y98824D01*
X135206Y98132D01*
X136110Y97758D01*
X137090D01*
X137994Y98132D01*
X138686Y98824D01*
X139061Y99729D01*
Y100708D01*
X138686Y101612D01*
X137994Y102304D01*
X137090Y102679D01*
D02*
G37*
G36*
X50950Y102051D02*
X48588D01*
Y97720D01*
X50950D01*
Y102051D01*
D02*
G37*
G36*
X111974D02*
X109612D01*
Y97720D01*
X111974D01*
Y102051D01*
D02*
G37*
G36*
X108812D02*
X106450D01*
Y97720D01*
X108812D01*
Y102051D01*
D02*
G37*
G36*
X47788D02*
X45426D01*
Y97720D01*
X47788D01*
Y102051D01*
D02*
G37*
G36*
X154101Y97981D02*
Y96800D01*
X155164D01*
Y97981D01*
X154101D01*
D02*
G37*
G36*
X98577Y101848D02*
X97799D01*
X97048Y101647D01*
X96375Y101258D01*
X95825Y100708D01*
X95437Y100035D01*
X95235Y99284D01*
Y98506D01*
X95437Y97756D01*
X95825Y97082D01*
X96375Y96532D01*
X97048Y96144D01*
X97799Y95942D01*
X98577D01*
X99328Y96144D01*
X100001Y96532D01*
X100551Y97082D01*
X100940Y97756D01*
X101141Y98506D01*
Y99284D01*
X100940Y100035D01*
X100551Y100708D01*
X100001Y101258D01*
X99328Y101647D01*
X98577Y101848D01*
D02*
G37*
G36*
X67081D02*
X66303D01*
X65552Y101647D01*
X64879Y101258D01*
X64329Y100708D01*
X63941Y100035D01*
X63739Y99284D01*
Y98506D01*
X63941Y97756D01*
X64329Y97082D01*
X64879Y96532D01*
X65552Y96144D01*
X66303Y95942D01*
X67081D01*
X67832Y96144D01*
X68505Y96532D01*
X69055Y97082D01*
X69444Y97756D01*
X69645Y98506D01*
Y99284D01*
X69444Y100035D01*
X69055Y100708D01*
X68505Y101258D01*
X67832Y101647D01*
X67081Y101848D01*
D02*
G37*
G36*
X155164Y96000D02*
X154101D01*
Y94819D01*
X155164D01*
Y96000D01*
D02*
G37*
G36*
X111974Y96921D02*
X109612D01*
Y92590D01*
X111974D01*
Y96921D01*
D02*
G37*
G36*
X108812D02*
X106450D01*
Y92590D01*
X108812D01*
Y96921D01*
D02*
G37*
G36*
X50950D02*
X48588D01*
Y92590D01*
X50950D01*
Y96921D01*
D02*
G37*
G36*
X47788D02*
X45426D01*
Y92590D01*
X47788D01*
Y96921D01*
D02*
G37*
G36*
X129476Y89900D02*
X128924D01*
X128415Y89689D01*
X128327Y89601D01*
X128000Y89321D01*
X127673Y89601D01*
X127585Y89689D01*
X127076Y89900D01*
X126524D01*
X126015Y89689D01*
X125625Y89299D01*
X125414Y88790D01*
Y88239D01*
X125596Y87799D01*
Y87092D01*
X125096Y86980D01*
X124305Y87587D01*
X123319Y87996D01*
X122262Y88135D01*
Y88124D01*
X113839D01*
X57700Y88124D01*
X50000D01*
Y88139D01*
X48039Y87984D01*
X46125Y87525D01*
X44308Y86772D01*
X42630Y85744D01*
X41134Y84466D01*
X39856Y82970D01*
X38828Y81292D01*
X38075Y79475D01*
X37616Y77561D01*
X37461Y75600D01*
X37477D01*
Y72139D01*
X37500Y72019D01*
X37477Y71900D01*
Y64098D01*
X34035D01*
Y62766D01*
X33793Y62405D01*
X33698Y61927D01*
X33228Y61799D01*
X32653D01*
Y62178D01*
X32558Y62656D01*
X32287Y63062D01*
X32287Y63062D01*
X32281Y63068D01*
Y64255D01*
X32281Y64280D01*
Y64755D01*
X32281Y64780D01*
Y65818D01*
X30700D01*
X29119D01*
Y64780D01*
X29119Y64755D01*
Y64280D01*
X29119Y64255D01*
Y63120D01*
X29061Y63062D01*
X28790Y62656D01*
X28695Y62178D01*
X28242Y62024D01*
X27666D01*
Y62297D01*
X27571Y62775D01*
X27404Y63025D01*
Y66116D01*
X27250Y66488D01*
X26877Y66642D01*
X18192D01*
X17820Y66488D01*
X17665Y66116D01*
Y61958D01*
X17820Y61586D01*
X18192Y61432D01*
X24719D01*
X25168Y61273D01*
X25264Y60795D01*
X25534Y60390D01*
X25574Y60350D01*
Y59850D01*
X25534Y59810D01*
X25264Y59405D01*
X25168Y58927D01*
X24719Y58768D01*
X18192D01*
X17820Y58614D01*
X17665Y58242D01*
Y54084D01*
X17820Y53712D01*
X18192Y53558D01*
X26877D01*
X27250Y53712D01*
X27404Y54084D01*
Y57175D01*
X27571Y57425D01*
X27666Y57903D01*
Y58176D01*
X28471D01*
X28813Y57856D01*
X28908Y57378D01*
X29119Y57062D01*
Y55779D01*
X29119Y55755D01*
Y55279D01*
X29119Y55255D01*
Y54216D01*
X30700D01*
X32281D01*
Y55255D01*
X32281Y55279D01*
Y55755D01*
X32281Y55779D01*
Y56915D01*
X32339Y56973D01*
X32339Y56973D01*
X32610Y57378D01*
X32705Y57856D01*
Y57951D01*
X33675D01*
X33706Y57796D01*
X33977Y57390D01*
X34035Y57332D01*
Y56102D01*
X38200D01*
Y57322D01*
X38700Y57615D01*
X39200Y57341D01*
Y56102D01*
X43365D01*
Y57368D01*
X43431Y57433D01*
X43696Y57830D01*
X43789Y58298D01*
X43696Y58767D01*
X43431Y59164D01*
X43034Y59429D01*
X42565Y59522D01*
X42097Y59429D01*
X41700Y59164D01*
X41635Y59098D01*
X41089D01*
X40587Y59372D01*
X39924Y59735D01*
Y61102D01*
X43365D01*
Y64098D01*
X41223D01*
Y75600D01*
X41213Y75653D01*
X41377Y77315D01*
X41877Y78965D01*
X42689Y80485D01*
X43783Y81817D01*
X45115Y82911D01*
X46635Y83723D01*
X48285Y84223D01*
X49947Y84387D01*
X50000Y84377D01*
X122262D01*
Y84375D01*
X122493Y84279D01*
X122589Y84048D01*
X122590D01*
Y83051D01*
X119733D01*
Y79692D01*
X132938D01*
X133314Y79294D01*
Y78742D01*
X133525Y78233D01*
X133915Y77843D01*
X134424Y77632D01*
X134976D01*
X135485Y77843D01*
X135875Y78233D01*
X136004Y78545D01*
X136545D01*
X136675Y78233D01*
X137065Y77843D01*
X137574Y77632D01*
X138125D01*
X138635Y77843D01*
X139024Y78233D01*
X139154Y78545D01*
X139695D01*
X139824Y78233D01*
X140214Y77843D01*
X140724Y77632D01*
X141275D01*
X141784Y77843D01*
X141969Y78028D01*
X142469Y77821D01*
Y74279D01*
Y70280D01*
X141969Y70047D01*
X141876Y70086D01*
X141324D01*
X140815Y69875D01*
X140425Y69485D01*
X140214Y68976D01*
Y68424D01*
X140425Y67915D01*
X140815Y67525D01*
X140947Y67471D01*
Y66929D01*
X140815Y66875D01*
X140425Y66485D01*
X140214Y65976D01*
Y65424D01*
X140425Y64915D01*
X140815Y64525D01*
X141324Y64314D01*
X141876D01*
X141969Y64353D01*
X142469Y64124D01*
Y61680D01*
Y56956D01*
X143236D01*
X143284Y56884D01*
X143681Y56619D01*
X144149Y56526D01*
X150661D01*
X150664Y56527D01*
X151207Y56418D01*
X151671Y56109D01*
X151980Y55646D01*
X152088Y55102D01*
X152088Y55100D01*
Y35700D01*
X152068D01*
X152240Y33959D01*
X152747Y32286D01*
X153572Y30744D01*
X154681Y29392D01*
X156033Y28283D01*
X157575Y27458D01*
X159248Y26951D01*
X160988Y26779D01*
Y26799D01*
X164619D01*
Y26436D01*
X167781D01*
Y26877D01*
X172932D01*
Y26519D01*
X175998D01*
Y29681D01*
X172932D01*
Y29324D01*
X167820D01*
X167781Y29362D01*
Y29838D01*
X167781Y29862D01*
Y30901D01*
X166200D01*
X164619D01*
Y29862D01*
X164619Y29838D01*
Y29362D01*
X164157Y29246D01*
X160988D01*
X160973Y29243D01*
X159729Y29365D01*
X158517Y29733D01*
X157400Y30330D01*
X156422Y31133D01*
X155619Y32112D01*
X155022Y33228D01*
X154654Y34440D01*
X154532Y35684D01*
X154535Y35700D01*
Y55100D01*
X154544D01*
X154412Y56105D01*
X154024Y57041D01*
X153595Y57601D01*
X153841Y58101D01*
X154969D01*
X155935Y57135D01*
X156332Y56870D01*
X156800Y56776D01*
X158793D01*
X159177Y56393D01*
Y55564D01*
X158819D01*
Y52662D01*
X158819Y52638D01*
Y52162D01*
X158819Y52138D01*
Y51099D01*
X160400D01*
X161981D01*
Y52138D01*
X161981Y52162D01*
Y52638D01*
X162391Y52879D01*
X165209D01*
X165619Y52638D01*
Y52162D01*
X165619Y52138D01*
Y51099D01*
X167200D01*
X168781D01*
Y52138D01*
X168781Y52162D01*
Y52638D01*
X169171Y52927D01*
X170034D01*
X172125Y50836D01*
X172522Y50570D01*
X172991Y50477D01*
X174308D01*
X174719Y50238D01*
Y49762D01*
X174719Y49738D01*
Y48699D01*
X176300D01*
X177881D01*
Y49738D01*
X177881Y49762D01*
Y50238D01*
X178292Y50477D01*
X180314D01*
X180519Y50038D01*
Y49562D01*
X180519Y49538D01*
Y48973D01*
X180404Y48801D01*
X180265Y48099D01*
Y44400D01*
X180404Y43698D01*
X180802Y43102D01*
X181398Y42704D01*
X182100Y42565D01*
X182802Y42704D01*
X183398Y43102D01*
X183796Y43698D01*
X183935Y44400D01*
Y48099D01*
X183796Y48801D01*
X183681Y48973D01*
Y49538D01*
X183681Y49562D01*
Y50038D01*
X183681Y50062D01*
Y52964D01*
X180519D01*
Y52924D01*
X177881D01*
Y53164D01*
X174719D01*
Y52924D01*
X173497D01*
X171406Y55015D01*
X171009Y55281D01*
X170541Y55374D01*
X168781D01*
Y55564D01*
X165619D01*
Y55326D01*
X161981D01*
Y55564D01*
X161624D01*
Y56900D01*
X161530Y57368D01*
X161265Y57765D01*
X160165Y58865D01*
X159768Y59130D01*
X159517Y59180D01*
X159081Y59336D01*
Y60399D01*
X157500D01*
Y61199D01*
X159081D01*
Y62262D01*
X159081D01*
Y62427D01*
X159503Y62927D01*
X160382D01*
X160774Y62765D01*
X161325D01*
X161717Y62927D01*
X171650D01*
X172119Y63020D01*
X172515Y63285D01*
X174665Y65435D01*
X174930Y65832D01*
X175023Y66300D01*
Y82400D01*
X174930Y82868D01*
X174665Y83265D01*
X172104Y85826D01*
X171707Y86091D01*
X171239Y86185D01*
X157150D01*
Y87050D01*
X152650D01*
Y86541D01*
X150298D01*
Y87400D01*
X147302D01*
Y83235D01*
X150298D01*
Y84094D01*
X152650D01*
Y82872D01*
X157150D01*
Y83737D01*
X170732D01*
X172576Y81893D01*
Y66807D01*
X171144Y65374D01*
X167723D01*
X167588Y65818D01*
X167588D01*
Y67287D01*
X167588Y67602D01*
X167588D01*
Y67787D01*
X167588D01*
Y68279D01*
X165023D01*
Y69079D01*
X167588D01*
Y69571D01*
X167588Y69571D01*
Y69755D01*
X167588D01*
X167588Y70071D01*
Y71539D01*
X167588D01*
Y71724D01*
X167588D01*
Y72941D01*
X168088Y73148D01*
X168202Y73035D01*
X168213Y73027D01*
X168515Y72725D01*
X169024Y72514D01*
X169576D01*
X170085Y72725D01*
X170475Y73115D01*
X170686Y73624D01*
Y74176D01*
X170475Y74685D01*
X170085Y75075D01*
X169662Y75250D01*
X169657Y75279D01*
Y75721D01*
X169662Y75750D01*
X170085Y75925D01*
X170475Y76315D01*
X170686Y76824D01*
Y77376D01*
X170475Y77885D01*
X170085Y78275D01*
X169821Y78384D01*
X169781Y78469D01*
X169783Y78941D01*
X169985Y79025D01*
X170375Y79415D01*
X170586Y79924D01*
Y80476D01*
X170375Y80985D01*
X169985Y81375D01*
X169476Y81586D01*
X168924D01*
X168415Y81375D01*
X168088Y81048D01*
X167791Y81101D01*
X167588Y81201D01*
Y81382D01*
X165848D01*
X165491Y81620D01*
X165023Y81713D01*
X150290D01*
X149821Y81620D01*
X149425Y81355D01*
X148441Y80372D01*
X148373Y80318D01*
X147808Y80351D01*
X147685Y80475D01*
X147176Y80686D01*
X146624D01*
X146115Y80475D01*
X145978Y80338D01*
X145914D01*
X145446Y80244D01*
X145049Y79979D01*
X144163Y79093D01*
X144111Y79016D01*
X142760D01*
X142385Y79294D01*
X142319Y79453D01*
X142223Y79686D01*
Y81372D01*
X142130Y81840D01*
X141864Y82237D01*
X141793Y82285D01*
Y83051D01*
X141186D01*
X140810Y83450D01*
Y84001D01*
X140599Y84510D01*
X140209Y84900D01*
X139700Y85111D01*
X139149D01*
X138639Y84900D01*
X138250Y84510D01*
X138120Y84198D01*
X137579D01*
X137450Y84510D01*
X137060Y84900D01*
X136550Y85111D01*
X135999D01*
X135490Y84900D01*
X135100Y84510D01*
X134975Y84209D01*
X134434D01*
X134306Y84517D01*
X133916Y84906D01*
X133407Y85117D01*
X132856D01*
X132346Y84906D01*
X131957Y84517D01*
X131746Y84007D01*
Y83456D01*
X131372Y83051D01*
X130621D01*
X130340Y83501D01*
X130337Y83551D01*
X130423Y83984D01*
Y87847D01*
X130586Y88239D01*
Y88790D01*
X130375Y89299D01*
X129985Y89689D01*
X129476Y89900D01*
D02*
G37*
G36*
X157150Y92928D02*
X152650D01*
Y88750D01*
X157150D01*
Y89004D01*
X160739D01*
X161441Y89143D01*
X162037Y89541D01*
X162098Y89602D01*
X162496Y90198D01*
X162635Y90900D01*
X162496Y91602D01*
X162098Y92198D01*
X161502Y92596D01*
X160800Y92735D01*
X160493Y92674D01*
X157150D01*
Y92928D01*
D02*
G37*
G36*
X12863Y89862D02*
X12600D01*
Y83531D01*
X18931D01*
Y83794D01*
X18672Y85095D01*
X18165Y86320D01*
X17428Y87422D01*
X16491Y88360D01*
X15388Y89096D01*
X14163Y89604D01*
X12863Y89862D01*
D02*
G37*
G36*
X11800D02*
X11537D01*
X10237Y89604D01*
X9012Y89096D01*
X7909Y88360D01*
X6972Y87422D01*
X6235Y86320D01*
X5728Y85095D01*
X5469Y83794D01*
Y83531D01*
X11800D01*
Y89862D01*
D02*
G37*
G36*
X183730Y90732D02*
X177024D01*
Y83239D01*
X183730D01*
Y90732D01*
D02*
G37*
G36*
X18931Y82731D02*
X12600D01*
Y76401D01*
X12863D01*
X14163Y76659D01*
X15388Y77167D01*
X16491Y77903D01*
X17428Y78841D01*
X18165Y79943D01*
X18672Y81168D01*
X18931Y82469D01*
Y82731D01*
D02*
G37*
G36*
X11800D02*
X5469D01*
Y82469D01*
X5728Y81168D01*
X6235Y79943D01*
X6972Y78841D01*
X7909Y77903D01*
X9012Y77167D01*
X10237Y76659D01*
X11537Y76401D01*
X11800D01*
Y82731D01*
D02*
G37*
G36*
X26877Y76485D02*
X22935D01*
Y74279D01*
X27404D01*
Y75958D01*
X27250Y76331D01*
X26877Y76485D01*
D02*
G37*
G36*
X22135D02*
X18192D01*
X17820Y76331D01*
X17665Y75958D01*
Y74279D01*
X22135D01*
Y76485D01*
D02*
G37*
G36*
X114681Y73799D02*
X113500D01*
Y72736D01*
X114681D01*
Y73799D01*
D02*
G37*
G36*
X27404Y73479D02*
X22935D01*
Y71274D01*
X26877D01*
X27250Y71428D01*
X27404Y71801D01*
Y73479D01*
D02*
G37*
G36*
X22135D02*
X17665D01*
Y71801D01*
X17820Y71428D01*
X18192Y71274D01*
X22135D01*
Y73479D01*
D02*
G37*
G36*
X139113Y76336D02*
X131163D01*
Y68386D01*
X139113D01*
Y76336D01*
D02*
G37*
G36*
X130363D02*
X122413D01*
Y68386D01*
X130363D01*
Y76336D01*
D02*
G37*
G36*
X32281Y67681D02*
X31100D01*
Y66618D01*
X32281D01*
Y67681D01*
D02*
G37*
G36*
X30300D02*
X29119D01*
Y66618D01*
X30300D01*
Y67681D01*
D02*
G37*
G36*
X12615Y72206D02*
X11785D01*
X10984Y71992D01*
X10266Y71577D01*
X9680Y70991D01*
X9265Y70272D01*
X9050Y69471D01*
Y68642D01*
X9265Y67841D01*
X9680Y67123D01*
X10266Y66536D01*
X10984Y66122D01*
X11785Y65907D01*
X12615D01*
X13416Y66122D01*
X14134Y66536D01*
X14720Y67123D01*
X15135Y67841D01*
X15350Y68642D01*
Y69471D01*
X15135Y70272D01*
X14720Y70991D01*
X14134Y71577D01*
X13416Y71992D01*
X12615Y72206D01*
D02*
G37*
G36*
X108812Y64650D02*
X106450D01*
Y61106D01*
X108812D01*
Y64650D01*
D02*
G37*
G36*
X55281Y63075D02*
X52131D01*
Y60122D01*
X55281D01*
Y63075D01*
D02*
G37*
G36*
X51332D02*
X48182D01*
Y60122D01*
X51332D01*
Y63075D01*
D02*
G37*
G36*
X139113Y67586D02*
X131163D01*
Y59636D01*
X139113D01*
Y67586D01*
D02*
G37*
G36*
X130363D02*
X122413D01*
Y59636D01*
X130363D01*
Y67586D01*
D02*
G37*
G36*
X183730Y63961D02*
X177024D01*
Y56468D01*
X183730D01*
Y63961D01*
D02*
G37*
G36*
X55281Y59322D02*
X52131D01*
Y56369D01*
X55281D01*
Y59322D01*
D02*
G37*
G36*
X51332D02*
X48182D01*
Y56369D01*
X51332D01*
Y59322D01*
D02*
G37*
G36*
X108812Y60306D02*
X106450D01*
Y59562D01*
X106265Y59138D01*
X105950Y59138D01*
X104887D01*
Y55988D01*
X106265D01*
Y56339D01*
X106450Y56763D01*
X106765Y56763D01*
X108812D01*
Y60306D01*
D02*
G37*
G36*
X93273Y59138D02*
X91895D01*
Y55988D01*
X93273D01*
Y59138D01*
D02*
G37*
G36*
X104087D02*
X102709D01*
Y55988D01*
X104087D01*
Y59138D01*
D02*
G37*
G36*
X91095D02*
X89717D01*
Y55988D01*
X91095D01*
Y59138D01*
D02*
G37*
G36*
X32281Y53417D02*
X31100D01*
Y52354D01*
X32281D01*
Y53417D01*
D02*
G37*
G36*
X30300D02*
X29119D01*
Y52354D01*
X30300D01*
Y53417D01*
D02*
G37*
G36*
X106265Y55188D02*
X104887D01*
Y52039D01*
X106265D01*
Y55188D01*
D02*
G37*
G36*
X104087D02*
X102709D01*
Y52039D01*
X104087D01*
Y55188D01*
D02*
G37*
G36*
X100391Y62886D02*
X99839D01*
X99330Y62675D01*
X98940Y62285D01*
X98729Y61776D01*
Y61224D01*
X98891Y60833D01*
Y59138D01*
X98379D01*
Y52039D01*
X101935D01*
Y59138D01*
X101339D01*
Y60833D01*
X101501Y61224D01*
Y61776D01*
X101290Y62285D01*
X100900Y62675D01*
X100391Y62886D01*
D02*
G37*
G36*
X96060D02*
X95509D01*
X94999Y62675D01*
X94609Y62285D01*
X94398Y61776D01*
Y61224D01*
X94561Y60833D01*
Y59138D01*
X94048D01*
Y52039D01*
X97604D01*
Y59138D01*
X97008D01*
Y60833D01*
X97170Y61224D01*
Y61776D01*
X96959Y62285D01*
X96569Y62675D01*
X96060Y62886D01*
D02*
G37*
G36*
X93273Y55188D02*
X91895D01*
Y52039D01*
X93273D01*
Y55188D01*
D02*
G37*
G36*
X91095D02*
X89717D01*
Y52039D01*
X91095D01*
Y55188D01*
D02*
G37*
G36*
X87398Y62886D02*
X86847D01*
X86338Y62675D01*
X85948Y62285D01*
X85737Y61776D01*
Y61224D01*
X85899Y60833D01*
Y59138D01*
X85387D01*
Y52039D01*
X88942D01*
Y59138D01*
X88346D01*
Y60833D01*
X88509Y61224D01*
Y61776D01*
X88298Y62285D01*
X87908Y62675D01*
X87398Y62886D01*
D02*
G37*
G36*
X78737D02*
X78186D01*
X77676Y62675D01*
X77287Y62285D01*
X77076Y61776D01*
Y61224D01*
X77238Y60833D01*
Y59138D01*
X76725D01*
Y52039D01*
X80281D01*
Y59138D01*
X79685D01*
Y60833D01*
X79847Y61224D01*
Y61776D01*
X79636Y62285D01*
X79246Y62675D01*
X78737Y62886D01*
D02*
G37*
G36*
X74406Y62846D02*
X73855D01*
X73346Y62635D01*
X72956Y62245D01*
X72745Y61736D01*
Y61185D01*
X72907Y60793D01*
Y59138D01*
X72395D01*
Y52039D01*
X75950D01*
Y59138D01*
X75354D01*
Y60793D01*
X75516Y61185D01*
Y61736D01*
X75306Y62245D01*
X74916Y62635D01*
X74406Y62846D01*
D02*
G37*
G36*
X70076Y67886D02*
X69524D01*
X69015Y67675D01*
X68625Y67285D01*
X68414Y66776D01*
Y66224D01*
X68577Y65833D01*
Y59138D01*
X68064D01*
Y52039D01*
X71620D01*
Y59138D01*
X71023D01*
Y65833D01*
X71186Y66224D01*
Y66776D01*
X70975Y67285D01*
X70585Y67675D01*
X70076Y67886D01*
D02*
G37*
G36*
X168781Y50299D02*
X167600D01*
Y49236D01*
X168781D01*
Y50299D01*
D02*
G37*
G36*
X166800D02*
X165619D01*
Y49236D01*
X166800D01*
Y50299D01*
D02*
G37*
G36*
X161981D02*
X160800D01*
Y49236D01*
X161981D01*
Y50299D01*
D02*
G37*
G36*
X160000D02*
X158819D01*
Y49236D01*
X160000D01*
Y50299D01*
D02*
G37*
G36*
X12615Y54293D02*
X11785D01*
X10984Y54078D01*
X10266Y53664D01*
X9680Y53077D01*
X9265Y52359D01*
X9050Y51558D01*
Y50729D01*
X9265Y49928D01*
X9680Y49209D01*
X10266Y48623D01*
X10984Y48208D01*
X11785Y47994D01*
X12615D01*
X13416Y48208D01*
X14134Y48623D01*
X14720Y49209D01*
X15135Y49928D01*
X15350Y50729D01*
Y51558D01*
X15135Y52359D01*
X14720Y53077D01*
X14134Y53664D01*
X13416Y54078D01*
X12615Y54293D01*
D02*
G37*
G36*
X177881Y47899D02*
X176700D01*
Y46836D01*
X177881D01*
Y47899D01*
D02*
G37*
G36*
X175900D02*
X174719D01*
Y46836D01*
X175900D01*
Y47899D01*
D02*
G37*
G36*
X84612Y59138D02*
X81056D01*
Y55876D01*
X80999Y55588D01*
Y47235D01*
X55000D01*
X54298Y47096D01*
X53702Y46698D01*
X52002Y44998D01*
X51604Y44402D01*
X51465Y43700D01*
Y42013D01*
X51078Y41740D01*
X50965Y41740D01*
X49245D01*
X48802Y42036D01*
X48100Y42175D01*
X42732D01*
X42098Y42809D01*
X42098Y42810D01*
X42079Y42822D01*
Y45066D01*
X41940Y45768D01*
X41542Y46364D01*
X40370Y47535D01*
X39775Y47933D01*
X39073Y48073D01*
X37017D01*
X36700Y48136D01*
X36641Y48124D01*
X36582Y48136D01*
X32240D01*
X32190Y48146D01*
X27404D01*
Y48399D01*
X27250Y48772D01*
X26877Y48926D01*
X18192D01*
X17820Y48772D01*
X17665Y48399D01*
Y44242D01*
X17820Y43869D01*
X18192Y43715D01*
X26877D01*
X27250Y43869D01*
X27404Y44242D01*
Y44475D01*
X30166D01*
X30619Y44362D01*
X30619Y43975D01*
Y43299D01*
X32200D01*
X33781D01*
X33781Y44362D01*
X34238Y44466D01*
X34662D01*
X35119Y44362D01*
X35119Y43966D01*
Y43299D01*
X36700D01*
Y42899D01*
X37100D01*
Y41436D01*
X38281D01*
X38409Y40989D01*
Y34031D01*
X38549Y33329D01*
X38946Y32734D01*
X40118Y31562D01*
X40713Y31164D01*
X41416Y31025D01*
X48100D01*
X48802Y31164D01*
X49245Y31460D01*
X50965D01*
X51078Y31460D01*
X51465Y31187D01*
Y23247D01*
X50998Y22780D01*
X49643D01*
Y15680D01*
X53593D01*
Y18660D01*
X53888Y19102D01*
X54028Y19805D01*
Y20183D01*
X54065Y20208D01*
X54565Y19940D01*
Y15680D01*
X58514D01*
Y22780D01*
X57763D01*
Y24072D01*
X57925Y24464D01*
Y25015D01*
X57714Y25524D01*
X57324Y25914D01*
X56815Y26125D01*
X56264D01*
X55754Y25914D01*
X55635Y25795D01*
X55135Y26002D01*
Y31037D01*
X55322Y31460D01*
X55635Y31460D01*
X61278D01*
Y34260D01*
X55635D01*
X55322Y34260D01*
X55135Y34683D01*
Y37560D01*
X55635Y37897D01*
X55700Y37884D01*
X62128D01*
X62619Y37862D01*
X62619Y37384D01*
Y36799D01*
X64200D01*
X65781D01*
X65781Y37862D01*
X66272Y37884D01*
X67128D01*
X67619Y37862D01*
X67619Y37384D01*
Y36799D01*
X69200D01*
X70781D01*
X70781Y37862D01*
X71272Y37884D01*
X72128D01*
X72619Y37862D01*
X72619Y37384D01*
Y36799D01*
X74200D01*
X75781D01*
X75781Y37862D01*
X76272Y37884D01*
X77128D01*
X77619Y37862D01*
X77619Y37384D01*
Y36799D01*
X79200D01*
X80781D01*
X80781Y37862D01*
X81272Y37884D01*
X82128D01*
X82619Y37862D01*
X82619Y37384D01*
Y36799D01*
X84200D01*
X85781D01*
Y37437D01*
X85875Y37789D01*
X86212Y37946D01*
X86239Y37964D01*
X86477Y38123D01*
X86477Y38123D01*
X86577Y38223D01*
X86754Y38488D01*
X86816Y38800D01*
X86816Y38800D01*
Y41600D01*
X86754Y41912D01*
X86577Y42177D01*
X86312Y42354D01*
X86035Y42409D01*
Y44000D01*
X85896Y44702D01*
X85498Y45298D01*
X84669Y46126D01*
Y55588D01*
X84612Y55876D01*
Y59138D01*
D02*
G37*
G36*
X33781Y42499D02*
X32600D01*
Y41436D01*
X33781D01*
Y42499D01*
D02*
G37*
G36*
X31800D02*
X30619D01*
Y41436D01*
X31800D01*
Y42499D01*
D02*
G37*
G36*
X36300D02*
X35119D01*
Y41436D01*
X36300D01*
Y42499D01*
D02*
G37*
G36*
X12863Y43799D02*
X12600D01*
Y37468D01*
X18931D01*
Y37731D01*
X18672Y39032D01*
X18165Y40257D01*
X17428Y41359D01*
X16491Y42297D01*
X15388Y43033D01*
X14163Y43541D01*
X12863Y43799D01*
D02*
G37*
G36*
X11800D02*
X11537D01*
X10237Y43541D01*
X9012Y43033D01*
X7909Y42297D01*
X6972Y41359D01*
X6235Y40257D01*
X5728Y39032D01*
X5469Y37731D01*
Y37468D01*
X11800D01*
Y43799D01*
D02*
G37*
G36*
X129281Y38499D02*
X128100D01*
Y37436D01*
X129281D01*
Y38499D01*
D02*
G37*
G36*
X85781Y35999D02*
X84600D01*
Y34936D01*
X85781D01*
Y35999D01*
D02*
G37*
G36*
X83800D02*
X82619D01*
Y34936D01*
X83800D01*
Y35999D01*
D02*
G37*
G36*
X80781D02*
X79600D01*
Y34936D01*
X80781D01*
Y35999D01*
D02*
G37*
G36*
X78800D02*
X77619D01*
Y34936D01*
X78800D01*
Y35999D01*
D02*
G37*
G36*
X75781D02*
X74600D01*
Y34936D01*
X75781D01*
Y35999D01*
D02*
G37*
G36*
X73800D02*
X72619D01*
Y34936D01*
X73800D01*
Y35999D01*
D02*
G37*
G36*
X70781D02*
X69600D01*
Y34936D01*
X70781D01*
Y35999D01*
D02*
G37*
G36*
X68800D02*
X67619D01*
Y34936D01*
X68800D01*
Y35999D01*
D02*
G37*
G36*
X65781D02*
X64600D01*
Y34936D01*
X65781D01*
Y35999D01*
D02*
G37*
G36*
X63800D02*
X62619D01*
Y34936D01*
X63800D01*
Y35999D01*
D02*
G37*
G36*
X186781Y32764D02*
X185600D01*
Y31701D01*
X186781D01*
Y32764D01*
D02*
G37*
G36*
X167781D02*
X166600D01*
Y31701D01*
X167781D01*
Y32764D01*
D02*
G37*
G36*
X184800D02*
X183619D01*
Y31701D01*
X184800D01*
Y32764D01*
D02*
G37*
G36*
X165800D02*
X164619D01*
Y31701D01*
X165800D01*
Y32764D01*
D02*
G37*
G36*
X18931Y36669D02*
X12600D01*
Y30338D01*
X12863D01*
X14163Y30596D01*
X15388Y31104D01*
X16491Y31840D01*
X17428Y32778D01*
X18165Y33880D01*
X18672Y35105D01*
X18931Y36406D01*
Y36669D01*
D02*
G37*
G36*
X11800D02*
X5469D01*
Y36406D01*
X5728Y35105D01*
X6235Y33880D01*
X6972Y32778D01*
X7909Y31840D01*
X9012Y31104D01*
X10237Y30596D01*
X11537Y30338D01*
X11800D01*
Y36669D01*
D02*
G37*
G36*
X126276Y29186D02*
X125724D01*
X125215Y28975D01*
X124715Y29048D01*
Y29048D01*
X116778D01*
Y26152D01*
X124715D01*
Y26476D01*
X125574D01*
X125724Y26414D01*
X126276D01*
X126785Y26625D01*
X127175Y27015D01*
X127386Y27524D01*
Y28076D01*
X127175Y28585D01*
X126785Y28975D01*
X126276Y29186D01*
D02*
G37*
G36*
X95622Y29048D02*
X92053D01*
Y28000D01*
X95622D01*
Y29048D01*
D02*
G37*
G36*
X91253D02*
X87685D01*
Y28000D01*
X91253D01*
Y29048D01*
D02*
G37*
G36*
X95622Y27200D02*
X92053D01*
Y26152D01*
X95622D01*
Y27200D01*
D02*
G37*
G36*
X91253D02*
X87685D01*
Y26152D01*
X91253D01*
Y27200D01*
D02*
G37*
G36*
X162057Y22780D02*
X160482D01*
Y19630D01*
X162057D01*
Y22780D01*
D02*
G37*
G36*
X159682D02*
X158107D01*
Y19630D01*
X159682D01*
Y22780D01*
D02*
G37*
G36*
X68357D02*
X66782D01*
Y19630D01*
X68357D01*
Y22780D01*
D02*
G37*
G36*
X65982D02*
X64407D01*
Y19630D01*
X65982D01*
Y22780D01*
D02*
G37*
G36*
X191199Y19681D02*
X190136D01*
Y18500D01*
X191199D01*
Y19681D01*
D02*
G37*
G36*
Y17700D02*
X190136D01*
Y16519D01*
X191199D01*
Y17700D01*
D02*
G37*
G36*
X196581Y24998D02*
X193419D01*
Y21932D01*
X193751D01*
Y20103D01*
X193538Y19681D01*
X193062D01*
X193038Y19681D01*
X191999D01*
Y18100D01*
Y16519D01*
X193038D01*
X193062Y16519D01*
X193538D01*
X193562Y16519D01*
X196464D01*
Y19681D01*
X196249D01*
Y21932D01*
X196581D01*
Y24998D01*
D02*
G37*
G36*
X162057Y18830D02*
X160482D01*
Y15680D01*
X162057D01*
Y18830D01*
D02*
G37*
G36*
X159682D02*
X158107D01*
Y15680D01*
X159682D01*
Y18830D01*
D02*
G37*
G36*
X68357D02*
X66782D01*
Y15680D01*
X68357D01*
Y18830D01*
D02*
G37*
G36*
X65982D02*
X64407D01*
Y15680D01*
X65982D01*
Y18830D01*
D02*
G37*
G36*
X61776Y26286D02*
X61224D01*
X60715Y26075D01*
X60325Y25685D01*
X60114Y25176D01*
Y24624D01*
X60277Y24232D01*
Y22780D01*
X59486D01*
Y15680D01*
X63435D01*
Y22780D01*
X62723D01*
Y24232D01*
X62886Y24624D01*
Y25176D01*
X62675Y25685D01*
X62285Y26075D01*
X61776Y26286D01*
D02*
G37*
G36*
X113096Y22780D02*
X109146D01*
Y15680D01*
X109877D01*
Y14367D01*
X109714Y13976D01*
Y13424D01*
X109925Y12915D01*
X110315Y12525D01*
X110824Y12314D01*
X111376D01*
X111885Y12525D01*
X112275Y12915D01*
X112486Y13424D01*
Y13976D01*
X112323Y14367D01*
Y15680D01*
X113096D01*
Y22780D01*
D02*
G37*
G36*
X108175D02*
X104225D01*
Y15680D01*
X104876D01*
Y14367D01*
X104714Y13976D01*
Y13424D01*
X104925Y12915D01*
X105315Y12525D01*
X105824Y12314D01*
X106376D01*
X106885Y12525D01*
X107275Y12915D01*
X107486Y13424D01*
Y13976D01*
X107324Y14367D01*
Y15680D01*
X108175D01*
Y22780D01*
D02*
G37*
G36*
X103253D02*
X99304D01*
Y15680D01*
X100076D01*
Y14367D01*
X99914Y13976D01*
Y13424D01*
X100125Y12915D01*
X100515Y12525D01*
X101024Y12314D01*
X101576D01*
X102085Y12525D01*
X102475Y12915D01*
X102686Y13424D01*
Y13976D01*
X102524Y14367D01*
Y15680D01*
X103253D01*
Y22780D01*
D02*
G37*
%LPD*%
G36*
X167200Y78000D02*
X159100D01*
X158900Y77800D01*
Y76700D01*
X152000D01*
Y78900D01*
X152100Y79000D01*
X167200D01*
Y78000D01*
D02*
G37*
G36*
X86000Y38800D02*
X85900Y38700D01*
X55700D01*
Y41300D01*
X56000Y41600D01*
X86000D01*
Y38800D01*
D02*
G37*
D10*
X165023Y68679D02*
X165031Y68671D01*
X168829D02*
X168900Y68600D01*
X165031Y68671D02*
X168829D01*
D17*
X140999Y54600D02*
D03*
X139424D02*
D03*
X137850D02*
D03*
X136275D02*
D03*
X134700D02*
D03*
X133125D02*
D03*
X131550D02*
D03*
X129976D02*
D03*
X128401D02*
D03*
X126826D02*
D03*
X125251D02*
D03*
X123676D02*
D03*
X122102D02*
D03*
X120527D02*
D03*
Y81372D02*
D03*
X122102D02*
D03*
X123676D02*
D03*
X125251D02*
D03*
X126826D02*
D03*
X128401D02*
D03*
X129976D02*
D03*
X131550D02*
D03*
X133125D02*
D03*
X134700D02*
D03*
X136275D02*
D03*
X137850D02*
D03*
X139424D02*
D03*
X140999D02*
D03*
D18*
X117377Y57750D02*
D03*
Y59324D02*
D03*
Y60899D02*
D03*
Y62474D02*
D03*
Y64049D02*
D03*
Y65624D02*
D03*
Y67198D02*
D03*
Y68773D02*
D03*
Y70348D02*
D03*
Y71923D02*
D03*
Y73498D02*
D03*
Y75072D02*
D03*
Y76647D02*
D03*
Y78222D02*
D03*
X144149D02*
D03*
Y76647D02*
D03*
Y75072D02*
D03*
Y73498D02*
D03*
Y71923D02*
D03*
Y70348D02*
D03*
Y68773D02*
D03*
Y67198D02*
D03*
Y65624D02*
D03*
Y64049D02*
D03*
Y62474D02*
D03*
Y60899D02*
D03*
Y59324D02*
D03*
Y57750D02*
D03*
D19*
X160082Y19230D02*
D03*
X155161D02*
D03*
X150239D02*
D03*
X145318D02*
D03*
X51618D02*
D03*
X56539D02*
D03*
X61461D02*
D03*
X66382D02*
D03*
X111121D02*
D03*
X106200D02*
D03*
X101279D02*
D03*
D20*
X170121Y7813D02*
D03*
X135279D02*
D03*
X41579D02*
D03*
X76421D02*
D03*
X121161D02*
D03*
X91239D02*
D03*
D21*
X165023Y80490D02*
D03*
Y78521D02*
D03*
Y76553D02*
D03*
Y74584D02*
D03*
Y72616D02*
D03*
Y70647D02*
D03*
Y68679D02*
D03*
Y66710D02*
D03*
D22*
X22535Y73879D02*
D03*
Y56163D02*
D03*
Y46321D02*
D03*
Y64037D02*
D03*
D23*
X120747Y42600D02*
D03*
Y37600D02*
D03*
Y32600D02*
D03*
Y27600D02*
D03*
X91653D02*
D03*
Y32600D02*
D03*
Y37600D02*
D03*
Y42600D02*
D03*
D24*
X195001Y18100D02*
D03*
X191599D02*
D03*
X153701Y96400D02*
D03*
X150299D02*
D03*
D25*
X206700Y7498D02*
D03*
Y19702D02*
D03*
D26*
X58300Y40340D02*
D03*
Y32860D02*
D03*
X48100D02*
D03*
Y36600D02*
D03*
Y40340D02*
D03*
D27*
X195000Y23465D02*
D03*
Y27935D02*
D03*
D28*
X154900Y90839D02*
D03*
Y84961D02*
D03*
D29*
X41283Y57600D02*
D03*
X36117D02*
D03*
X41283Y62600D02*
D03*
X36117D02*
D03*
X156883Y68600D02*
D03*
X151717D02*
D03*
D30*
X148800Y85317D02*
D03*
Y90483D02*
D03*
D31*
X178935Y28100D02*
D03*
X174465D02*
D03*
D32*
X182100Y51501D02*
D03*
Y48099D02*
D03*
X167200Y50699D02*
D03*
Y54101D02*
D03*
X176300Y48299D02*
D03*
Y51701D02*
D03*
X84200Y39801D02*
D03*
Y36399D02*
D03*
X79200Y39801D02*
D03*
Y36399D02*
D03*
X166200Y27899D02*
D03*
Y31301D02*
D03*
X160400Y50699D02*
D03*
Y54101D02*
D03*
X74200Y39801D02*
D03*
Y36399D02*
D03*
X157500Y60799D02*
D03*
Y64201D02*
D03*
X69200Y39801D02*
D03*
Y36399D02*
D03*
X185200Y27899D02*
D03*
Y31301D02*
D03*
X32200Y46301D02*
D03*
Y42899D02*
D03*
X64200Y39801D02*
D03*
Y36399D02*
D03*
X36700Y46301D02*
D03*
Y42899D02*
D03*
X30700Y57218D02*
D03*
Y53816D02*
D03*
Y62817D02*
D03*
Y66218D02*
D03*
X113100Y77601D02*
D03*
Y74199D02*
D03*
X157700Y77801D02*
D03*
Y74399D02*
D03*
X153200D02*
D03*
Y77801D02*
D03*
X127700Y42301D02*
D03*
Y38899D02*
D03*
D33*
X147624Y108978D02*
D03*
Y102285D02*
D03*
X125576Y108978D02*
D03*
Y102285D02*
D03*
D34*
X109212Y97320D02*
D03*
X48188D02*
D03*
D35*
X109212Y60706D02*
D03*
D36*
X51731Y59722D02*
D03*
D37*
X104487Y55588D02*
D03*
X100157D02*
D03*
X95826D02*
D03*
X91495D02*
D03*
X87165D02*
D03*
X82834D02*
D03*
X78503D02*
D03*
X74172D02*
D03*
X69842D02*
D03*
D38*
X130763Y67986D02*
D03*
D55*
X125114Y84048D02*
G03*
X122262Y86900I-2852J0D01*
G01*
X38700Y59600D02*
G03*
X38833Y59027I1300J0D01*
G01*
X50000Y86900D02*
G03*
X38700Y75600I0J-11300D01*
G01*
X123814Y84048D02*
G03*
X122262Y85600I-1552J0D01*
G01*
X50000D02*
G03*
X40000Y75600I0J-10000D01*
G01*
X206900Y23100D02*
G03*
X202065Y27935I-4835J0D01*
G01*
X178935Y28100D02*
G03*
X179136Y27899I201J0D01*
G01*
X166200D02*
G03*
X166077Y28022I-123J0D01*
G01*
X166401Y28100D02*
G03*
X166200Y27899I0J-201D01*
G01*
X153311Y55100D02*
G03*
X150661Y57750I-2650J0D01*
G01*
X153311Y35700D02*
G03*
X160988Y28022I7677J0D01*
G01*
X206700Y19702D02*
G03*
X206900Y19902I0J200D01*
G01*
X113839Y86900D02*
X122262D01*
X125114Y82382D02*
Y84048D01*
X50000Y86900D02*
X57700D01*
X38833Y59027D02*
X38833Y59027D01*
X38700Y72139D02*
Y75600D01*
Y59600D02*
Y71900D01*
X38950Y58910D02*
X39031Y58829D01*
X38833Y59027D02*
X38950Y58910D01*
X123814Y82382D02*
Y84048D01*
X50000Y85600D02*
X122262D01*
X40000Y63298D02*
Y75600D01*
X195000Y27935D02*
X202065D01*
X206900Y19902D02*
Y23100D01*
X188600Y27900D02*
X195000D01*
X179136Y27899D02*
X185200D01*
X166401Y28100D02*
X174465D01*
X160988Y28022D02*
X166077D01*
X144149Y57750D02*
X150661D01*
X153311Y35700D02*
Y55100D01*
X150239Y19230D02*
Y24939D01*
X138000Y37179D02*
Y46900D01*
Y37179D02*
X150239Y24939D01*
X155161Y10769D02*
Y19230D01*
X143600Y10300D02*
X154692D01*
X155161Y10769D01*
X141400Y12500D02*
X143600Y10300D01*
X141400Y12500D02*
Y31344D01*
X131550Y53350D02*
X138000Y46900D01*
X129982Y52258D02*
X135900Y46340D01*
Y36844D02*
Y46340D01*
X131550Y53350D02*
Y54600D01*
X129982Y52258D02*
Y53720D01*
X135900Y36844D02*
X141400Y31344D01*
X165115Y78613D02*
X167613D01*
X169200Y80200D01*
X165023Y78521D02*
X165115Y78613D01*
X168490Y76553D02*
X169037Y77100D01*
X169300D01*
X144142Y65630D02*
X144149Y65624D01*
X141670Y65630D02*
X144142D01*
X141600Y65700D02*
X141670Y65630D01*
X147299Y67199D02*
X147300Y67200D01*
X144150Y67199D02*
X147299D01*
X144149Y67198D02*
X144150Y67199D01*
X141667Y68767D02*
X144142D01*
X144149Y68773D01*
X141600Y68700D02*
X141667Y68767D01*
X111100Y19209D02*
X111121Y19230D01*
X111100Y13700D02*
Y19209D01*
X106100Y13700D02*
Y19130D01*
X106200Y19230D01*
X101279D02*
X101300Y19209D01*
Y13700D02*
Y19209D01*
X126800Y88514D02*
X126820Y88494D01*
Y81378D02*
Y88494D01*
Y81378D02*
X126826Y81372D01*
X128401D02*
X128407Y81378D01*
Y83191D01*
X129200Y83984D01*
Y88514D01*
X61461Y19230D02*
X61500Y19269D01*
Y24900D01*
X56539Y19230D02*
Y24739D01*
X87123Y55630D02*
Y61500D01*
X95784Y55630D02*
Y61500D01*
X167250Y54150D02*
X170541D01*
X172991Y51701D02*
X176300D01*
X170541Y54150D02*
X172991Y51701D01*
X144149Y59324D02*
X155476D01*
X153901Y60899D02*
X155476Y59324D01*
X144149Y60899D02*
X153901D01*
X160402Y54103D02*
X167198D01*
X176300Y51701D02*
X181400D01*
X156800Y58000D02*
X159300D01*
X155476Y59324D02*
X156800Y58000D01*
X167200Y54101D02*
X167250Y54150D01*
X160400Y54101D02*
Y56900D01*
X159300Y58000D02*
X160400Y56900D01*
X161050Y64150D02*
X171650D01*
X173800Y66300D01*
Y82400D01*
X171239Y84961D02*
X173800Y82400D01*
X154900Y84961D02*
X171239D01*
X148800Y85317D02*
X154544D01*
X154900Y84961D01*
X148800Y91067D02*
X150299Y92566D01*
Y96400D01*
X148800Y90483D02*
Y91067D01*
X145200Y96400D02*
X150299D01*
X142700Y98900D02*
X145200Y96400D01*
X144149Y62474D02*
X150374D01*
X152101Y64201D02*
X157500D01*
X150374Y62474D02*
X152101Y64201D01*
X157550Y64150D02*
X161050D01*
X159813Y68600D02*
X161658Y66755D01*
X156883Y68600D02*
X159813D01*
X161658Y66755D02*
X164978D01*
X165023Y66710D01*
X147207Y70348D02*
X148835Y68720D01*
X151597D01*
X144149Y70348D02*
X147207D01*
X151597Y68720D02*
X151717Y68600D01*
X149253Y70647D02*
X165023D01*
X147977Y71923D02*
X149253Y70647D01*
X144149Y71923D02*
X147977D01*
X149252Y79452D02*
X150290Y80490D01*
X165023D01*
X142700Y98900D02*
Y108184D01*
X125576Y108978D02*
X126370Y108184D01*
X142700D01*
X146830D01*
X147624Y108978D01*
X134700Y79018D02*
Y81372D01*
X74131Y55630D02*
Y61460D01*
X69800Y55630D02*
Y66500D01*
Y55630D02*
X69842Y55588D01*
X78461Y55630D02*
Y61500D01*
X140999Y79018D02*
Y81372D01*
X139424D02*
Y83725D01*
X137850Y79018D02*
Y81372D01*
X136275D02*
Y83725D01*
X133132Y81378D02*
Y83732D01*
X133125Y81372D02*
X133132Y81378D01*
X100115Y55630D02*
Y61500D01*
X120847Y27700D02*
X125900D01*
X126000Y27800D01*
X120747Y27600D02*
X120847Y27700D01*
X120797Y32650D02*
X125850D01*
X120747Y32600D02*
X120797Y32650D01*
X125850D02*
X125900Y32700D01*
X119837Y58800D02*
X120100D01*
X119319Y59318D02*
X119837Y58800D01*
X117384Y59318D02*
X119319D01*
X119650Y61494D02*
X119913D01*
X117384Y60905D02*
X119061D01*
X117377Y60899D02*
X117384Y60905D01*
X119061D02*
X119650Y61494D01*
X117377Y59324D02*
X117384Y59318D01*
X112700Y45800D02*
Y61100D01*
X114100Y56800D02*
X115043Y57743D01*
X117371D01*
X117377Y57750D01*
X126314Y35786D02*
X126500Y35600D01*
X120747Y37600D02*
X123267D01*
X125081Y35786D01*
X126314D01*
X115217Y64049D02*
X117377D01*
X114366Y64900D02*
X115217Y64049D01*
X114300Y64900D02*
X114366D01*
X114074Y62474D02*
X117377D01*
X112700Y61100D02*
X114074Y62474D01*
X118600Y50000D02*
X120527Y51927D01*
X115500Y37200D02*
Y48500D01*
X117000Y50000D01*
X118600D01*
X120527Y51927D02*
Y54600D01*
X110900Y32600D02*
X115500Y37200D01*
X91653Y32600D02*
X110900D01*
X109500Y42600D02*
X112700Y45800D01*
X91653Y42600D02*
X109500D01*
X91653Y37600D02*
X110400D01*
X114100Y41300D01*
Y56800D01*
X113100Y77601D02*
X113715Y78216D01*
X117371D02*
X117377Y78222D01*
X113715Y78216D02*
X117371D01*
X149252Y75998D02*
Y79452D01*
X144155Y75066D02*
X148321D01*
X149252Y75998D01*
X150053Y71847D02*
X162434D01*
X148402Y73498D02*
X150053Y71847D01*
X144149Y73498D02*
X148402D01*
X163350Y72616D02*
X165023D01*
X163258Y72524D02*
X163350Y72616D01*
X163258Y72408D02*
Y72524D01*
X162434Y71847D02*
X162526Y71939D01*
X162789D02*
X163258Y72408D01*
X162526Y71939D02*
X162789D01*
X146666Y76852D02*
X146929D01*
X145914Y79114D02*
X146714D01*
X146900Y79300D01*
X146467Y76653D02*
X146666Y76852D01*
X145028Y78228D02*
X145914Y79114D01*
X144155Y76653D02*
X146467D01*
X144149Y75072D02*
X144155Y75066D01*
X144149Y76647D02*
X144155Y76653D01*
X165023Y76553D02*
X168490D01*
X168383Y74584D02*
X169067Y73900D01*
X165023Y74584D02*
X168383D01*
X169067Y73900D02*
X169300D01*
X195000Y27900D02*
Y27935D01*
X57700Y86900D02*
X113839Y86900D01*
X39031Y58829D02*
X40000Y58298D01*
X41283Y57600D01*
X40000Y63298D02*
X40698Y62600D01*
X41283D01*
X22535Y73879D02*
X22614Y73800D01*
X125114Y82382D02*
X125251Y82245D01*
X123676Y81372D02*
Y82245D01*
X125251Y81372D02*
Y82245D01*
X123676D02*
X123814Y82382D01*
X41867Y57600D02*
X42565Y58298D01*
X185200Y27899D02*
X188599D01*
X188600Y27900D01*
D56*
X25348Y57033D02*
G03*
X25349Y57033I-2100J2101D01*
G01*
X23248Y56163D02*
G03*
X25348Y57033I0J2971D01*
G01*
Y63168D02*
G03*
X23248Y64037I-2100J-2101D01*
G01*
X25349Y63167D02*
G03*
X25348Y63168I-2101J-2101D01*
G01*
X25349Y57033D02*
X25857Y57541D01*
X25348Y57033D02*
X25349Y57033D01*
X22535Y56163D02*
X23248D01*
X25349Y63167D02*
X25857Y62659D01*
X25348Y63168D02*
X25349Y63167D01*
X22535Y64037D02*
X23248D01*
X30700Y62817D02*
X30766D01*
X30582D02*
X30700D01*
X195000Y18100D02*
Y23465D01*
Y18100D02*
X195001D01*
X30818Y57218D02*
X31456Y57856D01*
X35620Y62600D02*
X36117D01*
X34947Y61135D02*
Y61927D01*
X32028Y60550D02*
X34362D01*
X34860Y58273D02*
X35533Y57600D01*
X31456Y58702D02*
X31954Y59200D01*
X31404Y61173D02*
Y62178D01*
X34362Y59200D02*
X34860Y58702D01*
X31456Y57856D02*
Y58702D01*
X34362Y60550D02*
X34947Y61135D01*
X35533Y57600D02*
X36117D01*
X34947Y61927D02*
X35620Y62600D01*
X30700Y57218D02*
X30818D01*
X30766Y62817D02*
X31404Y62178D01*
X31954Y59200D02*
X34362D01*
X31404Y61173D02*
X32028Y60550D01*
X34860Y58273D02*
Y58702D01*
X26055Y57541D02*
X26417Y57903D01*
Y58927D02*
X26915Y59425D01*
X26417Y57903D02*
Y58927D01*
X29564Y59425D02*
X30062Y58927D01*
X25857Y57541D02*
X26055D01*
X30062Y57856D02*
X30700Y57218D01*
X26915Y59425D02*
X29564D01*
X30062Y57856D02*
Y58927D01*
X25857Y62659D02*
X26055D01*
X26417Y61273D02*
X26915Y60775D01*
X29944Y61273D02*
Y62178D01*
X30582Y62817D01*
X26417Y61273D02*
Y62297D01*
X29446Y60775D02*
X29944Y61273D01*
X26055Y62659D02*
X26417Y62297D01*
X26915Y60775D02*
X29446D01*
D57*
X38950Y58910D02*
D03*
D58*
X180377Y86986D02*
D03*
Y60214D02*
D03*
D59*
X109200Y97320D02*
Y103399D01*
X48200Y97320D02*
Y104199D01*
X127700Y38899D02*
X131299D01*
X145318Y13382D02*
X145400Y13300D01*
X145318Y13382D02*
Y19230D01*
X127700Y42301D02*
Y47200D01*
X109300Y76800D02*
X110101Y77601D01*
X109300Y72900D02*
Y76800D01*
X110101Y77601D02*
X113100D01*
X82800Y45400D02*
X82834Y45366D01*
X84200Y44000D01*
X82834Y45366D02*
Y55588D01*
X160739Y90839D02*
X160800Y90900D01*
X154900Y90839D02*
X160739D01*
X182100Y44400D02*
Y48099D01*
X176300Y44400D02*
Y48299D01*
X167318Y50699D02*
X169165Y48853D01*
X167200Y50699D02*
X167318D01*
X169165Y46387D02*
Y48853D01*
X160518Y50699D02*
X163259Y47958D01*
Y46387D02*
Y47958D01*
X160400Y50699D02*
X160518D01*
X55000Y45400D02*
X82800D01*
X53300Y22487D02*
Y43700D01*
X55000Y45400D01*
X52193Y21380D02*
X53300Y22487D01*
X51618Y19230D02*
X52193Y19805D01*
Y21380D01*
X84200Y39801D02*
Y44000D01*
X39073Y46238D02*
X40244Y45066D01*
Y40956D02*
Y45066D01*
X36763Y46238D02*
X39073D01*
X40244Y34031D02*
X41416Y32860D01*
X40244Y34031D02*
Y40956D01*
X41416Y32860D02*
X48100D01*
X40244Y40956D02*
X40800Y41512D01*
X41972Y40340D01*
X43600Y36600D02*
X48100D01*
X41972Y40340D02*
X48100D01*
X32200Y46301D02*
X36582D01*
X36700D02*
X36763Y46238D01*
X32190Y46311D02*
X32200Y46301D01*
X22545Y46311D02*
X32190D01*
X22535Y46321D02*
X22545Y46311D01*
X166200Y31301D02*
Y34200D01*
X185200Y31301D02*
Y34400D01*
X161099Y60799D02*
X161100Y60800D01*
X157500Y60799D02*
X161099D01*
X153701Y96400D02*
X156900D01*
X91495Y50005D02*
X91500Y50000D01*
X91495Y50005D02*
Y55588D01*
X104487Y50113D02*
X104500Y50100D01*
X104487Y50113D02*
Y55588D01*
X108900Y55000D02*
Y60395D01*
X109212Y60706D01*
X51700Y54300D02*
X51731Y54331D01*
Y59722D01*
X113100Y71100D02*
Y74199D01*
X150200Y74400D02*
X153199D01*
X157700Y74399D02*
X157701Y74400D01*
X160700D01*
X153199D02*
X153200Y74399D01*
X147624Y102285D02*
X151223D01*
X121977D02*
X125576D01*
X30700Y66218D02*
X34299D01*
X30700Y53816D02*
X34299D01*
X66382Y24282D02*
X66400Y24300D01*
X66382Y19230D02*
Y24282D01*
X188000Y18100D02*
X191599D01*
X160082Y19230D02*
Y24482D01*
X160100Y24500D01*
X86000Y27600D02*
X91653D01*
X84200Y32800D02*
Y36399D01*
X79200Y32800D02*
Y36399D01*
X74200Y32800D02*
Y36399D01*
X69200Y32800D02*
Y36399D01*
X64200Y32800D02*
Y36399D01*
X36700Y39600D02*
Y42899D01*
X32200Y39600D02*
Y42899D01*
X22614Y73800D02*
X29200D01*
D60*
X12200Y69057D02*
D03*
Y51143D02*
D03*
D61*
Y83131D02*
D03*
Y37069D02*
D03*
D62*
X136600Y111045D02*
D03*
Y100218D02*
D03*
D63*
X98188Y98895D02*
D03*
X66692D02*
D03*
D64*
X140200Y95700D02*
D03*
X142100Y87800D02*
D03*
X81300Y75600D02*
D03*
X129400Y95200D02*
D03*
X118000Y98500D02*
D03*
X161417Y102362D02*
D03*
X62992Y59055D02*
D03*
X98425Y47244D02*
D03*
X106299Y27559D02*
D03*
X74803D02*
D03*
X62992Y51181D02*
D03*
X47244Y70866D02*
D03*
X59055Y98425D02*
D03*
X90551Y66929D02*
D03*
X65900Y90900D02*
D03*
X82677Y98425D02*
D03*
X51181Y78740D02*
D03*
X98425Y74803D02*
D03*
X74803Y70866D02*
D03*
X122047Y19685D02*
D03*
X90551D02*
D03*
X106299Y3937D02*
D03*
X145669D02*
D03*
X161417D02*
D03*
X177165Y15748D02*
D03*
X185039Y7874D02*
D03*
X133858Y31496D02*
D03*
X169291Y39370D02*
D03*
X188976Y43307D02*
D03*
Y55118D02*
D03*
Y66929D02*
D03*
X181102Y74803D02*
D03*
X188976Y82677D02*
D03*
X185039Y102362D02*
D03*
X169291Y98425D02*
D03*
X161417Y110236D02*
D03*
X107519Y110310D02*
D03*
X90551Y110236D02*
D03*
X74803D02*
D03*
X59055D02*
D03*
X23622D02*
D03*
X43307D02*
D03*
X35433Y86614D02*
D03*
Y98425D02*
D03*
X23622D02*
D03*
X39370Y51181D02*
D03*
X35433Y35433D02*
D03*
X43307Y27559D02*
D03*
X62992Y11811D02*
D03*
X51181D02*
D03*
X15748Y27559D02*
D03*
X27559D02*
D03*
Y11811D02*
D03*
X15748D02*
D03*
X3937D02*
D03*
Y27559D02*
D03*
Y47244D02*
D03*
Y59055D02*
D03*
Y70866D02*
D03*
X7874Y98425D02*
D03*
Y110236D02*
D03*
X149900Y54261D02*
D03*
X156468D02*
D03*
X196724Y5049D02*
D03*
Y12923D02*
D03*
Y32608D02*
D03*
Y40482D02*
D03*
Y48356D02*
D03*
Y56230D02*
D03*
Y64104D02*
D03*
Y71978D02*
D03*
Y79852D02*
D03*
Y87726D02*
D03*
Y95600D02*
D03*
Y103474D02*
D03*
Y111348D02*
D03*
X156900Y37600D02*
D03*
X190500Y23800D02*
D03*
X191100Y32600D02*
D03*
X177800Y32700D02*
D03*
X177100Y23800D02*
D03*
X184100D02*
D03*
X170500Y32600D02*
D03*
X170100Y23800D02*
D03*
X154700Y26500D02*
D03*
X150300Y32300D02*
D03*
X150000Y38500D02*
D03*
X149900Y44200D02*
D03*
Y49400D02*
D03*
X159900Y32300D02*
D03*
X156300Y43500D02*
D03*
Y48900D02*
D03*
D65*
X131299Y38899D02*
D03*
X145400Y13300D02*
D03*
X169200Y80200D02*
D03*
X169300Y77100D02*
D03*
X127700Y47200D02*
D03*
X109300Y72900D02*
D03*
X136714Y61986D02*
D03*
X141600Y65700D02*
D03*
X147300Y67200D02*
D03*
X141600Y68700D02*
D03*
X111100Y13700D02*
D03*
X106100D02*
D03*
X101300D02*
D03*
X126800Y88514D02*
D03*
X129200D02*
D03*
X61500Y24900D02*
D03*
X56539Y24739D02*
D03*
X87123Y61500D02*
D03*
X95784D02*
D03*
X160800Y90900D02*
D03*
X182100Y44400D02*
D03*
X176300D02*
D03*
X169165Y46387D02*
D03*
X163259D02*
D03*
X84200Y44000D02*
D03*
X43600Y36600D02*
D03*
X166200Y34200D02*
D03*
X185200Y34400D02*
D03*
X161100Y60800D02*
D03*
X161050Y64150D02*
D03*
X156900Y96400D02*
D03*
X134700Y79018D02*
D03*
X74131Y61460D02*
D03*
X69800Y66500D02*
D03*
X78461Y61500D02*
D03*
X140999Y79018D02*
D03*
X139424Y83725D02*
D03*
X137850Y79018D02*
D03*
X136275Y83725D02*
D03*
X133132Y83732D02*
D03*
X100115Y61500D02*
D03*
X91500Y50000D02*
D03*
X104500Y50100D02*
D03*
X108900Y55000D02*
D03*
X51700Y54300D02*
D03*
X126000Y27800D02*
D03*
X125900Y32700D02*
D03*
X120100Y58800D02*
D03*
X119913Y61494D02*
D03*
X126500Y35600D02*
D03*
X127763Y64986D02*
D03*
Y67986D02*
D03*
X133763Y64986D02*
D03*
X124763D02*
D03*
Y61986D02*
D03*
X133763D02*
D03*
Y73986D02*
D03*
X124763Y67986D02*
D03*
Y73986D02*
D03*
X130763Y70986D02*
D03*
Y73986D02*
D03*
X127763Y61986D02*
D03*
X133763Y67986D02*
D03*
X136763Y73986D02*
D03*
X130763Y61986D02*
D03*
X124763Y70986D02*
D03*
X136763Y64986D02*
D03*
Y70986D02*
D03*
X130763Y64986D02*
D03*
X136763Y67986D02*
D03*
X127763Y73986D02*
D03*
X133763Y70986D02*
D03*
X127763D02*
D03*
X130763Y67986D02*
D03*
X114300Y64900D02*
D03*
X113100Y71100D02*
D03*
X150200Y74400D02*
D03*
X160700D02*
D03*
X146929Y76852D02*
D03*
X146900Y79300D02*
D03*
X169300Y73900D02*
D03*
X168900Y68600D02*
D03*
X151223Y102285D02*
D03*
X121977D02*
D03*
X109200Y103399D02*
D03*
X48200Y104199D02*
D03*
X34299Y66218D02*
D03*
Y53816D02*
D03*
X66400Y24300D02*
D03*
X188000Y18100D02*
D03*
X160100Y24500D02*
D03*
X86000Y27600D02*
D03*
X84200Y32800D02*
D03*
X79200D02*
D03*
X74200D02*
D03*
X69200D02*
D03*
X64200D02*
D03*
X36700Y39600D02*
D03*
X32200D02*
D03*
X29200Y73800D02*
D03*
M02*
