M48
;Layer_Color=9474304
;FILE_FORMAT=2:5
INCH,LZ
;TYPE=PLATED
T01F00S00C0.00787
T02F00S00C0.01181
T03F00S00C0.08661
;TYPE=NON_PLATED
T04F00S00C0.02953
T05F00S00C0.03937
T06F00S00C0.04331
%
T01
X00322Y00396
X00367
X00436Y00366
X00642Y00328
X00692
X00742
X00792
X00842
X0086Y00276
X00842Y0044
X00915Y005
X01045Y00501
X01089Y0055
X01201Y00588
X0119913Y0061494
X01143Y00649
X01131Y00711
X01093Y00729
X0100115Y00615
X0095784
X0087123
X0078461
X0074131Y006146
X00698Y00665
X00517Y00543
X0034299Y0053816
Y0066218
X00292Y00738
X00482Y0104199
X01092Y0103399
X01111Y00137
X01061
X01013
X00664Y00243
X00615Y00249
X0056539Y0024739
X0126Y00278
X01259Y00327
X01265Y00356
X0131299Y0038899
X01277Y00472
X0127763Y0061986
Y0064986
Y0067986
X0124763
Y0064986
Y0061986
X0130763
X0133763
X0136714
X0136763Y0064986
X0133763
Y0067986
X0136763
Y0070986
Y0073986
X0133763
X0130763
Y0070986
X0133763
X0127763
X0124763
Y0073986
X0127763
X0130763Y0067986
Y0064986
X01416Y00657
Y00687
X01473Y00672
X0146929Y0076852
X01469Y00793
X0140999Y0079018
X013785
X01347
X0136275Y0083725
X0139424
X0133132Y0083732
X01292Y0088514
X01268
X0121977Y0102285
X0151223
X01569Y00964
X01608Y00909
X01607Y00744
X01693Y00739
Y00771
X01692Y00802
X01689Y00686
X016105Y006415
X01611Y00608
X0163259Y0046387
X0169165
X01763Y00444
X01821
X01852Y00344
X0188Y00181
X01601Y00245
X01662Y00342
X01454Y00133
X01502Y00744
T02
X0003937Y0011811
X0015748
X0027559
Y0027559
X0015748
X0003937
Y0047244
Y0059055
Y0070866
X0007874Y0098425
Y0110236
X0023622
Y0098425
X0035433
Y0086614
X0051181Y007874
X0047244Y0070866
X003937Y0051181
X0035433Y0035433
X0043307Y0027559
X0051181Y0011811
X0062992
X0074803Y0027559
X0090551Y0019685
X0106299Y0027559
Y0003937
X0098425Y0047244
X0090551Y0066929
X0098425Y0074803
X00813Y00756
X0074803Y0070866
X0062992Y0059055
Y0051181
X00659Y00909
X0059055Y0098425
Y0110236
X0074803
X0090551
X0107519Y011031
X0118Y00985
X0082677Y0098425
X0043307Y0110236
X01294Y00952
X01402Y00957
X01421Y00878
X0161417Y0102362
Y0110236
X0169291Y0098425
X0185039Y0102362
X0196724Y0103474
Y0111348
Y00956
Y0087726
Y0079852
Y0071978
Y0064104
Y005623
Y0048356
Y0040482
Y0032608
X01911Y00326
X01905Y00238
X01841
X01771
X01701
X01705Y00326
X01778Y00327
X0169291Y003937
X01569Y00376
X01563Y00435
Y00489
X0156468Y0054261
X01499
Y00494
Y00442
X015Y00385
X01503Y00323
X01599
X01547Y00265
X0133858Y0031496
X0122047Y0019685
X0145669Y0003937
X0161417
X0177165Y0015748
X0185039Y0007874
X0196724Y0005049
Y0012923
X0188976Y0043307
Y0055118
Y0066929
X0181102Y0074803
X0188976Y0082677
T03
X00122Y0037069
Y0083131
T04
X01366Y0100218
Y0111045
T05
X0066692Y0098895
X0098188
T06
X00122Y0051143
Y0069057
M30
