G04*
G04 #@! TF.GenerationSoftware,Altium Limited,Altium Designer,24.6.1 (21)*
G04*
G04 Layer_Color=65535*
%FSLAX25Y25*%
%MOIN*%
G70*
G04*
G04 #@! TF.SameCoordinates,3FA1F31C-5517-4C6A-88EA-090D92855D6C*
G04*
G04*
G04 #@! TF.FilePolarity,Positive*
G04*
G01*
G75*
%ADD10C,0.01000*%
%ADD11C,0.00787*%
%ADD12C,0.00600*%
%ADD13C,0.00500*%
%ADD14C,0.00394*%
%ADD15C,0.00197*%
%ADD16C,0.00300*%
G36*
X133875Y83651D02*
X132375D01*
Y84651D01*
X133875D01*
Y83651D01*
D02*
G37*
G36*
X147428Y71173D02*
X146428D01*
Y72673D01*
X147428D01*
Y71173D01*
D02*
G37*
G36*
X115098Y60149D02*
X114098D01*
Y61649D01*
X115098D01*
Y60149D01*
D02*
G37*
G36*
X132300Y51320D02*
X130800D01*
Y52320D01*
X132300D01*
Y51320D01*
D02*
G37*
G36*
X144141Y43616D02*
X144114D01*
Y43642D01*
X144141D01*
Y43616D01*
D02*
G37*
G36*
X144114Y43562D02*
X144088D01*
Y43616D01*
X144114D01*
Y43562D01*
D02*
G37*
G36*
X151366Y43589D02*
X151392D01*
Y43562D01*
X151419D01*
Y43509D01*
X151445D01*
Y43483D01*
X151472D01*
Y43430D01*
X151498D01*
Y43403D01*
X151525D01*
Y43350D01*
X151552D01*
Y43323D01*
X151578D01*
Y43270D01*
X151605D01*
Y43244D01*
X151631D01*
Y43191D01*
X151658D01*
Y43164D01*
X151684D01*
Y43111D01*
X151711D01*
Y43084D01*
X151737D01*
Y43031D01*
X151764D01*
Y42978D01*
X151791D01*
Y42952D01*
X151817D01*
Y42898D01*
X151844D01*
Y42845D01*
X151870D01*
Y42819D01*
X151897D01*
Y42766D01*
X151923D01*
Y42713D01*
X151950D01*
Y42659D01*
X151977D01*
Y42633D01*
X152003D01*
Y42580D01*
X152030D01*
Y42527D01*
X152056D01*
Y42473D01*
X152083D01*
Y42420D01*
X152109D01*
Y42367D01*
X152136D01*
Y42314D01*
X152163D01*
Y42261D01*
X152189D01*
Y42234D01*
X152216D01*
Y42181D01*
X152242D01*
Y42128D01*
X152269D01*
Y42048D01*
X152295D01*
Y41995D01*
X152322D01*
Y41942D01*
X152348D01*
Y41889D01*
X152375D01*
Y41836D01*
X152402D01*
Y41783D01*
X152428D01*
Y41703D01*
X152455D01*
Y41650D01*
X152481D01*
Y41597D01*
X152508D01*
Y41517D01*
X152534D01*
Y41464D01*
X152561D01*
Y41384D01*
X152587D01*
Y41305D01*
X152614D01*
Y41252D01*
X152641D01*
Y41172D01*
X152667D01*
Y41092D01*
X152694D01*
Y41012D01*
X152720D01*
Y40933D01*
X152747D01*
Y40853D01*
X152773D01*
Y40773D01*
X152800D01*
Y40694D01*
X152827D01*
Y40614D01*
X152853D01*
Y40534D01*
X152880D01*
Y40428D01*
X152906D01*
Y40322D01*
X152933D01*
Y40242D01*
X152959D01*
Y40136D01*
X152986D01*
Y40030D01*
X153013D01*
Y39923D01*
X153039D01*
Y39791D01*
X153066D01*
Y39658D01*
X153092D01*
Y39525D01*
X153119D01*
Y39392D01*
X153145D01*
Y39233D01*
X153172D01*
Y39073D01*
X153198D01*
Y38888D01*
X153225D01*
Y38675D01*
X153252D01*
Y38436D01*
X153278D01*
Y38197D01*
X153305D01*
Y37931D01*
X153331D01*
Y37745D01*
X153252D01*
Y37772D01*
X153172D01*
Y37798D01*
X153092D01*
Y37825D01*
X153013D01*
Y37852D01*
X152933D01*
Y37878D01*
X152853D01*
Y37905D01*
X152773D01*
Y37931D01*
X152694D01*
Y37958D01*
X152614D01*
Y37984D01*
X152508D01*
Y38011D01*
X152428D01*
Y38037D01*
X152348D01*
Y38064D01*
X152269D01*
Y38091D01*
X152163D01*
Y38117D01*
X152083D01*
Y38144D01*
X151977D01*
Y38170D01*
X151897D01*
Y38197D01*
X151791D01*
Y38223D01*
X151711D01*
Y38250D01*
X151631D01*
Y38277D01*
X151605D01*
Y38648D01*
X151578D01*
Y38755D01*
X151764D01*
Y38728D01*
X151977D01*
Y38702D01*
X152163D01*
Y38675D01*
X152348D01*
Y38648D01*
X152561D01*
Y39286D01*
X152534D01*
Y39605D01*
X152508D01*
Y39844D01*
X152481D01*
Y40056D01*
X152455D01*
Y40242D01*
X152428D01*
Y40402D01*
X152402D01*
Y40534D01*
X152375D01*
Y40667D01*
X152348D01*
Y40800D01*
X152322D01*
Y40933D01*
X152295D01*
Y41039D01*
X152269D01*
Y41172D01*
X152242D01*
Y41278D01*
X152216D01*
Y41384D01*
X152189D01*
Y41464D01*
X152163D01*
Y41570D01*
X152136D01*
Y41650D01*
X152109D01*
Y41756D01*
X152083D01*
Y41836D01*
X152056D01*
Y41916D01*
X152030D01*
Y41995D01*
X152003D01*
Y42075D01*
X151977D01*
Y42155D01*
X151950D01*
Y42234D01*
X151923D01*
Y42287D01*
X151897D01*
Y42367D01*
X151870D01*
Y42447D01*
X151844D01*
Y42500D01*
X151817D01*
Y42580D01*
X151791D01*
Y42633D01*
X151764D01*
Y42713D01*
X151737D01*
Y42766D01*
X151711D01*
Y42845D01*
X151684D01*
Y42898D01*
X151658D01*
Y42952D01*
X151631D01*
Y43031D01*
X151605D01*
Y43084D01*
X151578D01*
Y43137D01*
X151552D01*
Y43191D01*
X151525D01*
Y43244D01*
X151498D01*
Y43323D01*
X151472D01*
Y43377D01*
X151445D01*
Y43430D01*
X151419D01*
Y43483D01*
X151392D01*
Y43536D01*
X151366D01*
Y43589D01*
X151339D01*
Y43616D01*
X151366D01*
Y43589D01*
D02*
G37*
G36*
X144088Y43509D02*
X144061D01*
Y43430D01*
X144034D01*
Y43377D01*
X144008D01*
Y43323D01*
X143981D01*
Y43270D01*
X143955D01*
Y43217D01*
X143928D01*
Y43164D01*
X143902D01*
Y43111D01*
X143875D01*
Y43031D01*
X143848D01*
Y42978D01*
X143822D01*
Y42952D01*
Y42925D01*
X143795D01*
Y42872D01*
X143769D01*
Y42792D01*
X143742D01*
Y42739D01*
X143716D01*
Y42659D01*
X143689D01*
Y42606D01*
X143663D01*
Y42553D01*
X143636D01*
Y42473D01*
X143609D01*
Y42394D01*
X143583D01*
Y42341D01*
X143556D01*
Y42261D01*
X143530D01*
Y42181D01*
X143503D01*
Y42102D01*
X143477D01*
Y42022D01*
X143450D01*
Y41969D01*
X143423D01*
Y41862D01*
X143397D01*
Y41809D01*
X143370D01*
Y41703D01*
X143344D01*
Y41623D01*
X143317D01*
Y41517D01*
X143291D01*
Y41438D01*
X143264D01*
Y41331D01*
X143237D01*
Y41225D01*
X143211D01*
Y41119D01*
X143184D01*
Y41012D01*
X143158D01*
Y40880D01*
X143131D01*
Y40747D01*
X143105D01*
Y40614D01*
X143078D01*
Y40481D01*
X143052D01*
Y40322D01*
X143025D01*
Y40136D01*
X142998D01*
Y39950D01*
X142972D01*
Y39737D01*
X142945D01*
Y39472D01*
X142919D01*
Y38648D01*
X143105D01*
Y38675D01*
X143317D01*
Y38702D01*
X143503D01*
Y38728D01*
X143689D01*
Y38755D01*
X143875D01*
Y38462D01*
X143848D01*
Y38250D01*
X143742D01*
Y38223D01*
X143663D01*
Y38197D01*
X143556D01*
Y38170D01*
X143477D01*
Y38144D01*
X143370D01*
Y38117D01*
X143291D01*
Y38091D01*
X143211D01*
Y38064D01*
X143105D01*
Y38037D01*
X143025D01*
Y38011D01*
X142945D01*
Y37984D01*
X142839D01*
Y37958D01*
X142759D01*
Y37931D01*
X142680D01*
Y37905D01*
X142600D01*
Y37878D01*
X142520D01*
Y37852D01*
X142441D01*
Y37825D01*
X142361D01*
Y37798D01*
X142281D01*
Y37772D01*
X142202D01*
Y37745D01*
X142122D01*
Y37852D01*
X142148D01*
Y38117D01*
X142175D01*
Y38356D01*
X142202D01*
Y38595D01*
X142228D01*
Y38781D01*
X142255D01*
Y38994D01*
X142281D01*
Y39180D01*
X142308D01*
Y39339D01*
X142334D01*
Y39498D01*
X142361D01*
Y39631D01*
X142387D01*
Y39764D01*
X142414D01*
Y39897D01*
X142441D01*
Y40003D01*
X142467D01*
Y40136D01*
X142494D01*
Y40216D01*
X142520D01*
Y40322D01*
X142547D01*
Y40402D01*
X142573D01*
Y40508D01*
X142600D01*
Y40587D01*
X142627D01*
Y40694D01*
X142653D01*
Y40773D01*
X142680D01*
Y40853D01*
X142706D01*
Y40933D01*
X142733D01*
Y41012D01*
X142759D01*
Y41092D01*
X142786D01*
Y41172D01*
X142813D01*
Y41225D01*
X142839D01*
Y41305D01*
X142866D01*
Y41358D01*
X142892D01*
Y41438D01*
X142919D01*
Y41491D01*
X142945D01*
Y41570D01*
X142972D01*
Y41623D01*
X142998D01*
Y41677D01*
X143025D01*
Y41756D01*
X143052D01*
Y41809D01*
X143078D01*
Y41862D01*
X143105D01*
Y41916D01*
X143131D01*
Y41969D01*
X143158D01*
Y42048D01*
X143184D01*
Y42102D01*
X143211D01*
Y42155D01*
X143237D01*
Y42208D01*
X143264D01*
Y42261D01*
X143291D01*
Y42314D01*
X143317D01*
Y42341D01*
X143344D01*
Y42394D01*
X143370D01*
Y42447D01*
X143397D01*
Y42500D01*
X143423D01*
Y42553D01*
X143450D01*
Y42606D01*
X143477D01*
Y42659D01*
X143503D01*
Y42686D01*
X143530D01*
Y42739D01*
X143556D01*
Y42792D01*
X143583D01*
Y42819D01*
X143609D01*
Y42872D01*
X143636D01*
Y42925D01*
X143663D01*
Y42952D01*
X143689D01*
Y43005D01*
X143716D01*
Y43058D01*
X143742D01*
Y43084D01*
X143769D01*
Y43137D01*
X143795D01*
Y43164D01*
X143822D01*
Y43217D01*
X143848D01*
Y43244D01*
X143875D01*
Y43297D01*
X143902D01*
Y43323D01*
X143928D01*
Y43377D01*
X143955D01*
Y43403D01*
X143981D01*
Y43456D01*
X144008D01*
Y43483D01*
X144034D01*
Y43536D01*
X144061D01*
Y43562D01*
X144088D01*
Y43509D01*
D02*
G37*
G36*
X145362Y44572D02*
X145336D01*
Y44519D01*
X145309D01*
Y44439D01*
X145283D01*
Y44386D01*
X145256D01*
Y44306D01*
X145230D01*
Y44253D01*
X145203D01*
Y44173D01*
X145177D01*
Y44094D01*
X145150D01*
Y44041D01*
X145123D01*
Y43961D01*
X145097D01*
Y43881D01*
X145070D01*
Y43802D01*
X145044D01*
Y43722D01*
X145017D01*
Y43642D01*
X144991D01*
Y43562D01*
X144964D01*
Y43483D01*
X144938D01*
Y43403D01*
X144911D01*
Y43297D01*
X144884D01*
Y43217D01*
X144858D01*
Y43137D01*
X144831D01*
Y43031D01*
X144805D01*
Y42952D01*
X144778D01*
Y42845D01*
X144752D01*
Y42766D01*
X144725D01*
Y42659D01*
X144698D01*
Y42553D01*
X144672D01*
Y42447D01*
X144645D01*
Y42341D01*
X144619D01*
Y42208D01*
X144592D01*
Y42102D01*
X144566D01*
Y41969D01*
X144539D01*
Y41836D01*
X144512D01*
Y41677D01*
X144486D01*
Y41517D01*
X144459D01*
Y41358D01*
X144433D01*
Y41172D01*
X144406D01*
Y40959D01*
X144380D01*
Y40720D01*
X144353D01*
Y40348D01*
X144327D01*
Y40242D01*
X144380D01*
Y40216D01*
X144433D01*
Y40189D01*
X144486D01*
Y40163D01*
X144566D01*
Y40136D01*
X144619D01*
Y40109D01*
X144698D01*
Y40083D01*
X144752D01*
Y40056D01*
X144831D01*
Y40030D01*
X144911D01*
Y40003D01*
X144964D01*
Y39977D01*
X145044D01*
Y39950D01*
X145123D01*
Y39923D01*
X145203D01*
Y39897D01*
X145283D01*
Y39870D01*
X145362D01*
Y39844D01*
X145442D01*
Y39817D01*
X145522D01*
Y39791D01*
X145628D01*
Y39764D01*
X145708D01*
Y39737D01*
X145788D01*
Y39711D01*
X145894D01*
Y39684D01*
X146000D01*
Y39658D01*
X146133D01*
Y39631D01*
X146239D01*
Y39605D01*
X146292D01*
Y39578D01*
X146345D01*
Y39552D01*
X146372D01*
Y39525D01*
X146398D01*
Y39498D01*
X146425D01*
Y39472D01*
X146478D01*
Y39445D01*
X146505D01*
Y39419D01*
X146531D01*
Y39392D01*
X146558D01*
Y39366D01*
X146611D01*
Y39339D01*
X146637D01*
Y39312D01*
X146691D01*
Y39286D01*
X146717D01*
Y39259D01*
X146744D01*
Y39233D01*
X146797D01*
Y39206D01*
X146877D01*
Y39233D01*
X146903D01*
Y39259D01*
X146956D01*
Y39366D01*
X146930D01*
Y39552D01*
X146956D01*
Y39631D01*
X146983D01*
Y39684D01*
X147009D01*
Y39737D01*
X147036D01*
Y39791D01*
X147063D01*
Y39817D01*
X147089D01*
Y39844D01*
X147116D01*
Y39870D01*
X147142D01*
Y39897D01*
X147169D01*
Y39923D01*
X147195D01*
Y39950D01*
X147222D01*
Y39977D01*
X147248D01*
Y40003D01*
X147275D01*
Y40030D01*
X147302D01*
Y40056D01*
X147355D01*
Y40083D01*
X147381D01*
Y40109D01*
X147434D01*
Y40056D01*
X147408D01*
Y40003D01*
X147381D01*
Y39950D01*
X147355D01*
Y39870D01*
X147328D01*
Y39817D01*
X147302D01*
Y39658D01*
X147328D01*
Y39605D01*
X147408D01*
Y39631D01*
X147487D01*
Y39658D01*
X147567D01*
Y39684D01*
X147886D01*
Y39658D01*
X147992D01*
Y39631D01*
X148072D01*
Y39605D01*
X148125D01*
Y39631D01*
X148152D01*
Y39684D01*
X148178D01*
Y39791D01*
X148152D01*
Y39870D01*
X148125D01*
Y39923D01*
X148098D01*
Y39977D01*
X148072D01*
Y40056D01*
X148045D01*
Y40109D01*
X148072D01*
Y40083D01*
X148125D01*
Y40056D01*
X148152D01*
Y40030D01*
X148205D01*
Y40003D01*
X148231D01*
Y39977D01*
X148258D01*
Y39950D01*
X148284D01*
Y39923D01*
X148311D01*
Y39897D01*
X148337D01*
Y39870D01*
X148364D01*
Y39844D01*
X148391D01*
Y39817D01*
X148417D01*
Y39764D01*
X148444D01*
Y39737D01*
X148470D01*
Y39684D01*
X148497D01*
Y39605D01*
X148523D01*
Y39472D01*
X148550D01*
Y39392D01*
X148523D01*
Y39312D01*
X148497D01*
Y39286D01*
X148523D01*
Y39259D01*
X148577D01*
Y39233D01*
X148603D01*
Y39206D01*
X148683D01*
Y39233D01*
X148709D01*
Y39259D01*
X148763D01*
Y39286D01*
X148789D01*
Y39312D01*
X148816D01*
Y39339D01*
X148869D01*
Y39366D01*
X148895D01*
Y39392D01*
X148922D01*
Y39419D01*
X148975D01*
Y39445D01*
X149002D01*
Y39472D01*
X149028D01*
Y39498D01*
X149055D01*
Y39525D01*
X149108D01*
Y39552D01*
X149134D01*
Y39578D01*
X149161D01*
Y39605D01*
X149214D01*
Y39631D01*
X149320D01*
Y39658D01*
X149427D01*
Y39684D01*
X149559D01*
Y39711D01*
X149666D01*
Y39737D01*
X149745D01*
Y39764D01*
X149852D01*
Y39791D01*
X149931D01*
Y39817D01*
X150011D01*
Y39844D01*
X150117D01*
Y39870D01*
X150197D01*
Y39897D01*
X150277D01*
Y39923D01*
X150356D01*
Y39950D01*
X150409D01*
Y39977D01*
X150489D01*
Y40003D01*
X150569D01*
Y40030D01*
X150648D01*
Y40056D01*
X150702D01*
Y40083D01*
X150781D01*
Y40109D01*
X150861D01*
Y40136D01*
X150914D01*
Y40163D01*
X150994D01*
Y40189D01*
X151047D01*
Y40216D01*
X151100D01*
Y40242D01*
X151127D01*
Y40534D01*
X151100D01*
Y40827D01*
X151073D01*
Y41066D01*
X151047D01*
Y41252D01*
X151020D01*
Y41438D01*
X150994D01*
Y41597D01*
X150967D01*
Y41730D01*
X150941D01*
Y41862D01*
X150914D01*
Y42022D01*
X150888D01*
Y42128D01*
X150861D01*
Y42261D01*
X150834D01*
Y42367D01*
X150808D01*
Y42473D01*
X150781D01*
Y42580D01*
X150755D01*
Y42686D01*
X150728D01*
Y42792D01*
X150702D01*
Y42898D01*
X150675D01*
Y42978D01*
X150648D01*
Y43084D01*
X150622D01*
Y43164D01*
X150595D01*
Y43270D01*
X150569D01*
Y43350D01*
X150542D01*
Y43430D01*
X150516D01*
Y43536D01*
X150489D01*
Y43616D01*
X150462D01*
Y43695D01*
X150436D01*
Y43775D01*
X150409D01*
Y43855D01*
X150383D01*
Y43934D01*
X150356D01*
Y43988D01*
X150330D01*
Y44067D01*
X150303D01*
Y44147D01*
X150277D01*
Y44227D01*
X150250D01*
Y44306D01*
X150223D01*
Y44359D01*
X150197D01*
Y44439D01*
X150170D01*
Y44492D01*
X150144D01*
Y44572D01*
X150117D01*
Y44598D01*
X150144D01*
Y44572D01*
X150170D01*
Y44519D01*
X150197D01*
Y44492D01*
X150223D01*
Y44439D01*
X150250D01*
Y44386D01*
X150277D01*
Y44359D01*
X150303D01*
Y44306D01*
X150330D01*
Y44253D01*
X150356D01*
Y44200D01*
X150383D01*
Y44147D01*
X150409D01*
Y44120D01*
X150436D01*
Y44067D01*
X150462D01*
Y44014D01*
X150489D01*
Y43961D01*
X150516D01*
Y43908D01*
X150542D01*
Y43855D01*
X150569D01*
Y43802D01*
X150595D01*
Y43748D01*
X150622D01*
Y43695D01*
X150648D01*
Y43642D01*
X150675D01*
Y43589D01*
X150702D01*
Y43536D01*
X150728D01*
Y43483D01*
X150755D01*
Y43430D01*
X150781D01*
Y43377D01*
X150808D01*
Y43297D01*
X150834D01*
Y43244D01*
X150861D01*
Y43191D01*
X150888D01*
Y43111D01*
X150914D01*
Y43058D01*
X150941D01*
Y43005D01*
X150967D01*
Y42925D01*
X150994D01*
Y42872D01*
X151020D01*
Y42792D01*
X151047D01*
Y42739D01*
X151073D01*
Y42659D01*
X151100D01*
Y42606D01*
X151127D01*
Y42527D01*
X151153D01*
Y42447D01*
X151180D01*
Y42394D01*
X151206D01*
Y42314D01*
X151233D01*
Y42234D01*
X151259D01*
Y42155D01*
X151286D01*
Y42075D01*
X151312D01*
Y41995D01*
X151339D01*
Y41889D01*
X151366D01*
Y41809D01*
X151392D01*
Y41703D01*
X151419D01*
Y41623D01*
X151445D01*
Y41544D01*
X151472D01*
Y41438D01*
X151498D01*
Y41331D01*
X151525D01*
Y41225D01*
X151552D01*
Y41119D01*
X151578D01*
Y41012D01*
X151605D01*
Y40906D01*
X151631D01*
Y40773D01*
X151658D01*
Y40667D01*
X151684D01*
Y40534D01*
X151711D01*
Y40402D01*
X151737D01*
Y40295D01*
X151764D01*
Y40163D01*
X151791D01*
Y40003D01*
X151817D01*
Y39870D01*
X151844D01*
Y39737D01*
X151658D01*
Y39711D01*
X151419D01*
Y39684D01*
X151233D01*
Y39658D01*
X151073D01*
Y39631D01*
X150914D01*
Y39605D01*
X150781D01*
Y39578D01*
X150648D01*
Y39552D01*
X150542D01*
Y39525D01*
X150409D01*
Y39498D01*
X150277D01*
Y39472D01*
X150170D01*
Y39445D01*
X150064D01*
Y39419D01*
X149958D01*
Y39392D01*
X149852D01*
Y39366D01*
X149772D01*
Y39339D01*
X149692D01*
Y39312D01*
X149612D01*
Y39286D01*
X149559D01*
Y39259D01*
X149506D01*
Y39233D01*
X149453D01*
Y39206D01*
X149427D01*
Y39180D01*
X149373D01*
Y39153D01*
X149347D01*
Y39127D01*
X149294D01*
Y39100D01*
X149267D01*
Y39073D01*
X149241D01*
Y39047D01*
X149188D01*
Y39020D01*
X149161D01*
Y38994D01*
X149134D01*
Y38967D01*
X149108D01*
Y38941D01*
X149081D01*
Y38914D01*
X149028D01*
Y38888D01*
X149002D01*
Y38861D01*
X148975D01*
Y38834D01*
X148948D01*
Y38808D01*
X148922D01*
Y38781D01*
X148948D01*
Y38728D01*
X148975D01*
Y38675D01*
X149002D01*
Y38622D01*
X148975D01*
Y38595D01*
X148948D01*
Y38569D01*
X148922D01*
Y38542D01*
X148895D01*
Y38516D01*
X148869D01*
Y38489D01*
X148842D01*
Y38462D01*
X148816D01*
Y38436D01*
X148789D01*
Y38409D01*
X148763D01*
Y38383D01*
X148736D01*
Y38356D01*
X148709D01*
Y38330D01*
X148683D01*
Y38303D01*
X148656D01*
Y38277D01*
X148630D01*
Y38250D01*
X148603D01*
Y38223D01*
X148577D01*
Y38197D01*
X148550D01*
Y38170D01*
X148523D01*
Y38144D01*
X148497D01*
Y38117D01*
X148470D01*
Y38091D01*
X148444D01*
Y38064D01*
X148417D01*
Y38037D01*
X148391D01*
Y38011D01*
X148364D01*
Y37984D01*
X148337D01*
Y37958D01*
X148311D01*
Y37931D01*
X148284D01*
Y37905D01*
X148258D01*
Y37878D01*
X148231D01*
Y37852D01*
X148205D01*
Y37825D01*
X148178D01*
Y37798D01*
X148152D01*
Y37772D01*
X148125D01*
Y37745D01*
X148072D01*
Y37719D01*
X148045D01*
Y37692D01*
X148019D01*
Y37639D01*
X147966D01*
Y37613D01*
X147939D01*
Y37586D01*
X147913D01*
Y37559D01*
X147886D01*
Y37533D01*
X147859D01*
Y37506D01*
X147833D01*
Y37480D01*
X147806D01*
Y37453D01*
X147780D01*
Y37427D01*
X147753D01*
Y37400D01*
X147700D01*
Y37427D01*
X147673D01*
Y37453D01*
X147647D01*
Y37480D01*
X147620D01*
Y37506D01*
X147594D01*
Y37533D01*
X147567D01*
Y37559D01*
X147541D01*
Y37586D01*
X147514D01*
Y37613D01*
X147487D01*
Y37639D01*
X147461D01*
Y37666D01*
X147434D01*
Y37692D01*
X147408D01*
Y37719D01*
X147381D01*
Y37745D01*
X147355D01*
Y37772D01*
X147328D01*
Y37798D01*
X147302D01*
Y37825D01*
X147275D01*
Y37852D01*
X147248D01*
Y37878D01*
X147222D01*
Y37905D01*
X147195D01*
Y37931D01*
X147169D01*
Y37958D01*
X147142D01*
Y37984D01*
X147089D01*
Y38011D01*
X147063D01*
Y38037D01*
X147036D01*
Y38064D01*
X147009D01*
Y38091D01*
X146983D01*
Y38117D01*
X146956D01*
Y38144D01*
X146930D01*
Y38170D01*
X146903D01*
Y38197D01*
X146877D01*
Y38223D01*
X146850D01*
Y38250D01*
X146823D01*
Y38277D01*
X146797D01*
Y38303D01*
X146770D01*
Y38330D01*
X146744D01*
Y38356D01*
X146717D01*
Y38383D01*
X146691D01*
Y38409D01*
X146664D01*
Y38436D01*
X146637D01*
Y38462D01*
X146611D01*
Y38489D01*
X146584D01*
Y38516D01*
X146558D01*
Y38542D01*
X146531D01*
Y38569D01*
X146505D01*
Y38595D01*
X146478D01*
Y38622D01*
X146452D01*
Y38675D01*
X146478D01*
Y38702D01*
X146505D01*
Y38755D01*
X146531D01*
Y38834D01*
X146505D01*
Y38861D01*
X146452D01*
Y38888D01*
X146425D01*
Y38914D01*
X146398D01*
Y38941D01*
X146372D01*
Y38967D01*
X146319D01*
Y38994D01*
X146292D01*
Y39020D01*
X146266D01*
Y39047D01*
X146212D01*
Y39073D01*
X146186D01*
Y39100D01*
X146159D01*
Y39127D01*
X146106D01*
Y39153D01*
X146080D01*
Y39180D01*
X146053D01*
Y39206D01*
X146000D01*
Y39233D01*
X145973D01*
Y39259D01*
X145920D01*
Y39286D01*
X145867D01*
Y39312D01*
X145788D01*
Y39339D01*
X145708D01*
Y39366D01*
X145602D01*
Y39392D01*
X145522D01*
Y39419D01*
X145416D01*
Y39445D01*
X145309D01*
Y39472D01*
X145203D01*
Y39498D01*
X145070D01*
Y39525D01*
X144964D01*
Y39552D01*
X144831D01*
Y39578D01*
X144698D01*
Y39605D01*
X144566D01*
Y39631D01*
X144406D01*
Y39658D01*
X144247D01*
Y39684D01*
X144061D01*
Y39711D01*
X143848D01*
Y39737D01*
X143636D01*
Y39764D01*
X143609D01*
Y39817D01*
X143636D01*
Y39977D01*
X143663D01*
Y40109D01*
X143689D01*
Y40269D01*
X143716D01*
Y40375D01*
X143742D01*
Y40508D01*
X143769D01*
Y40641D01*
X143795D01*
Y40747D01*
X143822D01*
Y40880D01*
X143848D01*
Y40986D01*
X143875D01*
Y41092D01*
X143902D01*
Y41198D01*
X143928D01*
Y41305D01*
X143955D01*
Y41411D01*
X143981D01*
Y41517D01*
X144008D01*
Y41597D01*
X144034D01*
Y41703D01*
X144061D01*
Y41783D01*
X144088D01*
Y41889D01*
X144114D01*
Y41969D01*
X144141D01*
Y42048D01*
X144167D01*
Y42128D01*
X144194D01*
Y42208D01*
X144220D01*
Y42287D01*
X144247D01*
Y42367D01*
X144273D01*
Y42447D01*
X144300D01*
Y42500D01*
X144327D01*
Y42580D01*
X144353D01*
Y42659D01*
X144380D01*
Y42713D01*
X144406D01*
Y42792D01*
X144433D01*
Y42845D01*
X144459D01*
Y42925D01*
X144486D01*
Y42978D01*
X144512D01*
Y43058D01*
X144539D01*
Y43111D01*
X144566D01*
Y43164D01*
X144592D01*
Y43244D01*
X144619D01*
Y43297D01*
X144645D01*
Y43350D01*
X144672D01*
Y43403D01*
X144698D01*
Y43456D01*
X144725D01*
Y43509D01*
X144752D01*
Y43562D01*
X144778D01*
Y43616D01*
X144805D01*
Y43669D01*
X144831D01*
Y43722D01*
X144858D01*
Y43775D01*
X144884D01*
Y43828D01*
X144911D01*
Y43881D01*
X144938D01*
Y43934D01*
X144964D01*
Y43988D01*
X144991D01*
Y44041D01*
X145017D01*
Y44094D01*
X145044D01*
Y44120D01*
X145070D01*
Y44173D01*
X145097D01*
Y44227D01*
X145123D01*
Y44280D01*
X145150D01*
Y44306D01*
X145177D01*
Y44359D01*
X145203D01*
Y44412D01*
X145230D01*
Y44466D01*
X145256D01*
Y44492D01*
X145283D01*
Y44545D01*
X145309D01*
Y44598D01*
X145336D01*
Y44625D01*
X145362D01*
Y44572D01*
D02*
G37*
G36*
X151100Y38941D02*
X151127D01*
Y38648D01*
X151153D01*
Y38383D01*
X151180D01*
Y37984D01*
X151206D01*
Y37506D01*
X151233D01*
Y36789D01*
X151259D01*
Y34983D01*
X151233D01*
Y34345D01*
X151206D01*
Y33867D01*
X151180D01*
Y33495D01*
X151153D01*
Y33203D01*
X151127D01*
Y32884D01*
X151100D01*
Y32645D01*
X151073D01*
Y32406D01*
X151047D01*
Y32194D01*
X151020D01*
Y31981D01*
X150994D01*
Y31795D01*
X150967D01*
Y31609D01*
X150941D01*
Y31450D01*
X150914D01*
Y31264D01*
X150888D01*
Y31105D01*
X150861D01*
Y30972D01*
X150834D01*
Y30812D01*
X150808D01*
Y30680D01*
X150781D01*
Y30547D01*
X150755D01*
Y30414D01*
X150728D01*
Y30308D01*
X150702D01*
Y30202D01*
X150675D01*
Y30095D01*
X150648D01*
Y29963D01*
X150622D01*
Y29883D01*
X150595D01*
Y29777D01*
X150569D01*
Y29670D01*
X150542D01*
Y29564D01*
X150516D01*
Y29484D01*
X150489D01*
Y29378D01*
X150462D01*
Y29272D01*
X150436D01*
Y29192D01*
X150409D01*
Y29112D01*
X150383D01*
Y29033D01*
X150356D01*
Y28927D01*
X150330D01*
Y28847D01*
X150303D01*
Y28767D01*
X150277D01*
Y28688D01*
X150250D01*
Y28608D01*
X150223D01*
Y28528D01*
X150197D01*
Y28448D01*
X150170D01*
Y28369D01*
X150144D01*
Y28316D01*
X150117D01*
Y28236D01*
X150091D01*
Y28156D01*
X150064D01*
Y28103D01*
X150038D01*
Y28023D01*
X150011D01*
Y27970D01*
X149984D01*
Y27891D01*
X149958D01*
Y27837D01*
X149931D01*
Y27758D01*
X149905D01*
Y27705D01*
X149878D01*
Y27652D01*
X149852D01*
Y27598D01*
X149825D01*
Y27519D01*
X149798D01*
Y27466D01*
X149772D01*
Y27413D01*
X149745D01*
Y27359D01*
X149719D01*
Y27306D01*
X149692D01*
Y27227D01*
X149666D01*
Y27173D01*
X149639D01*
Y27120D01*
X149612D01*
Y27067D01*
X149586D01*
Y27173D01*
X149612D01*
Y27253D01*
X149639D01*
Y27359D01*
X149666D01*
Y27439D01*
X149692D01*
Y27545D01*
X149719D01*
Y27625D01*
X149745D01*
Y27731D01*
X149772D01*
Y27837D01*
X149798D01*
Y27917D01*
X149825D01*
Y28023D01*
X149852D01*
Y28130D01*
X149878D01*
Y28262D01*
X149905D01*
Y28369D01*
X149931D01*
Y28475D01*
X149958D01*
Y28608D01*
X149984D01*
Y28741D01*
X150011D01*
Y28873D01*
X150038D01*
Y29006D01*
X150064D01*
Y29166D01*
X150091D01*
Y29325D01*
X150117D01*
Y29484D01*
X150144D01*
Y29644D01*
X150170D01*
Y29803D01*
X150197D01*
Y29989D01*
X150223D01*
Y30202D01*
X150250D01*
Y30387D01*
X150277D01*
Y30627D01*
X150303D01*
Y30892D01*
X150330D01*
Y31184D01*
X150356D01*
Y31530D01*
X150383D01*
Y31928D01*
X150409D01*
Y32486D01*
X150436D01*
Y34531D01*
X150409D01*
Y35169D01*
X150383D01*
Y35594D01*
X150356D01*
Y35939D01*
X150330D01*
Y36258D01*
X150303D01*
Y36523D01*
X150277D01*
Y36736D01*
X150250D01*
Y36948D01*
X150223D01*
Y37161D01*
X150197D01*
Y37320D01*
X150170D01*
Y37480D01*
X150144D01*
Y37639D01*
X150117D01*
Y37798D01*
X150064D01*
Y37772D01*
X150038D01*
Y37745D01*
X150011D01*
Y37719D01*
X149984D01*
Y37692D01*
X149958D01*
Y37666D01*
X149931D01*
Y37639D01*
X149905D01*
Y37613D01*
X149878D01*
Y37586D01*
X149852D01*
Y37559D01*
X149825D01*
Y37533D01*
X149798D01*
Y37506D01*
X149772D01*
Y37480D01*
X149745D01*
Y37453D01*
X149719D01*
Y37427D01*
X149692D01*
Y37400D01*
X149666D01*
Y37373D01*
X149639D01*
Y37347D01*
X149612D01*
Y37320D01*
X149586D01*
Y37294D01*
X149533D01*
Y37241D01*
X149506D01*
Y37214D01*
X149453D01*
Y37187D01*
X149427D01*
Y37161D01*
X149400D01*
Y37134D01*
X149373D01*
Y37108D01*
X149347D01*
Y37081D01*
X149320D01*
Y37055D01*
X149294D01*
Y37028D01*
X149267D01*
Y37002D01*
X149241D01*
Y36975D01*
X149214D01*
Y36948D01*
X149188D01*
Y36922D01*
X149161D01*
Y36895D01*
X149134D01*
Y36869D01*
X149108D01*
Y36842D01*
X149081D01*
Y36816D01*
X149055D01*
Y36789D01*
X149028D01*
Y36762D01*
X149002D01*
Y36736D01*
X148975D01*
Y36709D01*
X148948D01*
Y36683D01*
X148922D01*
Y36656D01*
X148895D01*
Y36630D01*
X148869D01*
Y36603D01*
X148816D01*
Y36577D01*
X148789D01*
Y36550D01*
X148763D01*
Y36523D01*
X148736D01*
Y36497D01*
X148709D01*
Y36470D01*
X148683D01*
Y36444D01*
X148656D01*
Y36417D01*
X148630D01*
Y36391D01*
X148603D01*
Y36364D01*
X148577D01*
Y36338D01*
X148550D01*
Y36311D01*
X148523D01*
Y36284D01*
X148497D01*
Y36258D01*
X148470D01*
Y36231D01*
X148444D01*
Y36205D01*
X148417D01*
Y36178D01*
X148391D01*
Y36152D01*
X148364D01*
Y36125D01*
X148337D01*
Y36098D01*
X148311D01*
Y36072D01*
X148284D01*
Y36045D01*
X148258D01*
Y36019D01*
X148231D01*
Y35992D01*
X148205D01*
Y35966D01*
X148178D01*
Y35939D01*
X148152D01*
Y35912D01*
X148098D01*
Y35886D01*
X148072D01*
Y35859D01*
X148045D01*
Y35833D01*
X148019D01*
Y35806D01*
X147992D01*
Y35780D01*
X147966D01*
Y35753D01*
X147939D01*
Y35727D01*
X147913D01*
Y35700D01*
X147886D01*
Y35673D01*
X147859D01*
Y35647D01*
X147833D01*
Y35620D01*
X147806D01*
Y35594D01*
X147780D01*
Y35567D01*
X147753D01*
Y35541D01*
X147700D01*
Y35567D01*
X147673D01*
Y35594D01*
X147647D01*
Y35620D01*
X147620D01*
Y35647D01*
X147594D01*
Y35673D01*
X147567D01*
Y35700D01*
X147541D01*
Y35727D01*
X147514D01*
Y35753D01*
X147487D01*
Y35780D01*
X147461D01*
Y35806D01*
X147434D01*
Y35833D01*
X147408D01*
Y35859D01*
X147381D01*
Y35886D01*
X147355D01*
Y35912D01*
X147328D01*
Y35939D01*
X147302D01*
Y35966D01*
X147275D01*
Y35992D01*
X147248D01*
Y36019D01*
X147222D01*
Y36045D01*
X147195D01*
Y36072D01*
X147142D01*
Y36098D01*
X147116D01*
Y36152D01*
X147063D01*
Y36178D01*
X147036D01*
Y36205D01*
X147009D01*
Y36231D01*
X146983D01*
Y36258D01*
X146956D01*
Y36284D01*
X146930D01*
Y36311D01*
X146903D01*
Y36338D01*
X146877D01*
Y36364D01*
X146850D01*
Y36391D01*
X146823D01*
Y36417D01*
X146797D01*
Y36444D01*
X146770D01*
Y36470D01*
X146744D01*
Y36497D01*
X146717D01*
Y36523D01*
X146691D01*
Y36550D01*
X146664D01*
Y36577D01*
X146637D01*
Y36603D01*
X146611D01*
Y36630D01*
X146584D01*
Y36656D01*
X146558D01*
Y36683D01*
X146531D01*
Y36709D01*
X146505D01*
Y36736D01*
X146478D01*
Y36762D01*
X146452D01*
Y36789D01*
X146425D01*
Y36816D01*
X146372D01*
Y36842D01*
X146345D01*
Y36869D01*
X146319D01*
Y36895D01*
X146292D01*
Y36922D01*
X146266D01*
Y36948D01*
X146239D01*
Y36975D01*
X146212D01*
Y37002D01*
X146186D01*
Y37028D01*
X146159D01*
Y37055D01*
X146133D01*
Y37081D01*
X146106D01*
Y37108D01*
X146080D01*
Y37134D01*
X146053D01*
Y37161D01*
X146027D01*
Y37187D01*
X146000D01*
Y37214D01*
X145973D01*
Y37241D01*
X145947D01*
Y37267D01*
X145920D01*
Y37294D01*
X145894D01*
Y37320D01*
X145867D01*
Y37347D01*
X145841D01*
Y37373D01*
X145814D01*
Y37400D01*
X145788D01*
Y37427D01*
X145761D01*
Y37453D01*
X145734D01*
Y37480D01*
X145708D01*
Y37506D01*
X145681D01*
Y37533D01*
X145655D01*
Y37559D01*
X145628D01*
Y37586D01*
X145602D01*
Y37613D01*
X145575D01*
Y37639D01*
X145548D01*
Y37666D01*
X145522D01*
Y37692D01*
X145469D01*
Y37719D01*
X145442D01*
Y37745D01*
X145416D01*
Y37772D01*
X145389D01*
Y37798D01*
X145362D01*
Y37719D01*
X145336D01*
Y37559D01*
X145309D01*
Y37400D01*
X145283D01*
Y37214D01*
X145256D01*
Y37028D01*
X145230D01*
Y36816D01*
X145203D01*
Y36603D01*
X145177D01*
Y36338D01*
X145150D01*
Y36045D01*
X145123D01*
Y35700D01*
X145097D01*
Y35275D01*
X145070D01*
Y34770D01*
X145044D01*
Y32353D01*
X145070D01*
Y31848D01*
X145097D01*
Y31450D01*
X145123D01*
Y31158D01*
X145150D01*
Y30866D01*
X145177D01*
Y30627D01*
X145203D01*
Y30387D01*
X145230D01*
Y30175D01*
X145256D01*
Y29989D01*
X145283D01*
Y29803D01*
X145309D01*
Y29617D01*
X145336D01*
Y29458D01*
X145362D01*
Y29298D01*
X145389D01*
Y29139D01*
X145416D01*
Y29006D01*
X145442D01*
Y28873D01*
X145469D01*
Y28741D01*
X145495D01*
Y28608D01*
X145522D01*
Y28502D01*
X145548D01*
Y28369D01*
X145575D01*
Y28262D01*
X145602D01*
Y28130D01*
X145628D01*
Y28023D01*
X145655D01*
Y27917D01*
X145681D01*
Y27811D01*
X145708D01*
Y27705D01*
X145734D01*
Y27625D01*
X145761D01*
Y27519D01*
X145788D01*
Y27413D01*
X145814D01*
Y27333D01*
X145841D01*
Y27253D01*
X145867D01*
Y27147D01*
X145894D01*
Y27041D01*
X145920D01*
Y27014D01*
X145894D01*
Y27041D01*
X145867D01*
Y27094D01*
X145841D01*
Y27147D01*
X145814D01*
Y27227D01*
X145788D01*
Y27280D01*
X145761D01*
Y27333D01*
X145734D01*
Y27386D01*
X145708D01*
Y27439D01*
X145681D01*
Y27519D01*
X145655D01*
Y27572D01*
X145628D01*
Y27625D01*
X145602D01*
Y27705D01*
X145575D01*
Y27758D01*
X145548D01*
Y27811D01*
X145522D01*
Y27891D01*
X145495D01*
Y27944D01*
X145469D01*
Y27997D01*
X145442D01*
Y28077D01*
X145416D01*
Y28156D01*
X145389D01*
Y28209D01*
X145362D01*
Y28289D01*
X145336D01*
Y28369D01*
X145309D01*
Y28448D01*
X145283D01*
Y28502D01*
X145256D01*
Y28581D01*
X145230D01*
Y28661D01*
X145203D01*
Y28741D01*
X145177D01*
Y28820D01*
X145150D01*
Y28900D01*
X145123D01*
Y28980D01*
X145097D01*
Y29059D01*
X145070D01*
Y29139D01*
X145044D01*
Y29245D01*
X145017D01*
Y29325D01*
X144991D01*
Y29431D01*
X144964D01*
Y29537D01*
X144938D01*
Y29617D01*
X144911D01*
Y29723D01*
X144884D01*
Y29830D01*
X144858D01*
Y29936D01*
X144831D01*
Y30042D01*
X144805D01*
Y30175D01*
X144778D01*
Y30281D01*
X144752D01*
Y30387D01*
X144725D01*
Y30520D01*
X144698D01*
Y30627D01*
X144672D01*
Y30759D01*
X144645D01*
Y30892D01*
X144619D01*
Y31052D01*
X144592D01*
Y31211D01*
X144566D01*
Y31370D01*
X144539D01*
Y31530D01*
X144512D01*
Y31716D01*
X144486D01*
Y31902D01*
X144459D01*
Y32087D01*
X144433D01*
Y32300D01*
X144406D01*
Y32513D01*
X144380D01*
Y32778D01*
X144353D01*
Y33070D01*
X144327D01*
Y33389D01*
X144300D01*
Y33734D01*
X144273D01*
Y34186D01*
X144247D01*
Y34744D01*
X144220D01*
Y37161D01*
X144247D01*
Y37745D01*
X144273D01*
Y38170D01*
X144300D01*
Y38516D01*
X144327D01*
Y38834D01*
X144353D01*
Y39020D01*
X145495D01*
Y38994D01*
X145522D01*
Y38967D01*
X145548D01*
Y38941D01*
X145575D01*
Y38914D01*
X145602D01*
Y38888D01*
X145628D01*
Y38861D01*
X145655D01*
Y38834D01*
X145681D01*
Y38808D01*
X145708D01*
Y38781D01*
X145734D01*
Y38755D01*
X145761D01*
Y38728D01*
X145788D01*
Y38702D01*
X145814D01*
Y38675D01*
X145841D01*
Y38648D01*
X145867D01*
Y38622D01*
X145894D01*
Y38595D01*
X145920D01*
Y38569D01*
X145947D01*
Y38542D01*
X145973D01*
Y38516D01*
X146000D01*
Y38489D01*
X146027D01*
Y38462D01*
X146053D01*
Y38436D01*
X146080D01*
Y38409D01*
X146106D01*
Y38383D01*
X146133D01*
Y38356D01*
X146159D01*
Y38330D01*
X146186D01*
Y38303D01*
X146212D01*
Y38277D01*
X146239D01*
Y38250D01*
X146266D01*
Y38223D01*
X146292D01*
Y38197D01*
X146319D01*
Y38170D01*
X146345D01*
Y38144D01*
X146372D01*
Y38117D01*
X146398D01*
Y38091D01*
X146425D01*
Y38064D01*
X146452D01*
Y38037D01*
X146478D01*
Y38011D01*
X146505D01*
Y37984D01*
X146531D01*
Y37958D01*
X146558D01*
Y37931D01*
X146584D01*
Y37905D01*
X146611D01*
Y37878D01*
X146637D01*
Y37852D01*
X146664D01*
Y37825D01*
X146691D01*
Y37798D01*
X146717D01*
Y37772D01*
X146770D01*
Y37745D01*
X146797D01*
Y37719D01*
X146823D01*
Y37692D01*
X146850D01*
Y37666D01*
X146877D01*
Y37639D01*
X146903D01*
Y37613D01*
X146930D01*
Y37586D01*
X146956D01*
Y37559D01*
X146983D01*
Y37533D01*
X147009D01*
Y37506D01*
X147036D01*
Y37480D01*
X147063D01*
Y37453D01*
X147089D01*
Y37427D01*
X147116D01*
Y37400D01*
X147142D01*
Y37373D01*
X147169D01*
Y37347D01*
X147195D01*
Y37320D01*
X147222D01*
Y37294D01*
X147248D01*
Y37267D01*
X147275D01*
Y37241D01*
X147302D01*
Y37214D01*
X147328D01*
Y37187D01*
X147355D01*
Y37161D01*
X147381D01*
Y37134D01*
X147408D01*
Y37108D01*
X147434D01*
Y37081D01*
X147461D01*
Y37055D01*
X147487D01*
Y37028D01*
X147514D01*
Y37002D01*
X147541D01*
Y36975D01*
X147567D01*
Y36948D01*
X147594D01*
Y36922D01*
X147620D01*
Y36895D01*
X147647D01*
Y36869D01*
X147673D01*
Y36842D01*
X147700D01*
Y36816D01*
X147753D01*
Y36842D01*
X147780D01*
Y36869D01*
X147806D01*
Y36895D01*
X147833D01*
Y36922D01*
X147859D01*
Y36948D01*
X147886D01*
Y36975D01*
X147913D01*
Y37002D01*
X147966D01*
Y37028D01*
X147992D01*
Y37055D01*
X148019D01*
Y37081D01*
X148045D01*
Y37108D01*
X148072D01*
Y37134D01*
X148098D01*
Y37161D01*
X148125D01*
Y37187D01*
X148152D01*
Y37214D01*
X148178D01*
Y37241D01*
X148205D01*
Y37267D01*
X148231D01*
Y37294D01*
X148258D01*
Y37320D01*
X148284D01*
Y37347D01*
X148311D01*
Y37373D01*
X148337D01*
Y37400D01*
X148364D01*
Y37427D01*
X148391D01*
Y37453D01*
X148417D01*
Y37480D01*
X148444D01*
Y37506D01*
X148470D01*
Y37533D01*
X148497D01*
Y37559D01*
X148523D01*
Y37586D01*
X148550D01*
Y37613D01*
X148577D01*
Y37639D01*
X148603D01*
Y37666D01*
X148630D01*
Y37692D01*
X148656D01*
Y37719D01*
X148683D01*
Y37745D01*
X148709D01*
Y37772D01*
X148736D01*
Y37798D01*
X148763D01*
Y37825D01*
X148789D01*
Y37852D01*
X148816D01*
Y37878D01*
X148842D01*
Y37905D01*
X148869D01*
Y37931D01*
X148922D01*
Y37958D01*
X148948D01*
Y37984D01*
X148975D01*
Y38011D01*
X149002D01*
Y38037D01*
X149028D01*
Y38064D01*
X149055D01*
Y38091D01*
X149081D01*
Y38117D01*
X149108D01*
Y38144D01*
X149134D01*
Y38170D01*
X149161D01*
Y38197D01*
X149188D01*
Y38223D01*
X149214D01*
Y38250D01*
X149241D01*
Y38277D01*
X149267D01*
Y38303D01*
X149294D01*
Y38330D01*
X149320D01*
Y38356D01*
X149347D01*
Y38383D01*
X149373D01*
Y38409D01*
X149400D01*
Y38436D01*
X149427D01*
Y38462D01*
X149453D01*
Y38489D01*
X149480D01*
Y38516D01*
X149506D01*
Y38542D01*
X149533D01*
Y38569D01*
X149559D01*
Y38595D01*
X149586D01*
Y38622D01*
X149612D01*
Y38648D01*
X149639D01*
Y38675D01*
X149666D01*
Y38702D01*
X149692D01*
Y38728D01*
X149719D01*
Y38755D01*
X149745D01*
Y38781D01*
X149772D01*
Y38808D01*
X149798D01*
Y38834D01*
X149825D01*
Y38861D01*
X149852D01*
Y38888D01*
X149878D01*
Y38914D01*
X149905D01*
Y38941D01*
X149931D01*
Y38967D01*
X149958D01*
Y38994D01*
X149984D01*
Y39020D01*
X151100D01*
Y38941D01*
D02*
G37*
G36*
X143795Y36683D02*
X143769D01*
Y36656D01*
X143742D01*
Y36630D01*
X143689D01*
Y36603D01*
X143663D01*
Y36577D01*
X143636D01*
Y36550D01*
X143583D01*
Y36523D01*
X143556D01*
Y36497D01*
X143530D01*
Y36470D01*
X143477D01*
Y36444D01*
X143450D01*
Y36417D01*
X143423D01*
Y36391D01*
X143370D01*
Y36364D01*
X143344D01*
Y36338D01*
X143317D01*
Y36311D01*
X143264D01*
Y36284D01*
X143237D01*
Y36258D01*
X143184D01*
Y36231D01*
X143158D01*
Y36205D01*
X143131D01*
Y36178D01*
X143078D01*
Y36152D01*
X143052D01*
Y36125D01*
X143025D01*
Y36098D01*
X142972D01*
Y36072D01*
X142945D01*
Y36045D01*
X142919D01*
Y36019D01*
X142892D01*
Y35992D01*
X142866D01*
Y35966D01*
X142839D01*
Y35939D01*
X142813D01*
Y35912D01*
X142786D01*
Y35886D01*
X142759D01*
Y35859D01*
X142733D01*
Y35833D01*
X142706D01*
Y35806D01*
X142680D01*
Y35727D01*
X142653D01*
Y35408D01*
Y35381D01*
Y34637D01*
X142680D01*
Y34212D01*
X142706D01*
Y33920D01*
X142733D01*
Y33681D01*
X142759D01*
Y33495D01*
X142786D01*
Y33309D01*
X142813D01*
Y33150D01*
X142839D01*
Y33017D01*
X142866D01*
Y32884D01*
X142892D01*
Y32752D01*
X142919D01*
Y32619D01*
X142945D01*
Y32513D01*
X142972D01*
Y32406D01*
X142998D01*
Y32300D01*
X143025D01*
Y32194D01*
X143052D01*
Y32087D01*
X143078D01*
Y31981D01*
X143105D01*
Y31902D01*
X143131D01*
Y31795D01*
X143158D01*
Y31716D01*
X143184D01*
Y31636D01*
X143211D01*
Y31556D01*
X143237D01*
Y31450D01*
X143264D01*
Y31370D01*
X143291D01*
Y31317D01*
X143317D01*
Y31238D01*
X143344D01*
Y31158D01*
X143370D01*
Y31078D01*
X143397D01*
Y30998D01*
X143423D01*
Y30945D01*
X143450D01*
Y30866D01*
X143477D01*
Y30786D01*
X143503D01*
Y30733D01*
X143530D01*
Y30653D01*
X143556D01*
Y30600D01*
X143583D01*
Y30547D01*
X143609D01*
Y30467D01*
X143583D01*
Y30520D01*
X143556D01*
Y30573D01*
X143530D01*
Y30627D01*
X143503D01*
Y30680D01*
X143477D01*
Y30706D01*
X143450D01*
Y30759D01*
X143423D01*
Y30812D01*
X143397D01*
Y30866D01*
X143370D01*
Y30919D01*
X143344D01*
Y30972D01*
X143317D01*
Y31025D01*
X143291D01*
Y31078D01*
X143264D01*
Y31131D01*
X143237D01*
Y31184D01*
X143211D01*
Y31238D01*
X143184D01*
Y31291D01*
X143158D01*
Y31344D01*
X143131D01*
Y31397D01*
X143105D01*
Y31450D01*
X143078D01*
Y31503D01*
X143052D01*
Y31556D01*
X143025D01*
Y31636D01*
X142998D01*
Y31689D01*
X142972D01*
Y31742D01*
X142945D01*
Y31795D01*
X142919D01*
Y31875D01*
X142892D01*
Y31928D01*
X142866D01*
Y32008D01*
X142839D01*
Y32061D01*
X142813D01*
Y32114D01*
X142786D01*
Y32194D01*
X142759D01*
Y32247D01*
X142733D01*
Y32327D01*
X142706D01*
Y32406D01*
X142680D01*
Y32459D01*
X142653D01*
Y32539D01*
X142627D01*
Y32619D01*
X142600D01*
Y32698D01*
X142573D01*
Y32778D01*
X142547D01*
Y32858D01*
X142520D01*
Y32937D01*
X142494D01*
Y33017D01*
X142467D01*
Y33097D01*
X142441D01*
Y33203D01*
X142414D01*
Y33283D01*
X142387D01*
Y33389D01*
X142361D01*
Y33495D01*
X142334D01*
Y33575D01*
X142308D01*
Y33681D01*
X142281D01*
Y33814D01*
X142255D01*
Y33920D01*
X142228D01*
Y34053D01*
X142202D01*
Y34159D01*
X142175D01*
Y34292D01*
X142148D01*
Y34452D01*
X142122D01*
Y34611D01*
X142095D01*
Y34797D01*
X142069D01*
Y35009D01*
X142042D01*
Y35302D01*
X142016D01*
Y35700D01*
X141989D01*
Y36523D01*
X142042D01*
Y36497D01*
X142095D01*
Y36470D01*
X142148D01*
Y36444D01*
X142228D01*
Y36417D01*
X142387D01*
Y36444D01*
X142467D01*
Y36470D01*
X142520D01*
Y36497D01*
X142573D01*
Y36523D01*
X142600D01*
Y36550D01*
X142653D01*
Y36577D01*
X142706D01*
Y36603D01*
X142759D01*
Y36630D01*
X142786D01*
Y36656D01*
X142839D01*
Y36683D01*
X142892D01*
Y36709D01*
X142945D01*
Y36736D01*
X142972D01*
Y36762D01*
X143025D01*
Y36789D01*
X143078D01*
Y36816D01*
X143131D01*
Y36842D01*
X143158D01*
Y36869D01*
X143211D01*
Y36895D01*
X143264D01*
Y36922D01*
X143317D01*
Y36948D01*
X143344D01*
Y36975D01*
X143397D01*
Y37002D01*
X143450D01*
Y37028D01*
X143503D01*
Y37055D01*
X143530D01*
Y37081D01*
X143583D01*
Y37108D01*
X143636D01*
Y37134D01*
X143663D01*
Y37161D01*
X143716D01*
Y37187D01*
X143769D01*
Y37214D01*
X143795D01*
Y36683D01*
D02*
G37*
G36*
X146053Y36391D02*
X146106D01*
Y36364D01*
X146133D01*
Y36338D01*
X146159D01*
Y36311D01*
X146186D01*
Y36284D01*
X146212D01*
Y36258D01*
X146239D01*
Y36231D01*
X146266D01*
Y36205D01*
X146292D01*
Y36178D01*
X146319D01*
Y36152D01*
X146345D01*
Y36125D01*
X146372D01*
Y36098D01*
X146398D01*
Y36072D01*
X146425D01*
Y36045D01*
X146452D01*
Y36019D01*
X146478D01*
Y35992D01*
X146505D01*
Y35966D01*
X146531D01*
Y35939D01*
X146558D01*
Y35912D01*
X146584D01*
Y35886D01*
X146611D01*
Y35859D01*
X146637D01*
Y35833D01*
X146664D01*
Y35806D01*
X146717D01*
Y35780D01*
X146744D01*
Y35753D01*
X146770D01*
Y35727D01*
X146797D01*
Y35700D01*
X146823D01*
Y35673D01*
X146850D01*
Y35647D01*
X146877D01*
Y35620D01*
X146903D01*
Y35594D01*
X146930D01*
Y35567D01*
X146956D01*
Y35541D01*
X146983D01*
Y35514D01*
X147009D01*
Y35487D01*
X147036D01*
Y35461D01*
X147063D01*
Y35434D01*
X147089D01*
Y35408D01*
X147116D01*
Y35381D01*
X147142D01*
Y35355D01*
X147169D01*
Y35328D01*
X147195D01*
Y35302D01*
X147222D01*
Y35275D01*
X147248D01*
Y35248D01*
X147275D01*
Y35222D01*
X147302D01*
Y35195D01*
X147355D01*
Y35169D01*
X147381D01*
Y34398D01*
Y34372D01*
Y32141D01*
X147355D01*
Y32167D01*
X147328D01*
Y32194D01*
X147302D01*
Y32220D01*
X147275D01*
Y32247D01*
X147248D01*
Y32300D01*
X147222D01*
Y32327D01*
X147195D01*
Y32353D01*
X147169D01*
Y32406D01*
X147142D01*
Y32433D01*
X147116D01*
Y32486D01*
X147089D01*
Y32513D01*
X147063D01*
Y32539D01*
X147036D01*
Y32592D01*
X147009D01*
Y32619D01*
X146983D01*
Y32672D01*
X146956D01*
Y32725D01*
X146930D01*
Y32752D01*
X146903D01*
Y32805D01*
X146877D01*
Y32858D01*
X146850D01*
Y32884D01*
X146823D01*
Y32937D01*
X146797D01*
Y32991D01*
X146770D01*
Y33044D01*
X146744D01*
Y33097D01*
X146717D01*
Y33150D01*
X146691D01*
Y33203D01*
X146664D01*
Y33256D01*
X146637D01*
Y33309D01*
X146611D01*
Y33362D01*
X146584D01*
Y33442D01*
X146558D01*
Y33495D01*
X146531D01*
Y33548D01*
X146505D01*
Y33628D01*
X146478D01*
Y33681D01*
X146452D01*
Y33761D01*
X146425D01*
Y33814D01*
X146398D01*
Y33894D01*
X146372D01*
Y33973D01*
X146345D01*
Y34053D01*
X146319D01*
Y34133D01*
X146292D01*
Y34212D01*
X146266D01*
Y34292D01*
X146239D01*
Y34398D01*
X146212D01*
Y34505D01*
X146186D01*
Y34611D01*
X146159D01*
Y34717D01*
X146133D01*
Y34823D01*
X146106D01*
Y34956D01*
X146080D01*
Y35089D01*
X146053D01*
Y35248D01*
X146027D01*
Y35461D01*
X146000D01*
Y35833D01*
X145973D01*
Y35992D01*
X146000D01*
Y36338D01*
X146027D01*
Y36417D01*
X146053D01*
Y36391D01*
D02*
G37*
G36*
X149453Y36338D02*
X149480D01*
Y36072D01*
X149506D01*
Y35753D01*
X149480D01*
Y35461D01*
X149453D01*
Y35275D01*
X149427D01*
Y35116D01*
X149400D01*
Y34983D01*
X149373D01*
Y34850D01*
X149347D01*
Y34744D01*
X149320D01*
Y34637D01*
X149294D01*
Y34531D01*
X149267D01*
Y34452D01*
X149241D01*
Y34345D01*
X149214D01*
Y34266D01*
X149188D01*
Y34186D01*
X149161D01*
Y34106D01*
X149134D01*
Y34027D01*
X149108D01*
Y33947D01*
X149081D01*
Y33867D01*
X149055D01*
Y33788D01*
X149028D01*
Y33734D01*
X149002D01*
Y33655D01*
X148975D01*
Y33602D01*
X148948D01*
Y33522D01*
X148922D01*
Y33469D01*
X148895D01*
Y33389D01*
X148869D01*
Y33336D01*
X148842D01*
Y33283D01*
X148816D01*
Y33230D01*
X148789D01*
Y33203D01*
Y33177D01*
X148763D01*
Y33123D01*
X148736D01*
Y33070D01*
X148709D01*
Y33017D01*
X148683D01*
Y32964D01*
X148656D01*
Y32911D01*
X148630D01*
Y32884D01*
X148603D01*
Y32831D01*
X148577D01*
Y32778D01*
X148550D01*
Y32725D01*
X148523D01*
Y32698D01*
X148497D01*
Y32645D01*
X148470D01*
Y32619D01*
X148444D01*
Y32566D01*
X148417D01*
Y32513D01*
X148391D01*
Y32486D01*
X148364D01*
Y32433D01*
X148337D01*
Y32406D01*
X148311D01*
Y32353D01*
X148284D01*
Y32327D01*
X148258D01*
Y32300D01*
X148231D01*
Y32247D01*
X148205D01*
Y32220D01*
X148178D01*
Y32167D01*
X148152D01*
Y32141D01*
X148125D01*
Y32114D01*
X148098D01*
Y32061D01*
X148072D01*
Y32034D01*
X148045D01*
Y32008D01*
X148019D01*
Y31981D01*
X147992D01*
Y31928D01*
X147966D01*
Y31902D01*
X147939D01*
Y35009D01*
X147966D01*
Y35036D01*
X147992D01*
Y35063D01*
X148019D01*
Y35089D01*
X148045D01*
Y35116D01*
X148072D01*
Y35142D01*
X148098D01*
Y35169D01*
X148125D01*
Y35195D01*
X148152D01*
Y35222D01*
X148178D01*
Y35248D01*
X148205D01*
Y35275D01*
X148258D01*
Y35328D01*
X148311D01*
Y35355D01*
X148337D01*
Y35381D01*
X148364D01*
Y35408D01*
X148391D01*
Y35434D01*
X148417D01*
Y35461D01*
X148444D01*
Y35487D01*
X148470D01*
Y35514D01*
X148497D01*
Y35541D01*
X148523D01*
Y35567D01*
X148550D01*
Y35594D01*
X148577D01*
Y35620D01*
X148603D01*
Y35647D01*
X148630D01*
Y35673D01*
X148656D01*
Y35700D01*
X148683D01*
Y35727D01*
X148709D01*
Y35753D01*
X148736D01*
Y35780D01*
X148763D01*
Y35806D01*
X148789D01*
Y35833D01*
X148816D01*
Y35859D01*
X148842D01*
Y35886D01*
X148869D01*
Y35912D01*
X148895D01*
Y35939D01*
X148922D01*
Y35966D01*
X148948D01*
Y35992D01*
X148975D01*
Y36019D01*
X149002D01*
Y36045D01*
X149028D01*
Y36072D01*
X149055D01*
Y36098D01*
X149081D01*
Y36125D01*
X149108D01*
Y36152D01*
X149161D01*
Y36178D01*
X149188D01*
Y36205D01*
X149214D01*
Y36231D01*
X149241D01*
Y36258D01*
X149267D01*
Y36284D01*
X149294D01*
Y36311D01*
X149320D01*
Y36338D01*
X149347D01*
Y36364D01*
X149373D01*
Y36391D01*
X149400D01*
Y36417D01*
X149427D01*
Y36444D01*
X149453D01*
Y36338D01*
D02*
G37*
G36*
X151711Y37187D02*
X151764D01*
Y37161D01*
X151791D01*
Y37134D01*
X151844D01*
Y37108D01*
X151897D01*
Y37081D01*
X151923D01*
Y37055D01*
X151977D01*
Y37028D01*
X152030D01*
Y37002D01*
X152056D01*
Y36975D01*
X152109D01*
Y36948D01*
X152163D01*
Y36922D01*
X152216D01*
Y36895D01*
X152242D01*
Y36869D01*
X152295D01*
Y36842D01*
X152348D01*
Y36816D01*
X152375D01*
Y36789D01*
X152428D01*
Y36762D01*
X152481D01*
Y36736D01*
X152534D01*
Y36709D01*
X152561D01*
Y36683D01*
X152614D01*
Y36656D01*
X152667D01*
Y36630D01*
X152720D01*
Y36603D01*
X152747D01*
Y36577D01*
X152800D01*
Y36550D01*
X152853D01*
Y36523D01*
X152906D01*
Y36497D01*
X152933D01*
Y36470D01*
X152986D01*
Y36444D01*
X153066D01*
Y36417D01*
X153278D01*
Y36444D01*
X153331D01*
Y36470D01*
X153411D01*
Y36497D01*
X153464D01*
Y36470D01*
X153491D01*
Y35992D01*
X153464D01*
Y35461D01*
X153437D01*
Y35142D01*
X153411D01*
Y34903D01*
X153384D01*
Y34717D01*
X153358D01*
Y34531D01*
X153331D01*
Y34372D01*
X153305D01*
Y34239D01*
X153278D01*
Y34106D01*
X153252D01*
Y33973D01*
X153225D01*
Y33867D01*
X153198D01*
Y33761D01*
X153172D01*
Y33628D01*
X153145D01*
Y33522D01*
X153119D01*
Y33442D01*
X153092D01*
Y33336D01*
X153066D01*
Y33256D01*
X153039D01*
Y33150D01*
X153013D01*
Y33070D01*
X152986D01*
Y32991D01*
X152959D01*
Y32884D01*
X152933D01*
Y32805D01*
X152906D01*
Y32725D01*
X152880D01*
Y32645D01*
X152853D01*
Y32592D01*
X152827D01*
Y32513D01*
X152800D01*
Y32433D01*
X152773D01*
Y32353D01*
X152747D01*
Y32300D01*
X152720D01*
Y32220D01*
X152694D01*
Y32167D01*
X152667D01*
Y32087D01*
X152641D01*
Y32034D01*
X152614D01*
Y31955D01*
X152587D01*
Y31902D01*
X152561D01*
Y31848D01*
X152534D01*
Y31769D01*
X152508D01*
Y31716D01*
X152481D01*
Y31662D01*
X152455D01*
Y31609D01*
X152428D01*
Y31530D01*
X152402D01*
Y31477D01*
X152375D01*
Y31423D01*
X152348D01*
Y31370D01*
X152322D01*
Y31317D01*
X152295D01*
Y31264D01*
X152269D01*
Y31211D01*
X152242D01*
Y31158D01*
X152216D01*
Y31105D01*
X152189D01*
Y31052D01*
X152163D01*
Y30998D01*
X152136D01*
Y30945D01*
X152109D01*
Y30892D01*
X152083D01*
Y30839D01*
X152056D01*
Y30786D01*
X152030D01*
Y30733D01*
X152003D01*
Y30680D01*
X151977D01*
Y30653D01*
X151950D01*
Y30600D01*
X151923D01*
Y30547D01*
X151897D01*
Y30627D01*
X151923D01*
Y30680D01*
X151950D01*
Y30759D01*
X151977D01*
Y30839D01*
X152003D01*
Y30892D01*
X152030D01*
Y30972D01*
X152056D01*
Y31052D01*
X152083D01*
Y31105D01*
X152109D01*
Y31184D01*
X152136D01*
Y31264D01*
X152163D01*
Y31344D01*
X152189D01*
Y31423D01*
X152216D01*
Y31503D01*
X152242D01*
Y31583D01*
X152269D01*
Y31662D01*
X152295D01*
Y31769D01*
X152322D01*
Y31848D01*
X152348D01*
Y31928D01*
X152375D01*
Y32034D01*
X152402D01*
Y32141D01*
X152428D01*
Y32220D01*
X152455D01*
Y32327D01*
X152481D01*
Y32433D01*
X152508D01*
Y32566D01*
X152534D01*
Y32645D01*
Y32672D01*
X152561D01*
Y32805D01*
X152587D01*
Y32937D01*
X152614D01*
Y33070D01*
X152641D01*
Y33230D01*
X152667D01*
Y33389D01*
X152694D01*
Y33575D01*
X152720D01*
Y33788D01*
X152747D01*
Y34027D01*
X152773D01*
Y34319D01*
X152800D01*
Y34797D01*
X152827D01*
Y35647D01*
X152800D01*
Y35780D01*
X152773D01*
Y35833D01*
X152747D01*
Y35859D01*
X152720D01*
Y35886D01*
X152694D01*
Y35912D01*
X152667D01*
Y35939D01*
X152641D01*
Y35966D01*
X152614D01*
Y35992D01*
X152587D01*
Y36019D01*
X152561D01*
Y36045D01*
X152508D01*
Y36072D01*
X152481D01*
Y36098D01*
X152455D01*
Y36125D01*
X152428D01*
Y36152D01*
X152375D01*
Y36178D01*
X152348D01*
Y36205D01*
X152322D01*
Y36231D01*
X152269D01*
Y36258D01*
X152242D01*
Y36284D01*
X152189D01*
Y36311D01*
X152163D01*
Y36338D01*
X152136D01*
Y36364D01*
X152083D01*
Y36391D01*
X152056D01*
Y36417D01*
X152030D01*
Y36444D01*
X151977D01*
Y36470D01*
X151950D01*
Y36497D01*
X151897D01*
Y36523D01*
X151870D01*
Y36550D01*
X151844D01*
Y36577D01*
X151791D01*
Y36603D01*
X151764D01*
Y36630D01*
X151711D01*
Y36656D01*
X151684D01*
Y37055D01*
X151658D01*
Y37214D01*
X151711D01*
Y37187D01*
D02*
G37*
G36*
X151897Y30494D02*
X151870D01*
Y30547D01*
X151897D01*
Y30494D01*
D02*
G37*
G36*
X151870Y30467D02*
X151844D01*
Y30494D01*
X151870D01*
Y30467D01*
D02*
G37*
G36*
X149586Y27041D02*
Y27014D01*
X149559D01*
Y27067D01*
X149586D01*
Y27041D01*
D02*
G37*
D10*
X148003Y57686D02*
G03*
X148003Y57686I-640J0D01*
G01*
X43864Y41424D02*
G03*
X43900Y41200I-671J-224D01*
G01*
D11*
X26794Y41600D02*
G03*
X26794Y41600I-394J0D01*
G01*
D02*
G03*
X26794Y41600I-394J0D01*
G01*
X206700Y23600D02*
G03*
X206700Y23206I0J-197D01*
G01*
D02*
G03*
X206700Y23600I0J197D01*
G01*
D02*
G03*
X206700Y23206I0J-197D01*
G01*
X182494Y45076D02*
G03*
X182494Y45076I-394J0D01*
G01*
X70235Y50273D02*
G03*
X70235Y50273I-394J0D01*
G01*
X1373Y83722D02*
X4326D01*
X1373Y36478D02*
X4326D01*
X1373D02*
Y83722D01*
X209950Y10450D02*
Y16750D01*
X203400Y10401D02*
Y16700D01*
X127348Y98742D02*
X134238D01*
X138962D02*
X145852D01*
D12*
X195300Y32368D02*
G03*
X195300Y32368I-300J0D01*
G01*
X170332Y28100D02*
G03*
X170332Y28100I-300J0D01*
G01*
X142703Y53608D02*
X145141D01*
X116385D02*
Y56046D01*
Y82364D02*
X118823D01*
X145141Y79926D02*
Y82364D01*
Y53608D02*
Y56046D01*
X116385Y53608D02*
X118823D01*
X116385Y79926D02*
Y82364D01*
X142703D02*
X145141D01*
X160586Y58336D02*
X176114D01*
X160586D02*
Y88864D01*
X176114D01*
X184814Y58336D02*
Y88864D01*
X4877Y84706D02*
Y90454D01*
X27948D01*
Y29746D02*
Y90454D01*
X4877Y29746D02*
X27948D01*
X4877D02*
Y35494D01*
X117300Y44958D02*
Y46200D01*
X95100Y24000D02*
Y25242D01*
Y44958D02*
Y46200D01*
X117300D01*
Y24000D02*
Y25242D01*
X95100Y24000D02*
X117300D01*
X49150Y43200D02*
X57250D01*
Y35170D02*
Y38030D01*
X49150Y30000D02*
X57250D01*
X192819Y21331D02*
Y30068D01*
X197181D01*
Y21331D02*
Y30068D01*
X192819Y21331D02*
X197181D01*
X157750Y82272D02*
Y93528D01*
X152050Y82272D02*
X157750D01*
X152050D02*
Y93528D01*
X157750D01*
X33600Y55800D02*
X44100D01*
Y59500D01*
X33600D02*
X44100D01*
X33600Y55800D02*
Y59500D01*
Y60800D02*
X44100D01*
Y64500D01*
X33600D02*
X44100D01*
X33600Y60800D02*
Y64500D01*
X147000Y82500D02*
Y93000D01*
Y82500D02*
X150700D01*
Y93000D01*
X147000D02*
X150700D01*
X149200Y66800D02*
X159700D01*
Y70500D01*
X149200D02*
X159700D01*
X149200Y66800D02*
Y70500D01*
X172332Y25919D02*
X181069D01*
X172332D02*
Y30281D01*
X181069D01*
Y25919D02*
Y30281D01*
D13*
X110427Y1600D02*
X115759D01*
X96968D02*
X102299D01*
X165987Y14952D02*
Y16868D01*
X139413Y14952D02*
Y16868D01*
X162891D02*
X165987D01*
X139413D02*
X142509D01*
X45713D02*
X48809D01*
X69191D02*
X72287D01*
X45713Y14952D02*
Y16868D01*
X72287Y14952D02*
Y16868D01*
X117027Y14978D02*
Y16868D01*
X113936D02*
X117027D01*
X95373Y14978D02*
Y16868D01*
X98464D01*
X102299Y1600D02*
X110427D01*
X107932Y65509D02*
Y91730D01*
Y102911D02*
Y114643D01*
X49468Y63935D02*
Y91730D01*
Y102911D02*
Y114643D01*
X107932D01*
X56141Y57557D02*
X67204D01*
D14*
X16300Y48452D02*
Y71748D01*
X1373Y36478D02*
Y83722D01*
X202200Y5100D02*
X211200D01*
Y22100D01*
X202200D02*
X211200D01*
X202200Y5100D02*
Y22100D01*
D15*
X197040Y16300D02*
Y19900D01*
X189560D02*
X197040D01*
X189560Y16300D02*
Y19900D01*
Y16300D02*
X197040D01*
X179935Y53540D02*
X184265D01*
X179935Y46060D02*
X184265D01*
X179935D02*
Y53540D01*
X184265Y46060D02*
Y53540D01*
X165400Y48660D02*
X169000D01*
Y56140D01*
X165400D02*
X169000D01*
X165400Y48660D02*
Y56140D01*
X174500Y46260D02*
X178100D01*
Y53740D01*
X174500D02*
X178100D01*
X174500Y46260D02*
Y53740D01*
X82400Y41840D02*
X86000D01*
X82400Y34360D02*
Y41840D01*
Y34360D02*
X86000D01*
Y41840D01*
X77400D02*
X81000D01*
X77400Y34360D02*
Y41840D01*
Y34360D02*
X81000D01*
Y41840D01*
X164400Y25860D02*
X168000D01*
Y33340D01*
X164400D02*
X168000D01*
X164400Y25860D02*
Y33340D01*
X158600Y48660D02*
X162200D01*
Y56140D01*
X158600D02*
X162200D01*
X158600Y48660D02*
Y56140D01*
X72400Y41840D02*
X76000D01*
X72400Y34360D02*
Y41840D01*
Y34360D02*
X76000D01*
Y41840D01*
X155700Y58760D02*
X159300D01*
Y66240D01*
X155700D02*
X159300D01*
X155700Y58760D02*
Y66240D01*
X67400Y41840D02*
X71000D01*
X67400Y34360D02*
Y41840D01*
Y34360D02*
X71000D01*
Y41840D01*
X183400Y25860D02*
X187000D01*
Y33340D01*
X183400D02*
X187000D01*
X183400Y25860D02*
Y33340D01*
X30400Y48340D02*
X34000D01*
X30400Y40860D02*
Y48340D01*
Y40860D02*
X34000D01*
Y48340D01*
X62400Y41840D02*
X66000D01*
X62400Y34360D02*
Y41840D01*
Y34360D02*
X66000D01*
Y41840D01*
X34900Y48340D02*
X38500D01*
X34900Y40860D02*
Y48340D01*
Y40860D02*
X38500D01*
Y48340D01*
X28900Y59258D02*
X32500D01*
X28900Y51777D02*
Y59258D01*
Y51777D02*
X32500D01*
Y59258D01*
X28900Y60777D02*
X32500D01*
Y68257D01*
X28900D02*
X32500D01*
X28900Y60777D02*
Y68257D01*
X111300Y79640D02*
X114900D01*
X111300Y72160D02*
Y79640D01*
Y72160D02*
X114900D01*
Y79640D01*
X155740Y94600D02*
Y98200D01*
X148260D02*
X155740D01*
X148260Y94600D02*
Y98200D01*
Y94600D02*
X155740D01*
X155900Y79840D02*
X159500D01*
X155900Y72360D02*
Y79840D01*
Y72360D02*
X159500D01*
Y79840D01*
X151400Y72360D02*
X155000D01*
Y79840D01*
X151400D02*
X155000D01*
X151400Y72360D02*
Y79840D01*
X125900Y44340D02*
X129500D01*
X125900Y36860D02*
Y44340D01*
Y36860D02*
X129500D01*
Y44340D01*
D16*
X89403Y48362D02*
X92735Y45030D01*
X89403D02*
X92735Y48362D01*
X89403Y46696D02*
X92735D01*
X91069Y45030D02*
Y48362D01*
M02*
