G04*
G04 #@! TF.GenerationSoftware,Altium Limited,Altium Designer,24.6.1 (21)*
G04*
G04 Layer_Color=16711935*
%FSLAX25Y25*%
%MOIN*%
G70*
G04*
G04 #@! TF.SameCoordinates,3FA1F31C-5517-4C6A-88EA-090D92855D6C*
G04*
G04*
G04 #@! TF.FilePolarity,Positive*
G04*
G01*
G75*
%ADD10C,0.01000*%
D10*
X211128Y-551D02*
G03*
X212700Y100I0J2223D01*
G01*
X-454Y1821D02*
G03*
X197Y249I2223J0D01*
G01*
D02*
G03*
X2128Y-551I1931J1931D01*
G01*
X28943Y5607D02*
G03*
X28004Y3339I2268J-2268D01*
G01*
X30297Y6168D02*
G03*
X28943Y5607I0J-1914D01*
G01*
X31504Y5668D02*
G03*
X30297Y6168I-1207J-1207D01*
G01*
X32361Y3599D02*
G03*
X31504Y5668I-2926J0D01*
G01*
X28004Y112389D02*
G03*
X28861Y110319I2926J0D01*
G01*
D02*
G03*
X30068Y109819I1207J1207D01*
G01*
D02*
G03*
X31422Y110380I0J1914D01*
G01*
D02*
G03*
X32361Y112648I-2268J2268D01*
G01*
X175461Y112567D02*
G03*
X176400Y110299I3207J0D01*
G01*
D02*
G03*
X177754Y109738I1354J1354D01*
G01*
D02*
G03*
X178961Y110238I0J1707D01*
G01*
D02*
G03*
X179818Y112307I-2069J2069D01*
G01*
X1933Y116489D02*
G03*
X361Y115838I0J-2223D01*
G01*
D02*
G03*
X-439Y113907I1931J-1931D01*
G01*
X212700Y100D02*
G03*
X213500Y2031I-1931J1931D01*
G01*
X213512Y114066D02*
G03*
X212861Y115638I-2223J0D01*
G01*
D02*
G03*
X210929Y116438I-1931J-1931D01*
G01*
X213500Y2031D02*
Y113300D01*
X2128Y-551D02*
X28004D01*
X-439Y2228D02*
Y112600D01*
X28004Y-551D02*
Y3339D01*
X32361Y-513D02*
Y3599D01*
Y-513D02*
X210900D01*
X156038Y116438D02*
X175461D01*
X153700Y114100D02*
X156038Y116438D01*
X121200Y114100D02*
X153700D01*
X118862Y116438D02*
X121200Y114100D01*
X32361Y116438D02*
X118862D01*
X5880Y116489D02*
X28004D01*
X175461Y112567D02*
Y116438D01*
X179818Y112307D02*
Y116419D01*
X-439Y28138D02*
Y113907D01*
X2712Y116489D02*
X5880D01*
X1933D02*
X2712D01*
X-439Y28138D02*
Y113907D01*
X32361Y112648D02*
Y116438D01*
X28004Y112389D02*
Y116489D01*
X213512Y113287D02*
Y114066D01*
X179837Y116438D02*
X210929D01*
M02*
